RobotoAvar2-wdth151.ufo
<glyph name="exclam" format="2">
  <advance width="627.1401869158879"/>
  <unicode hex="0021"/>
  <outline>
    <contour>
      <point x="186.0" y="99.85981308411215" type="qcurve" smooth="yes"/>
      <point x="186.0" y="150.2803738317757"/>
      <point x="251.85046728971963" y="222.29906542056074"/>
      <point x="313.5700934579439" y="222.29906542056074" type="qcurve" smooth="yes"/>
      <point x="375.30841121495325" y="222.29906542056074"/>
      <point x="441.14018691588785" y="150.2803738317757"/>
      <point x="441.14018691588785" y="99.85981308411215" type="qcurve" smooth="yes"/>
      <point x="441.14018691588785" y="49.45794392523364"/>
      <point x="375.30841121495325" y="-22.560747663551403"/>
      <point x="313.5700934579439" y="-22.560747663551403" type="qcurve" smooth="yes"/>
      <point x="251.85046728971963" y="-22.560747663551403"/>
      <point x="186.0" y="49.45794392523364"/>
    </contour>
    <contour>
      <point x="228.20560747663552" y="412.93457943925233" type="line"/>
      <point x="212.6448598130841" y="1456.0" type="line"/>
      <point x="414.49532710280374" y="1456.0" type="line"/>
      <point x="398.93457943925233" y="412.93457943925233" type="line"/>
    </contour>
  </outline>
</glyph>
<glyph name="quotedbl" format="2">
  <advance width="799.9532710280374"/>
  <unicode hex="0022"/>
  <outline>
    <contour>
      <point x="115.0" y="966.0" type="line"/>
      <point x="100.0" y="1320.0" type="line"/>
      <point x="100.0" y="1456.0" type="line"/>
      <point x="287.4766355140187" y="1456.0" type="line"/>
      <point x="287.4766355140187" y="1320.0" type="line"/>
      <point x="272.4766355140187" y="966.0" type="line"/>
    </contour>
    <contour>
      <point x="527.4766355140187" y="966.0" type="line"/>
      <point x="512.4766355140187" y="1320.0" type="line"/>
      <point x="512.4766355140187" y="1456.0" type="line"/>
      <point x="699.9532710280374" y="1456.0" type="line"/>
      <point x="699.9532710280374" y="1320.0" type="line"/>
      <point x="684.9532710280374" y="966.0" type="line"/>
    </contour>
  </outline>
</glyph>
<glyph name="numbersign" format="2">
  <advance width="1626.4800995024877"/>
  <unicode hex="0023"/>
  <outline>
    <contour>
      <point x="228.5" y="-20.0" type="line"/>
      <point x="665.4999999999999" y="1501.0" type="line"/>
      <point x="811.490049751244" y="1501.0" type="line"/>
      <point x="374.49004975124376" y="-20.0" type="line"/>
    </contour>
    <contour>
      <point x="789.9900497512439" y="-20.0" type="line"/>
      <point x="1226.990049751244" y="1501.0" type="line"/>
      <point x="1372.9800995024875" y="1501.0" type="line"/>
      <point x="935.9800995024877" y="-20.0" type="line"/>
    </contour>
    <contour>
      <point x="76.50000000000001" y="400.2616822429907" type="line"/>
      <point x="76.50000000000001" y="543.8691588785048" type="line"/>
      <point x="1474.9800995024877" y="543.8691588785048" type="line"/>
      <point x="1474.9800995024877" y="400.2616822429907" type="line"/>
    </contour>
    <contour>
      <point x="127.50000000000001" y="935.2616822429906" type="line"/>
      <point x="127.50000000000001" y="1078.8691588785048" type="line"/>
      <point x="1524.9800995024875" y="1078.8691588785048" type="line"/>
      <point x="1524.9800995024875" y="935.2616822429906" type="line"/>
    </contour>
  </outline>
</glyph>
<glyph name="dollar" format="2">
  <advance width="1038.9532710280373"/>
  <unicode hex="0024"/>
  <outline>
    <contour>
      <point x="21.0" y="381.29353233830847" type="qcurve" smooth="yes"/>
      <point x="21.0" y="392.2636815920398" type="line"/>
      <point x="205.47663551401868" y="392.2636815920398" type="line"/>
      <point x="205.47663551401868" y="381.29353233830847" type="line" smooth="yes"/>
      <point x="205.47663551401868" y="261.8457711442786"/>
      <point x="370.4766355140187" y="144.29850746268656"/>
      <point x="518.4766355140187" y="144.29850746268656" type="qcurve" smooth="yes"/>
      <point x="665.4069837727251" y="144.29850746268656"/>
      <point x="823.4766355140187" y="265.0892267633794"/>
      <point x="823.4766355140187" y="364.2325289440647" type="qcurve" smooth="yes"/>
      <point x="823.4766355140187" y="453.37569163528156"/>
      <point x="679.3875482401079" y="604.803738317757"/>
      <point x="458.4766355140187" y="666.8785046728972" type="qcurve" smooth="yes"/>
      <point x="233.94392523364485" y="728.9626168224299"/>
      <point x="49.0" y="944.2616822429907"/>
      <point x="49.0" y="1097.803738317757" type="qcurve" smooth="yes"/>
      <point x="49.0" y="1253.7196261682243"/>
      <point x="292.7570093457944" y="1458.0"/>
      <point x="508.4766355140187" y="1458.0" type="qcurve" smooth="yes"/>
      <point x="725.214953271028" y="1458.0"/>
      <point x="979.9532710280374" y="1234.681592039801"/>
      <point x="979.9532710280374" y="1075.771144278607" type="qcurve" smooth="yes"/>
      <point x="979.9532710280374" y="1064.7810945273632" type="line"/>
      <point x="795.4766355140187" y="1064.7810945273632" type="line"/>
      <point x="795.4766355140187" y="1075.771144278607" type="line" smooth="yes"/>
      <point x="795.4766355140187" y="1180.3482587064677"/>
      <point x="651.4766355140187" y="1306.915422885572"/>
      <point x="508.4766355140187" y="1306.915422885572" type="qcurve" smooth="yes"/>
      <point x="366.6249593155717" y="1306.915422885572"/>
      <point x="231.47663551401868" y="1199.0338029478776"/>
      <point x="231.47663551401868" y="1100.0139489468545" type="qcurve" smooth="yes"/>
      <point x="231.47663551401868" y="1019.7624029385781"/>
      <point x="369.39252336448595" y="876.5700934579439"/>
      <point x="586.4766355140187" y="815.3644859813085" type="qcurve" smooth="yes"/>
      <point x="807.8691588785047" y="753.9626168224299"/>
      <point x="1005.9532710280374" y="529.018691588785"/>
      <point x="1005.9532710280374" y="366.5140186915888" type="qcurve" smooth="yes"/>
      <point x="1005.9532710280374" y="202.48598130841123"/>
      <point x="743.2710280373832" y="-6.0"/>
      <point x="518.4766355140187" y="-6.0" type="qcurve" smooth="yes"/>
      <point x="292.6686660157158" y="-6.0"/>
      <point x="21.0" y="202.1144278606965"/>
    </contour>
    <contour>
      <point x="441.04672897196264" y="-170.0" type="line"/>
      <point x="441.04672897196264" y="758.0" type="line"/>
      <point x="581.9065420560747" y="758.0" type="line"/>
      <point x="581.9065420560747" y="80.0" type="line"/>
      <point x="595.9065420560747" y="70.0" type="line"/>
      <point x="595.9065420560747" y="-170.0" type="line"/>
    </contour>
    <contour>
      <point x="455.04672897196264" y="758.0" type="line"/>
      <point x="455.04672897196264" y="1386.0" type="line"/>
      <point x="441.04672897196264" y="1396.0" type="line"/>
      <point x="441.04672897196264" y="1586.0" type="line"/>
      <point x="595.9065420560747" y="1586.0" type="line"/>
      <point x="595.9065420560747" y="758.0" type="line"/>
    </contour>
  </outline>
</glyph>
<glyph name="ampersand" format="2">
  <advance width="1327.6168224299067"/>
  <unicode hex="0026"/>
  <outline>
    <contour>
      <point x="92.5" y="379.607476635514" type="qcurve" smooth="yes"/>
      <point x="92.5" y="539.607476635514"/>
      <point x="321.6118240572837" y="766.5874831450227"/>
      <point x="471.93078997535684" y="859.9545264332543" type="qcurve" smooth="yes"/>
      <point x="632.2485469847027" y="959.2692611707816" type="line" smooth="yes"/>
      <point x="714.3019249546659" y="1009.6592272283443"/>
      <point x="774.7429906542056" y="1109.7319942344354"/>
      <point x="774.7429906542056" y="1169.7661691542287" type="qcurve" smooth="yes"/>
      <point x="774.7429906542056" y="1239.5024875621891"/>
      <point x="684.7778165248524" y="1333.1044776119404"/>
      <point x="599.7429906542056" y="1333.1044776119404" type="qcurve" smooth="yes"/>
      <point x="514.7429906542056" y="1333.1044776119404"/>
      <point x="416.7429906542056" y="1229.5273631840798"/>
      <point x="416.7429906542056" y="1159.766169154229" type="qcurve" smooth="yes"/>
      <point x="416.7429906542056" y="1089.9253731343285"/>
      <point x="497.5244106569954" y="960.3313339842842"/>
      <point x="597.8271028037383" y="839.4392523364487" type="qcurve" smooth="yes"/>
      <point x="1291.1168224299065" y="0.0" type="line"/>
      <point x="1058.443925233645" y="0.0" type="line"/>
      <point x="448.48130841121497" y="739.4392523364486" type="line" smooth="yes"/>
      <point x="341.93925233644865" y="868.9532710280374"/>
      <point x="227.26635514018696" y="1058.5607476635514"/>
      <point x="227.26635514018696" y="1159.514018691589" type="qcurve" smooth="yes"/>
      <point x="227.26635514018696" y="1300.0000000000002"/>
      <point x="440.21962616822435" y="1486.0"/>
      <point x="599.7429906542056" y="1486.0" type="qcurve" smooth="yes"/>
      <point x="759.2713302645651" y="1486.0"/>
      <point x="954.032710280374" y="1310.5658622773983"/>
      <point x="954.032710280374" y="1179.9634537592412" type="qcurve" smooth="yes"/>
      <point x="954.032710280374" y="1059.1393034825871"/>
      <point x="828.7517319942345" y="897.4399962802809"/>
      <point x="732.0759985121124" y="837.7238573487701" type="qcurve" smooth="yes"/>
      <point x="571.7582415027666" y="738.427814200028" type="line" smooth="yes"/>
      <point x="431.482842795369" y="651.0570046961456"/>
      <point x="284.35046728971963" y="489.4577114427861"/>
      <point x="284.35046728971963" y="379.95522388059703" type="qcurve" smooth="yes"/>
      <point x="284.35046728971963" y="270.4577114427861"/>
      <point x="440.22088157344126" y="133.12935323383084"/>
      <point x="573.3411214953271" y="133.12935323383084" type="qcurve" smooth="yes"/>
      <point x="755.5836006881481" y="133.12935323383084"/>
      <point x="1020.8430975961314" y="420.40191565536804"/>
      <point x="1021.796368624169" y="673.9999999999999" type="qcurve"/>
      <point x="1194.6869158878505" y="673.9999999999999" type="line"/>
      <point x="1193.7710280373833" y="379.85046728971963"/>
      <point x="836.4065420560747" y="-20.0"/>
      <point x="573.3411214953271" y="-20.0" type="qcurve" smooth="yes"/>
      <point x="346.48130841121497" y="-20.0"/>
      <point x="92.5" y="204.60747663551402"/>
    </contour>
  </outline>
</glyph>
<glyph name="quotesingle" format="2">
  <advance width="432.47663551401865"/>
  <unicode hex="0027"/>
  <outline>
    <contour>
      <point x="137.50000000000003" y="966.0000000000001" type="line"/>
      <point x="112.5" y="1320.0" type="line"/>
      <point x="112.5" y="1456.0" type="line"/>
      <point x="319.9766355140187" y="1456.0" type="line"/>
      <point x="319.9766355140187" y="1320.0" type="line"/>
      <point x="294.9766355140187" y="966.0000000000001" type="line"/>
    </contour>
  </outline>
</glyph>
<glyph name="parenleft" format="2">
  <advance width="707.4766355140187"/>
  <unicode hex="0028"/>
  <outline>
    <contour>
      <point x="671.4766355140187" y="-436.0" type="line"/>
      <point x="463.7383177570093" y="-340.0"/>
      <point x="124.0" y="140.0"/>
      <point x="124.0" y="515.0" type="qcurve" smooth="yes"/>
      <point x="124.0" y="525.0" type="line" smooth="yes"/>
      <point x="124.0" y="917.0"/>
      <point x="463.7383177570093" y="1380.0"/>
      <point x="671.4766355140187" y="1476.0" type="qcurve"/>
      <point x="671.4766355140187" y="1294.5074626865671" type="line"/>
      <point x="547.1880783000883" y="1218.3333333333333"/>
      <point x="326.4766355140187" y="860.0298507462686"/>
      <point x="326.4766355140187" y="532.0" type="qcurve" smooth="yes"/>
      <point x="326.4766355140187" y="508.0" type="line" smooth="yes"/>
      <point x="326.4766355140187" y="193.90049751243782"/>
      <point x="547.1880783000883" y="-178.33333333333334"/>
      <point x="671.4766355140187" y="-254.50746268656715" type="qcurve"/>
    </contour>
  </outline>
</glyph>
<glyph name="parenright" format="2">
  <advance width="732.4766355140188"/>
  <unicode hex="0029"/>
  <outline>
    <contour>
      <point x="48.50000000000001" y="-436.00000000000006" type="qcurve"/>
      <point x="48.50000000000001" y="-254.50746268656718" type="line"/>
      <point x="172.78855721393037" y="-178.33333333333334"/>
      <point x="393.5" y="193.90547263681594"/>
      <point x="393.5" y="508.00000000000006" type="qcurve" smooth="yes"/>
      <point x="393.5" y="532.0000000000001" type="line" smooth="yes"/>
      <point x="393.5" y="860.0248756218906"/>
      <point x="172.78855721393037" y="1218.3333333333335"/>
      <point x="48.50000000000001" y="1294.5074626865671" type="qcurve"/>
      <point x="48.50000000000001" y="1476.0" type="line"/>
      <point x="256.2383177570094" y="1380.0000000000002"/>
      <point x="595.9766355140188" y="917.0"/>
      <point x="595.9766355140188" y="525.0" type="qcurve" smooth="yes"/>
      <point x="595.9766355140188" y="515.0" type="line" smooth="yes"/>
      <point x="595.9766355140188" y="140.0"/>
      <point x="256.2383177570094" y="-340.0"/>
    </contour>
  </outline>
</glyph>
<glyph name="asterisk" format="2">
  <advance width="1080.4378109452737"/>
  <unicode hex="002A"/>
  <outline>
    <contour>
      <point x="57.85572139303483" y="1056.4626865671642" type="line"/>
      <point x="117.1592039800995" y="1237.323383084577" type="line"/>
      <point x="482.6865671641791" y="1079.4975124378109" type="line"/>
      <point x="444.72636815920396" y="1476.0" type="line"/>
      <point x="635.7064676616916" y="1476.0" type="line"/>
      <point x="597.7462686567164" y="1079.4975124378109" type="line"/>
      <point x="963.273631840796" y="1237.323383084577" type="line"/>
      <point x="1022.5771144278607" y="1056.4626865671642" type="line"/>
      <point x="634.0696517412936" y="968.5970149253732" type="line"/>
      <point x="897.7412935323383" y="670.9751243781094" type="line"/>
      <point x="742.9502487562189" y="558.457711442786" type="line"/>
      <point x="540.2189054726368" y="902.0298507462686" type="line"/>
      <point x="337.4875621890547" y="558.457711442786" type="line"/>
      <point x="182.69651741293532" y="670.9751243781094" type="line"/>
      <point x="446.363184079602" y="968.5970149253732" type="line"/>
    </contour>
  </outline>
</glyph>
<glyph name="plus" format="2">
  <advance width="1056.4766355140189"/>
  <unicode hex="002B"/>
  <outline>
    <contour>
      <point x="69.5" y="588.3831775700935" type="line"/>
      <point x="69.5" y="757.6168224299066" type="line"/>
      <point x="986.9766355140189" y="757.6168224299066" type="line"/>
      <point x="986.9766355140189" y="588.3831775700935" type="line"/>
    </contour>
    <contour>
      <point x="434.5" y="188.00000000000003" type="line"/>
      <point x="434.5" y="1160.0" type="line"/>
      <point x="621.9766355140188" y="1160.0" type="line"/>
      <point x="621.9766355140188" y="188.00000000000003" type="line"/>
    </contour>
  </outline>
</glyph>
<glyph name="comma" format="2">
  <advance width="612.4953271028038"/>
  <unicode hex="002C"/>
  <outline>
    <contour>
      <point x="122.50000000000001" y="-218.00000000000003" type="line"/>
      <point x="170.5" y="-154.00000000000003"/>
      <point x="222.51869158878506" y="-20.0"/>
      <point x="222.50000000000003" y="70.0" type="qcurve" smooth="yes"/>
      <point x="222.50000000000003" y="223.5514018691589" type="line"/>
      <point x="409.99532710280374" y="223.5514018691589" type="line"/>
      <point x="409.99532710280374" y="70.0" type="line" smooth="yes"/>
      <point x="409.99532710280374" y="-40.56074766355141"/>
      <point x="310.2757009345794" y="-224.5981308411215"/>
      <point x="227.50000000000003" y="-291.00000000000006" type="qcurve"/>
    </contour>
  </outline>
</glyph>
<glyph name="hyphen" format="2">
  <advance width="714.0"/>
  <unicode hex="002D"/>
  <outline>
    <contour>
      <point x="75.0" y="541.4579439252336" type="line"/>
      <point x="75.0" y="718.5420560747664" type="line"/>
      <point x="639.0" y="718.5420560747664" type="line"/>
      <point x="639.0" y="541.4579439252336" type="line"/>
    </contour>
  </outline>
</glyph>
<glyph name="period" format="2">
  <advance width="611.5981308411215"/>
  <unicode hex="002E"/>
  <outline>
    <contour>
      <point x="172.5" y="106.17757009345794" type="qcurve" smooth="yes"/>
      <point x="172.5" y="159.4859813084112"/>
      <point x="241.20093457943926" y="234.33644859813086"/>
      <point x="305.8084112149533" y="234.33644859813086" type="qcurve" smooth="yes"/>
      <point x="370.39719626168227" y="234.33644859813086"/>
      <point x="439.09813084112153" y="159.4859813084112"/>
      <point x="439.09813084112153" y="106.17757009345794" type="qcurve" smooth="yes"/>
      <point x="439.09813084112153" y="52.85046728971963"/>
      <point x="370.39719626168227" y="-22.0"/>
      <point x="305.8084112149533" y="-22.0" type="qcurve" smooth="yes"/>
      <point x="241.20093457943926" y="-22.0"/>
      <point x="172.5" y="52.85046728971963"/>
    </contour>
  </outline>
</glyph>
<glyph name="slash" format="2">
  <advance width="610.7412935323383"/>
  <unicode hex="002F"/>
  <outline>
    <contour>
      <point x="-87.89800995024876" y="-125.0" type="line"/>
      <point x="520.1019900497513" y="1456.0" type="line"/>
      <point x="698.6393034825871" y="1456.0" type="line"/>
      <point x="90.63930348258707" y="-125.0" type="line"/>
    </contour>
  </outline>
</glyph>
<glyph name="zero" format="2">
  <advance width="1276.677570093458"/>
  <unicode hex="0030"/>
  <outline>
    <contour>
      <point x="110.0" y="524.8691588785047" type="qcurve" smooth="yes"/>
      <point x="110.0" y="932.1308411214953" type="line" smooth="yes"/>
      <point x="110.0" y="1193.9719626168223"/>
      <point x="390.0373831775701" y="1486.0"/>
      <point x="638.0700934579439" y="1486.0" type="qcurve" smooth="yes"/>
      <point x="884.1214953271028" y="1486.0"/>
      <point x="1166.677570093458" y="1193.9719626168223"/>
      <point x="1166.677570093458" y="932.1308411214953" type="qcurve" smooth="yes"/>
      <point x="1166.677570093458" y="524.8691588785047" type="line" smooth="yes"/>
      <point x="1166.677570093458" y="262.02803738317755"/>
      <point x="884.1214953271028" y="-30.0"/>
      <point x="638.0700934579439" y="-30.0" type="qcurve" smooth="yes"/>
      <point x="390.0373831775701" y="-30.0"/>
      <point x="110.0" y="262.02803738317755"/>
    </contour>
    <contour>
      <point x="311.58878504672896" y="500.3532338308458" type="line" smooth="yes"/>
      <point x="311.58878504672896" y="339.1865671641791"/>
      <point x="471.58878504672896" y="130.10945273631842"/>
      <point x="638.088785046729" y="130.10945273631842" type="qcurve" smooth="yes"/>
      <point x="805.088785046729" y="130.10945273631842"/>
      <point x="965.088785046729" y="339.1865671641791"/>
      <point x="965.088785046729" y="500.3532338308458" type="qcurve" smooth="yes"/>
      <point x="965.088785046729" y="955.6417910447761" type="line" smooth="yes"/>
      <point x="965.088785046729" y="1116.813432835821"/>
      <point x="805.088785046729" y="1325.8855721393036"/>
      <point x="638.088785046729" y="1325.8855721393036" type="qcurve" smooth="yes"/>
      <point x="471.58878504672896" y="1325.8855721393036"/>
      <point x="311.58878504672896" y="1116.813432835821"/>
      <point x="311.58878504672896" y="955.6417910447761" type="qcurve" smooth="yes"/>
    </contour>
  </outline>
</glyph>
<glyph name="one" format="2">
  <advance width="1276.677570093458"/>
  <unicode hex="0031"/>
  <outline>
    <contour>
      <point x="598.1448598130842" y="0.0" type="line"/>
      <point x="598.1448598130842" y="1242.7164179104477" type="line"/>
      <point x="172.0" y="1067.7164179104477" type="line"/>
      <point x="172.0" y="1256.0" type="line"/>
      <point x="760.1448598130842" y="1476.0" type="line"/>
      <point x="799.4906542056075" y="1476.0" type="line"/>
      <point x="799.4906542056075" y="0.0" type="line"/>
    </contour>
  </outline>
</glyph>
<glyph name="two" format="2">
  <advance width="1276.677570093458"/>
  <unicode hex="0032"/>
  <outline>
    <contour>
      <point x="109.87383177570094" y="0.0" type="line"/>
      <point x="109.87383177570094" y="141.64072162551727" type="line"/>
      <point x="699.9205607476636" y="702.5325475426606" type="line" smooth="yes"/>
      <point x="821.2841400474264" y="816.7652392244386"/>
      <point x="950.2009345794393" y="980.2419677314363"/>
      <point x="950.2009345794393" y="1079.4811456735017" type="qcurve" smooth="yes"/>
      <point x="950.2009345794393" y="1178.8012740038128"/>
      <point x="789.7518947319478" y="1326.0646766169154"/>
      <point x="646.5700934579439" y="1326.0646766169154" type="qcurve" smooth="yes"/>
      <point x="502.33672757706796" y="1326.0646766169154"/>
      <point x="305.48130841121497" y="1168.359929325336"/>
      <point x="305.48130841121497" y="1028.443530013484" type="qcurve" smooth="yes"/>
      <point x="305.48130841121497" y="1018.4634305109963" type="line"/>
      <point x="109.5" y="1018.4634305109963" type="line"/>
      <point x="109.5" y="1028.443530013484" type="line" smooth="yes"/>
      <point x="109.5" y="1229.663969870275"/>
      <point x="415.9310922025387" y="1486.0"/>
      <point x="644.8785046728972" y="1486.0" type="qcurve" smooth="yes"/>
      <point x="871.7098386571814" y="1486.0"/>
      <point x="1148.177570093458" y="1250.112568001116"/>
      <point x="1148.177570093458" y="1088.8063421211698" type="qcurve" smooth="yes"/>
      <point x="1148.177570093458" y="945.1361882177896"/>
      <point x="969.8836425349886" y="715.9957455712093"/>
      <point x="839.5280373831775" y="596.5948295903659" type="qcurve" smooth="yes"/>
      <point x="373.19798205235503" y="167.36034779374157" type="line"/>
      <point x="1192.677570093458" y="167.36034779374157" type="line"/>
      <point x="1192.677570093458" y="0.0" type="line"/>
    </contour>
  </outline>
</glyph>
<glyph name="three" format="2">
  <advance width="1276.677570093458"/>
  <unicode hex="0033"/>
  <outline>
    <contour>
      <point x="75.0" y="381.79490398474917" type="qcurve" smooth="yes"/>
      <point x="75.0" y="391.738829218394" type="line"/>
      <point x="269.22429906542055" y="391.738829218394" type="line"/>
      <point x="269.22429906542055" y="381.79490398474917" type="line" smooth="yes"/>
      <point x="269.22429906542055" y="261.68931045706046"/>
      <point x="459.2036313758311" y="129.5174129353234"/>
      <point x="616.7570093457944" y="129.5174129353234" type="qcurve" smooth="yes"/>
      <point x="774.568163853629" y="129.5174129353234"/>
      <point x="962.2009345794393" y="261.13837355279674"/>
      <point x="962.2009345794393" y="400.32338308457713" type="qcurve" smooth="yes"/>
      <point x="962.2009345794393" y="539.6764774259543"/>
      <point x="750.6890547263681" y="681.0895522388059"/>
      <point x="572.0" y="681.0796019900497" type="qcurve" smooth="yes"/>
      <point x="406.33644859813086" y="681.0796019900497" type="line"/>
      <point x="406.33644859813086" y="836.5870646766169" type="line"/>
      <point x="552.0" y="836.5870646766169" type="line" smooth="yes"/>
      <point x="716.4388106197982" y="836.5870646766169"/>
      <point x="895.2009345794393" y="970.0461245175989"/>
      <point x="895.2009345794393" y="1089.654577579393" type="qcurve" smooth="yes"/>
      <point x="895.2009345794393" y="1208.9751243781095"/>
      <point x="740.4350444041474" y="1326.4825870646766"/>
      <point x="609.2943925233645" y="1326.4825870646766" type="qcurve" smooth="yes"/>
      <point x="470.8219649416469" y="1326.4825870646766"/>
      <point x="309.22429906542055" y="1208.5003022271817"/>
      <point x="309.22429906542055" y="1098.5044404147488" type="qcurve" smooth="yes"/>
      <point x="309.22429906542055" y="1088.541823592319" type="line"/>
      <point x="115.61682242990655" y="1088.541823592319" type="line"/>
      <point x="115.61682242990655" y="1098.5044404147488" type="line" smooth="yes"/>
      <point x="115.61682242990655" y="1259.8457711442786"/>
      <point x="388.00013948946855" y="1486.0"/>
      <point x="608.3504672897196" y="1486.0" type="qcurve" smooth="yes"/>
      <point x="823.4166550425442" y="1486.0"/>
      <point x="1094.373831775701" y="1270.3786674106104"/>
      <point x="1094.373831775701" y="1100.0" type="qcurve" smooth="yes"/>
      <point x="1094.373831775701" y="999.1775700934579"/>
      <point x="970.0560747663551" y="815.6388152694472"/>
      <point x="841.4579439252336" y="765.9004975124378" type="qcurve"/>
      <point x="841.9579439252336" y="761.9004975124378" type="line"/>
      <point x="987.1542056074767" y="730.1247965778584"/>
      <point x="1163.677570093458" y="540.3364485981308"/>
      <point x="1163.677570093458" y="401.0" type="qcurve" smooth="yes"/>
      <point x="1163.677570093458" y="199.8343330078579"/>
      <point x="854.9088203840611" y="-30.0"/>
      <point x="616.3130841121496" y="-30.0" type="qcurve" smooth="yes"/>
      <point x="364.34804947226485" y="-30.0"/>
      <point x="75.0" y="200.5069512251825"/>
    </contour>
  </outline>
</glyph>
<glyph name="four" format="2">
  <advance width="1276.677570093458"/>
  <unicode hex="0034"/>
  <outline>
    <contour>
      <point x="818.7570093457944" y="0.0" type="line"/>
      <point x="818.7570093457944" y="397.8130841121495" type="line"/>
      <point x="818.7570093457944" y="449.8130841121495" type="line"/>
      <point x="818.7570093457944" y="1169.3924768679965" type="line"/>
      <point x="806.7570093457944" y="1169.3924768679965" type="line"/>
      <point x="287.8067838378202" y="501.14925373134326" type="line"/>
      <point x="789.8691588785047" y="501.14925373134326" type="line"/>
      <point x="866.8691588785047" y="501.14925373134326" type="line"/>
      <point x="1210.233644859813" y="501.14925373134326" type="line"/>
      <point x="1210.233644859813" y="341.50248756218906" type="line"/>
      <point x="56.19854001022922" y="341.50248756218906" type="line"/>
      <point x="56.19854001022922" y="469.14925373134326" type="line"/>
      <point x="826.0803924303715" y="1456.0" type="line"/>
      <point x="1006.2336448598131" y="1456.0" type="line"/>
      <point x="1006.2336448598131" y="0.0" type="line"/>
    </contour>
  </outline>
</glyph>
<glyph name="five" format="2">
  <advance width="1276.677570093458"/>
  <unicode hex="0035"/>
  <outline>
    <contour>
      <point x="99.00934579439253" y="365.99004975124376" type="qcurve" smooth="yes"/>
      <point x="99.00934579439253" y="375.99004975124376" type="line"/>
      <point x="289.7710280373832" y="375.99004975124376" type="line"/>
      <point x="289.7710280373832" y="365.99004975124376" type="line" smooth="yes"/>
      <point x="289.7710280373832" y="256.43283582089555"/>
      <point x="475.45510763937324" y="129.79601990049753"/>
      <point x="631.2600316176129" y="129.79601990049753" type="qcurve" smooth="yes"/>
      <point x="786.7236713628121" y="129.79601990049753"/>
      <point x="984.8878504672897" y="305.97014925373134"/>
      <point x="984.8878504672897" y="465.2139303482587" type="qcurve" smooth="yes"/>
      <point x="984.8878504672897" y="624.457711442786"/>
      <point x="786.6753615102059" y="791.6517412935324"/>
      <point x="631.7013297996001" y="791.6517412935324" type="qcurve" smooth="yes"/>
      <point x="525.1450922955318" y="791.6517412935324"/>
      <point x="361.49121216348163" y="726.9190496117543"/>
      <point x="289.6793602083043" y="667.273631840796" type="qcurve"/>
      <point x="149.7196261682243" y="730.5670711861254" type="line"/>
      <point x="223.66355140186917" y="1456.0" type="line"/>
      <point x="1096.429906542056" y="1456.0" type="line"/>
      <point x="1096.429906542056" y="1284.4776119402984" type="line"/>
      <point x="387.10512856279354" y="1284.4776119402984" type="line"/>
      <point x="343.8651834286511" y="876.363184079602" type="line"/>
      <point x="401.91174966290043" y="906.1678058306599"/>
      <point x="559.4575487050728" y="952.0"/>
      <point x="652.8177570093458" y="952.0" type="qcurve" smooth="yes"/>
      <point x="882.5981308411215" y="952.0"/>
      <point x="1182.3644859813085" y="695.0"/>
      <point x="1182.3644859813085" y="465.0" type="qcurve" smooth="yes"/>
      <point x="1182.3644859813085" y="235.0"/>
      <point x="869.8411214953271" y="-30.0"/>
      <point x="631.0607476635514" y="-30.0" type="qcurve" smooth="yes"/>
      <point x="377.29378806900075" y="-30.0"/>
      <point x="99.00934579439253" y="195.4129353233831"/>
    </contour>
  </outline>
</glyph>
<glyph name="six" format="2">
  <advance width="1276.677570093458"/>
  <unicode hex="0036"/>
  <outline>
    <contour>
      <point x="88.0" y="614.0" type="qcurve" smooth="yes"/>
      <point x="88.0" y="644.0" type="line" smooth="yes"/>
      <point x="88.0" y="1024.0"/>
      <point x="555.0560747663551" y="1486.018691588785"/>
      <point x="980.411214953271" y="1486.018691588785" type="qcurve" smooth="yes"/>
      <point x="1007.6588785046729" y="1486.018691588785" type="line"/>
      <point x="1007.6588785046729" y="1326.4813781559492" type="line"/>
      <point x="980.411214953271" y="1326.4813781559492" type="line" smooth="yes"/>
      <point x="667.1622959966522" y="1326.4813781559492"/>
      <point x="285.3457943925234" y="1003.1691542288557"/>
      <point x="285.3457943925234" y="653.6965174129353" type="qcurve" smooth="yes"/>
      <point x="285.3457943925234" y="603.4427860696518" type="line" smooth="yes"/>
      <point x="285.3457943925234" y="344.66169154228857"/>
      <point x="502.182359231878" y="129.681592039801"/>
      <point x="667.911214953271" y="129.681592039801" type="qcurve" smooth="yes"/>
      <point x="834.0505184358581" y="129.681592039801"/>
      <point x="1015.2009345794393" y="304.8594876086855"/>
      <point x="1015.2009345794393" y="464.108243827591" type="qcurve" smooth="yes"/>
      <point x="1015.2009345794393" y="623.3570000464965"/>
      <point x="834.0505184358581" y="796.5074626865671"/>
      <point x="667.911214953271" y="796.5074626865671" type="qcurve" smooth="yes"/>
      <point x="513.6176826149626" y="796.5074626865671"/>
      <point x="279.3457943925234" y="623.2985074626865"/>
      <point x="279.3457943925234" y="464.0" type="qcurve"/>
      <point x="209.34579439252337" y="464.0" type="line"/>
      <point x="209.34579439252337" y="684.0"/>
      <point x="490.4485981308411" y="956.018691588785"/>
      <point x="714.6495327102804" y="956.018691588785" type="qcurve" smooth="yes"/>
      <point x="938.7710280373832" y="956.018691588785"/>
      <point x="1212.677570093458" y="684.018691588785"/>
      <point x="1212.677570093458" y="464.01869158878503" type="qcurve" smooth="yes"/>
      <point x="1212.677570093458" y="244.01869158878506"/>
      <point x="905.5700934579439" y="-30.0"/>
      <point x="667.1542056074767" y="-30.0" type="qcurve" smooth="yes"/>
      <point x="427.7383177570093" y="-30.0"/>
      <point x="88.0" y="274.0"/>
    </contour>
  </outline>
</glyph>
<glyph name="seven" format="2">
  <advance width="1276.677570093458"/>
  <unicode hex="0037"/>
  <outline>
    <contour>
      <point x="300.94392523364485" y="0.0" type="line"/>
      <point x="944.5420560747664" y="1288.5700934579438" type="line"/>
      <point x="83.0" y="1288.5700934579438" type="line"/>
      <point x="83.0" y="1456.0" type="line"/>
      <point x="1155.177570093458" y="1456.0" type="line"/>
      <point x="1155.177570093458" y="1345.3084112149534" type="line"/>
      <point x="505.95327102803736" y="0.0" type="line"/>
    </contour>
  </outline>
</glyph>
<glyph name="eight" format="2">
  <advance width="1276.677570093458"/>
  <unicode hex="0038"/>
  <outline>
    <contour>
      <point x="102.0" y="386.0" type="qcurve" smooth="yes"/>
      <point x="102.0" y="516.0"/>
      <point x="263.72429906542055" y="700.9439252336449"/>
      <point x="390.48130841121497" y="745.9439252336449" type="qcurve"/>
      <point x="390.48130841121497" y="749.9439252336449" type="line"/>
      <point x="293.1355140186916" y="792.9439252336449"/>
      <point x="153.71028037383178" y="967.0"/>
      <point x="153.71028037383178" y="1087.0" type="qcurve" smooth="yes"/>
      <point x="153.71028037383178" y="1267.0"/>
      <point x="435.1261682242991" y="1486.0"/>
      <point x="639.5700934579439" y="1486.0" type="qcurve" smooth="yes"/>
      <point x="844.5140186915888" y="1486.0"/>
      <point x="1122.967289719626" y="1268.96261682243"/>
      <point x="1122.967289719626" y="1087.0" type="qcurve" smooth="yes"/>
      <point x="1122.967289719626" y="967.0"/>
      <point x="984.5420560747664" y="792.9439252336449"/>
      <point x="887.6775700934579" y="749.9439252336449" type="qcurve"/>
      <point x="887.6775700934579" y="745.9439252336449" type="line"/>
      <point x="1013.9532710280374" y="700.9439252336449"/>
      <point x="1174.677570093458" y="516.0"/>
      <point x="1174.677570093458" y="386.0" type="qcurve" smooth="yes"/>
      <point x="1174.677570093458" y="188.0"/>
      <point x="866.6775700934579" y="-30.0"/>
      <point x="639.5700934579439" y="-30.0" type="qcurve" smooth="yes"/>
      <point x="412.9626168224299" y="-30.0"/>
      <point x="102.0" y="188.0"/>
    </contour>
    <contour>
      <point x="297.4766355140187" y="396.4875621890547" type="qcurve" smooth="yes"/>
      <point x="297.4766355140187" y="277.03980099502485"/>
      <point x="484.4009392290882" y="129.72139303482587"/>
      <point x="639.5700934579439" y="129.72139303482587" type="qcurve" smooth="yes"/>
      <point x="794.7342725624216" y="129.72139303482587"/>
      <point x="979.2009345794393" y="277.03980099502485"/>
      <point x="979.2009345794393" y="396.4875621890547" type="qcurve" smooth="yes"/>
      <point x="979.2009345794393" y="515.9353233830846"/>
      <point x="794.7342725624216" y="665.223880597015"/>
      <point x="639.5700934579439" y="665.223880597015" type="qcurve" smooth="yes"/>
      <point x="484.4009392290882" y="665.223880597015"/>
      <point x="297.4766355140187" y="515.9353233830846"/>
    </contour>
    <contour>
      <point x="347.4766355140187" y="1076.5024875621891" type="qcurve" smooth="yes"/>
      <point x="347.4766355140187" y="967.0348258706467"/>
      <point x="508.42083972660066" y="824.7562189054727"/>
      <point x="639.5700934579439" y="824.7562189054727" type="qcurve" smooth="yes"/>
      <point x="770.7143720649091" y="824.7562189054727"/>
      <point x="929.2009345794393" y="967.0348258706467"/>
      <point x="929.2009345794393" y="1076.5024875621891" type="qcurve" smooth="yes"/>
      <point x="929.2009345794393" y="1185.9701492537313"/>
      <point x="770.7143720649091" y="1326.2835820895523"/>
      <point x="639.5700934579439" y="1326.2835820895523" type="qcurve" smooth="yes"/>
      <point x="508.42083972660066" y="1326.2835820895523"/>
      <point x="347.4766355140187" y="1185.9701492537313"/>
    </contour>
  </outline>
</glyph>
<glyph name="nine" format="2">
  <advance width="1276.677570093458"/>
  <unicode hex="0039"/>
  <outline>
    <contour>
      <point x="67.5" y="996.626168224299" type="qcurve" smooth="yes"/>
      <point x="67.5" y="1214.7009345794393"/>
      <point x="374.98130841121497" y="1486.018691588785"/>
      <point x="613.0233644859813" y="1486.018691588785" type="qcurve" smooth="yes"/>
      <point x="852.4392523364486" y="1486.018691588785"/>
      <point x="1192.177570093458" y="1182.018691588785"/>
      <point x="1192.177570093458" y="842.018691588785" type="qcurve" smooth="yes"/>
      <point x="1192.177570093458" y="812.018691588785" type="line" smooth="yes"/>
      <point x="1192.177570093458" y="445.0140186915888"/>
      <point x="725.1028037383178" y="-0.5607476635514018"/>
      <point x="299.74766355140184" y="-0.5607476635514018" type="qcurve" smooth="yes"/>
      <point x="272.01869158878503" y="-0.5607476635514018" type="line"/>
      <point x="272.01869158878503" y="158.99149114241874" type="line"/>
      <point x="299.26635514018693" y="158.99149114241874" type="line" smooth="yes"/>
      <point x="612.5152740968057" y="158.99149114241874"/>
      <point x="994.8317757009346" y="465.78018784581764"/>
      <point x="994.8317757009346" y="802.2624726833124" type="qcurve" smooth="yes"/>
      <point x="994.8317757009346" y="852.5858557678895" type="line" smooth="yes"/>
      <point x="994.8317757009346" y="1111.3619751708745"/>
      <point x="777.7663551401869" y="1326.337099548984"/>
      <point x="612.2663551401869" y="1326.337099548984" type="qcurve" smooth="yes"/>
      <point x="446.26635514018693" y="1326.337099548984"/>
      <point x="264.9766355140187" y="1153.5358952899057"/>
      <point x="264.9766355140187" y="996.6737806295625" type="qcurve" smooth="yes"/>
      <point x="264.9766355140187" y="839.8116659692193"/>
      <point x="446.26635514018693" y="669.0378946389549"/>
      <point x="612.2663551401869" y="669.0378946389549" type="qcurve" smooth="yes"/>
      <point x="766.2663551401869" y="669.0378946389549"/>
      <point x="1001.3081089877714" y="839.8303575580044"/>
      <point x="1001.3081089877714" y="996.8317757009346" type="qcurve"/>
      <point x="1070.8317757009345" y="996.8317757009346" type="line"/>
      <point x="1070.8317757009345" y="778.7570093457944"/>
      <point x="789.7289719626168" y="509.626168224299"/>
      <point x="565.5280373831775" y="509.626168224299" type="qcurve" smooth="yes"/>
      <point x="341.8878504672897" y="509.626168224299"/>
      <point x="67.5" y="778.5514018691589"/>
    </contour>
  </outline>
</glyph>
<glyph name="colon" format="2">
  <advance width="606.2990654205607"/>
  <unicode hex="003A"/>
  <outline>
    <contour>
      <point x="176.0" y="100.02803738317758" type="qcurve" smooth="yes"/>
      <point x="176.0" y="150.26168224299064"/>
      <point x="241.62616822429908" y="222.0373831775701"/>
      <point x="303.14018691588785" y="222.0373831775701" type="qcurve" smooth="yes"/>
      <point x="364.67289719626166" y="222.0373831775701"/>
      <point x="430.29906542056074" y="150.26168224299064"/>
      <point x="430.29906542056074" y="100.02803738317758" type="qcurve" smooth="yes"/>
      <point x="430.29906542056074" y="49.77570093457944"/>
      <point x="364.67289719626166" y="-22.0"/>
      <point x="303.14018691588785" y="-22.0" type="qcurve" smooth="yes"/>
      <point x="241.62616822429908" y="-22.0"/>
      <point x="176.0" y="49.77570093457944"/>
    </contour>
    <contour>
      <point x="176.0" y="945.9719626168225" type="qcurve" smooth="yes"/>
      <point x="176.0" y="996.2242990654206"/>
      <point x="241.62616822429908" y="1068.0"/>
      <point x="303.14018691588785" y="1068.0" type="qcurve" smooth="yes"/>
      <point x="364.67289719626166" y="1068.0"/>
      <point x="430.29906542056074" y="996.2242990654206"/>
      <point x="430.29906542056074" y="945.9719626168225" type="qcurve" smooth="yes"/>
      <point x="430.29906542056074" y="895.7383177570093"/>
      <point x="364.67289719626166" y="823.9626168224299"/>
      <point x="303.14018691588785" y="823.9626168224299" type="qcurve" smooth="yes"/>
      <point x="241.62616822429908" y="823.9626168224299"/>
      <point x="176.0" y="895.7383177570093"/>
    </contour>
  </outline>
</glyph>
<glyph name="semicolon" format="2">
  <advance width="698.9345794392524"/>
  <unicode hex="003B"/>
  <outline>
    <contour>
      <point x="131.47512437810948" y="-215.37562189054728" type="line"/>
      <point x="211.98258706467664" y="-151.96517412935324"/>
      <point x="299.51869158878503" y="-19.0"/>
      <point x="299.5" y="70.0" type="qcurve" smooth="yes"/>
      <point x="299.5" y="223.5514018691589" type="line"/>
      <point x="486.9953271028037" y="223.5514018691589" type="line"/>
      <point x="486.9953271028037" y="70.0" type="line" smooth="yes"/>
      <point x="486.9953271028037" y="-40.71000139489469"/>
      <point x="351.28565118333563" y="-225.15534477146977"/>
      <point x="238.57960199004975" y="-291.62686567164184" type="qcurve"/>
    </contour>
    <contour>
      <point x="256.24766355140184" y="945.9719626168223" type="qcurve" smooth="yes"/>
      <point x="256.24766355140184" y="996.2242990654206"/>
      <point x="321.873831775701" y="1068.0"/>
      <point x="383.38785046728975" y="1068.0" type="qcurve" smooth="yes"/>
      <point x="444.92056074766356" y="1068.0"/>
      <point x="510.5467289719626" y="996.2242990654206"/>
      <point x="510.5467289719626" y="945.9719626168223" type="qcurve" smooth="yes"/>
      <point x="510.5467289719626" y="895.7383177570094"/>
      <point x="444.92056074766356" y="823.9626168224299"/>
      <point x="383.38785046728975" y="823.9626168224299" type="qcurve" smooth="yes"/>
      <point x="321.873831775701" y="823.9626168224299"/>
      <point x="256.24766355140184" y="895.7383177570094"/>
    </contour>
  </outline>
</glyph>
<glyph name="less" format="2">
  <advance width="1026.2429906542056"/>
  <unicode hex="003C"/>
  <outline>
    <contour>
      <point x="920.2429906542056" y="217.26168224299064" type="line"/>
      <point x="100.0" y="597.3457943925233" type="line"/>
      <point x="100.0" y="746.7289719626168" type="line"/>
      <point x="920.2429906542056" y="1126.7383177570093" type="line"/>
      <point x="920.2429906542056" y="929.0654205607476" type="line"/>
      <point x="328.1121495327103" y="677.0" type="line"/>
      <point x="920.2429906542056" y="425.0093457943925" type="line"/>
    </contour>
  </outline>
</glyph>
<glyph name="equal" format="2">
  <advance width="1024.0"/>
  <unicode hex="003D"/>
  <outline>
    <contour>
      <point x="57.0" y="379.0" type="line"/>
      <point x="57.0" y="551.8691588785047" type="line"/>
      <point x="967.0" y="551.8691588785047" type="line"/>
      <point x="967.0" y="379.0" type="line"/>
    </contour>
    <contour>
      <point x="57.0" y="774.1308411214953" type="line"/>
      <point x="57.0" y="947.0" type="line"/>
      <point x="967.0" y="947.0" type="line"/>
      <point x="967.0" y="774.1308411214953" type="line"/>
    </contour>
  </outline>
</glyph>
<glyph name="greater" format="2">
  <advance width="1026.2429906542056"/>
  <unicode hex="003E"/>
  <outline>
    <contour>
      <point x="106.0" y="217.26168224299064" type="line"/>
      <point x="106.0" y="415.196261682243" type="line"/>
      <point x="698.1308411214953" y="667.1869158878504" type="line"/>
      <point x="106.0" y="919.2523364485982" type="line"/>
      <point x="106.0" y="1126.7383177570093" type="line"/>
      <point x="926.2429906542056" y="746.7289719626168" type="line"/>
      <point x="926.2429906542056" y="597.3457943925233" type="line"/>
    </contour>
  </outline>
</glyph>
<glyph name="question" format="2">
  <advance width="982.9719626168225"/>
  <unicode hex="003F"/>
  <outline>
    <contour>
      <point x="324.31775700934577" y="99.85981308411215" type="qcurve" smooth="yes"/>
      <point x="324.31775700934577" y="150.2803738317757"/>
      <point x="390.1682242990654" y="222.29906542056074"/>
      <point x="451.8878504672897" y="222.29906542056074" type="qcurve" smooth="yes"/>
      <point x="513.626168224299" y="222.29906542056074"/>
      <point x="579.4579439252336" y="150.2803738317757"/>
      <point x="579.4579439252336" y="99.85981308411215" type="qcurve" smooth="yes"/>
      <point x="579.4579439252336" y="49.45794392523364"/>
      <point x="513.626168224299" y="-22.560747663551403"/>
      <point x="451.8878504672897" y="-22.560747663551403" type="qcurve" smooth="yes"/>
      <point x="390.1682242990654" y="-22.560747663551403"/>
      <point x="324.31775700934577" y="49.45794392523364"/>
    </contour>
    <contour>
      <point x="60.0" y="1093.9928860371042" type="line"/>
      <point x="60.0" y="1113.9928860371042" type="line" smooth="yes"/>
      <point x="60.0" y="1279.614776584368"/>
      <point x="281.86674106104994" y="1476.1869158878505"/>
      <point x="477.4766355140187" y="1476.1869158878505" type="qcurve" smooth="yes"/>
      <point x="673.0716045938532" y="1476.1869158878505"/>
      <point x="888.9719626168225" y="1270.2416422560098"/>
      <point x="888.9719626168225" y="1100.1869158878505" type="qcurve" smooth="yes"/>
      <point x="888.9719626168225" y="965.607476635514"/>
      <point x="741.7196261682243" y="758.7289719626168"/>
      <point x="667.607476635514" y="694.9158878504672" type="qcurve" smooth="yes"/>
      <point x="580.6822429906542" y="618.3271028037383"/>
      <point x="539.607476635514" y="492.61682242990656"/>
      <point x="539.4766355140187" y="423.4018691588785" type="qcurve" smooth="yes"/>
      <point x="539.3831775700935" y="413.196261682243" type="line"/>
      <point x="346.05607476635515" y="413.1588785046729" type="line"/>
      <point x="346.05607476635515" y="423.5140186915888" type="line" smooth="yes"/>
      <point x="346.05607476635515" y="546.6822429906542"/>
      <point x="409.7943925233645" y="689.6355140186915"/>
      <point x="505.9252336448598" y="783.3364485981308" type="qcurve" smooth="yes"/>
      <point x="588.2056074766355" y="864.1869158878504"/>
      <point x="695.4766355140187" y="1000.533454224206"/>
      <point x="695.4766355140187" y="1100.1105686520668" type="qcurve" smooth="yes"/>
      <point x="695.4766355140187" y="1199.5405681871018"/>
      <point x="587.451759892128" y="1312.843632305761"/>
      <point x="477.4766355140187" y="1312.843632305761" type="qcurve" smooth="yes"/>
      <point x="367.48658576277495" y="1312.843632305761"/>
      <point x="252.47663551401868" y="1208.9232342958107"/>
      <point x="252.47663551401868" y="1113.9928860371042" type="qcurve" smooth="yes"/>
      <point x="252.47663551401868" y="1093.9928860371042" type="line"/>
    </contour>
  </outline>
</glyph>
<glyph name="at" format="2">
  <advance width="2110.0"/>
  <unicode hex="0040"/>
  <outline>
    <contour>
      <point x="612.7570093457944" y="399.8878504672897" type="qcurve" smooth="yes"/>
      <point x="612.7570093457944" y="680.0"/>
      <point x="909.2523364485982" y="1052.0"/>
      <point x="1100.0" y="1052.0" type="qcurve" smooth="yes"/>
      <point x="1190.0" y="1052.0"/>
      <point x="1340.0" y="985.0"/>
      <point x="1390.0" y="946.0" type="qcurve"/>
      <point x="1482.803738317757" y="946.0" type="line"/>
      <point x="1362.803738317757" y="350.0" type="line" smooth="yes"/>
      <point x="1338.803738317757" y="230.0"/>
      <point x="1421.196261682243" y="136.0"/>
      <point x="1500.8785046728972" y="136.0" type="qcurve" smooth="yes"/>
      <point x="1640.0" y="136.0"/>
      <point x="1816.0" y="420.0"/>
      <point x="1816.0" y="650.0" type="qcurve" smooth="yes"/>
      <point x="1816.0" y="920.0"/>
      <point x="1440.0" y="1330.0"/>
      <point x="1100.0" y="1330.0" type="qcurve" smooth="yes"/>
      <point x="760.0" y="1330.0"/>
      <point x="300.0" y="820.0"/>
      <point x="300.0" y="460.0" type="qcurve" smooth="yes"/>
      <point x="300.0" y="100.0"/>
      <point x="700.0" y="-290.0"/>
      <point x="1000.0" y="-290.0" type="qcurve" smooth="yes"/>
      <point x="1140.0" y="-290.0"/>
      <point x="1334.0" y="-236.0"/>
      <point x="1400.0" y="-200.0" type="qcurve"/>
      <point x="1400.0" y="-356.0" type="line"/>
      <point x="1330.0" y="-400.0"/>
      <point x="1140.0" y="-446.0"/>
      <point x="1000.0" y="-446.0" type="qcurve" smooth="yes"/>
      <point x="640.0" y="-446.0"/>
      <point x="114.0" y="40.0"/>
      <point x="114.0" y="460.0" type="qcurve" smooth="yes"/>
      <point x="114.0" y="880.0"/>
      <point x="700.0" y="1486.0"/>
      <point x="1100.0" y="1486.0" type="qcurve" smooth="yes"/>
      <point x="1500.0" y="1486.0"/>
      <point x="1996.0" y="1000.0"/>
      <point x="1996.0" y="650.0" type="qcurve" smooth="yes"/>
      <point x="1996.0" y="360.0"/>
      <point x="1720.0" y="0.0"/>
      <point x="1520.0" y="0.0" type="qcurve" smooth="yes"/>
      <point x="1404.0" y="0.0"/>
      <point x="1230.0" y="100.0"/>
      <point x="1190.0" y="180.0" type="qcurve"/>
      <point x="1140.0" y="100.0"/>
      <point x="1000.0" y="0.0"/>
      <point x="919.196261682243" y="0.0" type="qcurve" smooth="yes"/>
      <point x="778.8785046728972" y="0.0"/>
      <point x="612.7570093457944" y="220.0"/>
    </contour>
    <contour>
      <point x="805.5607476635514" y="400.5273631840796" type="qcurve" smooth="yes"/>
      <point x="805.5607476635514" y="280.76616915422886"/>
      <point x="889.588785046729" y="157.01371646440694"/>
      <point x="969.3084112149533" y="157.01371646440694" type="qcurve" smooth="yes"/>
      <point x="1039.0364997442693" y="157.01371646440694"/>
      <point x="1152.5435904589203" y="260.71237271586"/>
      <point x="1179.5823220346863" y="390.60696517412936" type="qcurve" smooth="yes"/>
      <point x="1279.270098107593" y="869.1940298507462" type="line"/>
      <point x="1249.4570139954435" y="889.1468359138885"/>
      <point x="1169.252336448598" y="911.0049751243781"/>
      <point x="1129.3271028037384" y="911.0049751243781" type="qcurve" smooth="yes"/>
      <point x="989.2942297856513" y="911.0049751243781"/>
      <point x="805.5607476635514" y="619.9066815455433"/>
    </contour>
  </outline>
</glyph>
<glyph name="A" format="2">
  <advance width="1473.9974659413215"/>
  <unicode hex="0041"/>
  <anchor x="646.8475380108802" y="0.0" name="bottom"/>
  <anchor x="1188.324173524899" y="0.0" name="ogonek"/>
  <anchor x="650.5858557678895" y="1456.0" name="top"/>
  <anchor x="267.9783791323755" y="1074.0" name="tonos"/>
  <outline>
    <contour>
      <point x="0.0" y="0.0" type="line"/>
      <point x="643.3084112149533" y="1465.8878504672898" type="line"/>
      <point x="825.7943925233645" y="1465.8878504672898" type="line"/>
      <point x="1473.8084112149534" y="0.0" type="line"/>
      <point x="1259.1682242990655" y="0.0" type="line"/>
      <point x="773.126168224299" y="1124.6495327102805" type="line" smooth="yes"/>
      <point x="759.0700934579439" y="1157.1308411214952"/>
      <point x="743.4018691588785" y="1219.6682242990655"/>
      <point x="736.4392523364486" y="1252.6121495327102" type="qcurve"/>
      <point x="726.4953271028037" y="1252.6121495327102" type="line"/>
      <point x="719.5514018691589" y="1219.6682242990655"/>
      <point x="702.3457943925233" y="1156.6121495327102"/>
      <point x="688.7897196261682" y="1124.6495327102805" type="qcurve" smooth="yes"/>
      <point x="202.57943925233644" y="0.0" type="line"/>
    </contour>
    <contour>
      <point x="272.77309713116654" y="378.44278606965173" type="line"/>
      <point x="342.3402613102711" y="538.2636815920398" type="line"/>
      <point x="1134.9138885014181" y="538.2636815920398" type="line"/>
      <point x="1203.4711024317664" y="378.44278606965173" type="line"/>
    </contour>
  </outline>
</glyph>
<glyph name="B" format="2">
  <advance width="1394.8177570093458"/>
  <unicode hex="0042"/>
  <anchor x="637.8504672897196" y="0.0" name="bottom"/>
  <anchor x="637.8504672897196" y="1456.0" name="top"/>
  <outline>
    <contour>
      <point x="170.0" y="0.0" type="line"/>
      <point x="170.0" y="1456.0" type="line"/>
      <point x="779.714953271028" y="1456.0" type="line" smooth="yes"/>
      <point x="1002.6682242990654" y="1456.0"/>
      <point x="1256.443925233645" y="1270.0"/>
      <point x="1256.443925233645" y="1070.411214953271" type="qcurve" smooth="yes"/>
      <point x="1256.443925233645" y="949.8878504672897"/>
      <point x="1134.5747663551401" y="799.5700934579439"/>
      <point x="1044.7429906542056" y="767.8691588785047" type="qcurve"/>
      <point x="1044.7429906542056" y="763.8691588785047" type="line"/>
      <point x="1154.481308411215" y="732.2056074766355"/>
      <point x="1294.8177570093458" y="560.1869158878504"/>
      <point x="1294.8177570093458" y="420.0" type="qcurve" smooth="yes"/>
      <point x="1294.8177570093458" y="220.0"/>
      <point x="1029.929906542056" y="0.0"/>
      <point x="810.0140186915888" y="0.0" type="qcurve" smooth="yes"/>
    </contour>
    <contour>
      <point x="366.05607476635515" y="159.56716417910448" type="line"/>
      <point x="806.5373831775701" y="159.56716417910448" type="line" smooth="yes"/>
      <point x="956.5523085507044" y="159.56716417910448"/>
      <point x="1096.53738317757" y="300.9154228855721"/>
      <point x="1096.53738317757" y="420.4179104477612" type="qcurve" smooth="yes"/>
      <point x="1096.53738317757" y="539.9402985074627"/>
      <point x="956.5523085507044" y="679.2686567164179"/>
      <point x="806.5373831775701" y="679.2686567164179" type="qcurve" smooth="yes"/>
      <point x="281.9252336448598" y="679.2686567164179" type="line"/>
      <point x="281.9252336448598" y="836.5870646766169" type="line"/>
      <point x="776.5373831775701" y="836.5870646766169" type="line" smooth="yes"/>
      <point x="926.532408053192" y="836.5870646766169"/>
      <point x="1058.53738317757" y="959.9900497512438"/>
      <point x="1058.53738317757" y="1069.4776119402984" type="qcurve" smooth="yes"/>
      <point x="1058.53738317757" y="1178.9800995024875"/>
      <point x="926.532408053192" y="1296.402985074627"/>
      <point x="776.5373831775701" y="1296.3980099502487" type="qcurve" smooth="yes"/>
      <point x="366.05607476635515" y="1296.3980099502487" type="line"/>
    </contour>
  </outline>
</glyph>
<glyph name="C" format="2">
  <advance width="1525.1869158878505"/>
  <unicode hex="0043"/>
  <anchor x="718.7850467289719" y="0.0" name="bottom"/>
  <anchor x="728.7850467289719" y="1456.0" name="top"/>
  <outline>
    <contour>
      <point x="115.0" y="701.0046728971963" type="qcurve" smooth="yes"/>
      <point x="115.0" y="754.6214953271028" type="line" smooth="yes"/>
      <point x="115.0" y="1098.903659273725"/>
      <point x="509.76514623145954" y="1486.0"/>
      <point x="806.6355140186915" y="1486.0" type="qcurve" smooth="yes"/>
      <point x="1104.3712744687775" y="1486.0"/>
      <point x="1441.03738317757" y="1200.8135025805552"/>
      <point x="1441.5233644859813" y="999.0984330683034" type="qcurve" smooth="yes"/>
      <point x="1441.5607476635514" y="989.0049751243781" type="line"/>
      <point x="1241.3364485981308" y="989.0049751243781" type="line"/>
      <point x="1241.2990654205607" y="999.0984330683034" type="line" smooth="yes"/>
      <point x="1240.96261682243" y="1137.5872041660855"/>
      <point x="1026.2966476031058" y="1320.0696517412935"/>
      <point x="807.8364485981308" y="1320.0696517412935" type="qcurve" smooth="yes"/>
      <point x="594.1495327102804" y="1320.0696517412935"/>
      <point x="317.33644859813086" y="1045.870646766169"/>
      <point x="317.33644859813086" y="762.9573162226252" type="qcurve" smooth="yes"/>
      <point x="317.33644859813086" y="692.6688520016739" type="line" smooth="yes"/>
      <point x="317.33644859813086" y="432.5199004975124"/>
      <point x="592.6545078346585" y="135.93034825870646"/>
      <point x="807.8364485981308" y="135.93034825870646" type="qcurve" smooth="yes"/>
      <point x="1013.3414237225089" y="135.93034825870646"/>
      <point x="1223.4385083926163" y="321.1922629841447"/>
      <point x="1239.8177570093458" y="456.7146510438462" type="qcurve" smooth="yes"/>
      <point x="1241.3364485981308" y="466.9950248756219" type="line"/>
      <point x="1441.5607476635514" y="466.9950248756219" type="line"/>
      <point x="1440.5607476635514" y="456.95764169805176" type="line" smooth="yes"/>
      <point x="1418.5620960617473" y="256.14413911749665"/>
      <point x="1104.2170456130561" y="-30.0"/>
      <point x="806.6355140186915" y="-30.0" type="qcurve" smooth="yes"/>
      <point x="509.76514623145954" y="-30.0"/>
      <point x="115.0" y="356.89073324963965"/>
    </contour>
  </outline>
</glyph>
<glyph name="D" format="2">
  <advance width="1521.3364485981308"/>
  <unicode hex="0044"/>
  <anchor x="718.107476635514" y="0.0" name="bottom"/>
  <anchor x="325.7383177570093" y="728.0" name="center"/>
  <anchor x="718.107476635514" y="1456.0" name="top"/>
  <outline>
    <contour>
      <point x="170.0" y="0.0" type="line"/>
      <point x="170.0" y="1456.0" type="line"/>
      <point x="699.2616822429907" y="1456.0" type="line" smooth="yes"/>
      <point x="1013.3052494536663" y="1456.0"/>
      <point x="1406.3364485981308" y="1084.117264146557"/>
      <point x="1406.3364485981308" y="751.2336448598131" type="qcurve" smooth="yes"/>
      <point x="1406.3364485981308" y="698.5794392523364" type="line" smooth="yes"/>
      <point x="1406.3364485981308" y="378.382735853443"/>
      <point x="1013.3052494536663" y="0.0"/>
      <point x="699.2616822429907" y="0.0" type="qcurve" smooth="yes"/>
    </contour>
    <contour>
      <point x="370.01869158878503" y="159.86567164179104" type="line"/>
      <point x="696.018691588785" y="159.86567164179104" type="line" smooth="yes"/>
      <point x="928.3644627330636" y="159.86567164179104"/>
      <point x="1204.018691588785" y="445.0348258706468"/>
      <point x="1204.018691588785" y="698.2485934811922" type="qcurve" smooth="yes"/>
      <point x="1204.018691588785" y="757.0644906309574" type="line" smooth="yes"/>
      <point x="1204.018691588785" y="1010.4452736318408"/>
      <point x="928.3644627330636" y="1296.0945273631842"/>
      <point x="696.018691588785" y="1296.0995024875622" type="qcurve" smooth="yes"/>
      <point x="370.01869158878503" y="1296.0995024875622" type="line"/>
    </contour>
  </outline>
</glyph>
<glyph name="E" format="2">
  <advance width="1275.018691588785"/>
  <unicode hex="0045"/>
  <anchor x="634.2242990654206" y="0.0" name="bottom"/>
  <anchor x="1101.0093457943926" y="0.0" name="ogonek"/>
  <anchor x="649.3177570093458" y="1456.0" name="top"/>
  <anchor x="-75.0" y="1074.0" name="tonos"/>
  <outline>
    <contour>
      <point x="170.0" y="0.0" type="line"/>
      <point x="170.0" y="1456.0" type="line"/>
      <point x="1197.018691588785" y="1456.0" type="line"/>
      <point x="1197.018691588785" y="1296.3980099502487" type="line"/>
      <point x="370.01869158878503" y="1296.3980099502487" type="line"/>
      <point x="370.01869158878503" y="159.60199004975124" type="line"/>
      <point x="1207.018691588785" y="159.60199004975124" type="line"/>
      <point x="1207.018691588785" y="0.0" type="line"/>
    </contour>
    <contour>
      <point x="275.9065420560748" y="671.3034825870647" type="line"/>
      <point x="275.9065420560748" y="830.4875621890548" type="line"/>
      <point x="1105.018691588785" y="830.4875621890548" type="line"/>
      <point x="1105.018691588785" y="671.3034825870647" type="line"/>
    </contour>
  </outline>
</glyph>
<glyph name="F" format="2">
  <advance width="1263.0000000000002"/>
  <unicode hex="0046"/>
  <anchor x="576.3785046728973" y="0.0" name="bottom"/>
  <anchor x="645.1168224299065" y="1457.0000000000002" name="top"/>
  <outline>
    <contour>
      <point x="182.5" y="0.0" type="line"/>
      <point x="182.5" y="1456.0" type="line"/>
      <point x="1192.5" y="1456.0" type="line"/>
      <point x="1192.5" y="1296.0248756218907" type="line"/>
      <point x="382.50000000000006" y="1296.0248756218907" type="line"/>
      <point x="382.50000000000006" y="0.0" type="line"/>
    </contour>
    <contour>
      <point x="288.38785046728975" y="641.5174129353234" type="line"/>
      <point x="288.38785046728975" y="801.4477611940299" type="line"/>
      <point x="1093.5000000000002" y="801.4477611940299" type="line"/>
      <point x="1093.5000000000002" y="641.5174129353234" type="line"/>
    </contour>
  </outline>
</glyph>
<glyph name="G" format="2">
  <advance width="1571.892523364486"/>
  <unicode hex="0047"/>
  <anchor x="740.2897196261682" y="0.0" name="bottom"/>
  <anchor x="739.5420560747664" y="1456.0" name="top"/>
  <outline>
    <contour>
      <point x="115.0" y="682.6728971962617" type="qcurve" smooth="yes"/>
      <point x="115.0" y="773.3831775700935" type="line" smooth="yes"/>
      <point x="115.0" y="1109.5578648812016"/>
      <point x="508.68782256939596" y="1486.0"/>
      <point x="820.392523364486" y="1486.0" type="qcurve" smooth="yes"/>
      <point x="1102.294253033896" y="1486.0"/>
      <point x="1424.2482680057656" y="1221.5090900637003"/>
      <point x="1441.2383177570093" y="1040.9319756358395" type="qcurve" smooth="yes"/>
      <point x="1442.2570093457944" y="1029.726368159204" type="line"/>
      <point x="1241.481308411215" y="1029.726368159204" type="line"/>
      <point x="1241.4252336448599" y="1040.1749662900452" type="line" smooth="yes"/>
      <point x="1241.2383177570093" y="1139.8568373087833"/>
      <point x="1020.9116566699214" y="1320.3930348258707"/>
      <point x="819.481308411215" y="1320.3930348258707" type="qcurve" smooth="yes"/>
      <point x="592.1106616450459" y="1320.3930348258707"/>
      <point x="317.3551401869159" y="1028.6835913888501"/>
      <point x="317.3551401869159" y="773.3311479983261" type="qcurve" smooth="yes"/>
      <point x="317.3551401869159" y="683.0426837773748" type="line" smooth="yes"/>
      <point x="317.3551401869159" y="427.40758822708887"/>
      <point x="592.544194913284" y="135.6218905472637"/>
      <point x="841.8551401869158" y="135.6218905472637" type="qcurve" smooth="yes"/>
      <point x="973.044194913284" y="135.6218905472637"/>
      <point x="1163.4297670525875" y="181.46766169154228"/>
      <point x="1248.8551401869158" y="231.28855721393035" type="qcurve"/>
      <point x="1248.8551401869158" y="569.5970149253732" type="line"/>
      <point x="738.3551401869158" y="569.5970149253732" type="line"/>
      <point x="738.3551401869158" y="729.0248756218906" type="line"/>
      <point x="1442.8364485981308" y="729.0248756218906" type="line"/>
      <point x="1442.892523364486" y="160.0" type="line"/>
      <point x="1364.9392523364486" y="90.0"/>
      <point x="1057.1448598130842" y="-30.0"/>
      <point x="839.9532710280374" y="-30.0" type="qcurve" smooth="yes"/>
      <point x="508.9244897010276" y="-30.0"/>
      <point x="115.0" y="346.4795182963686"/>
    </contour>
  </outline>
</glyph>
<glyph name="H" format="2">
  <advance width="1615.556074766355"/>
  <unicode hex="0048"/>
  <anchor x="823.018691588785" y="0.0" name="bottom"/>
  <anchor x="823.018691588785" y="1100.0" name="center"/>
  <anchor x="823.018691588785" y="1456.0" name="top"/>
  <anchor x="1346.2056074766356" y="0.0" name="cy_descender"/>
  <anchor x="-75.0" y="1074.0" name="tonos"/>
  <outline>
    <contour>
      <point x="170.0" y="0.0" type="line"/>
      <point x="170.0" y="1456.0" type="line"/>
      <point x="370.01869158878503" y="1456.0" type="line"/>
      <point x="370.01869158878503" y="0.0" type="line"/>
    </contour>
    <contour>
      <point x="275.9065420560748" y="671.0049751243781" type="line"/>
      <point x="275.9065420560748" y="831.0049751243781" type="line"/>
      <point x="1347.96261682243" y="831.0049751243781" type="line"/>
      <point x="1347.96261682243" y="671.0049751243781" type="line"/>
    </contour>
    <contour>
      <point x="1245.53738317757" y="0.0" type="line"/>
      <point x="1245.53738317757" y="1456.0" type="line"/>
      <point x="1445.556074766355" y="1456.0" type="line"/>
      <point x="1445.556074766355" y="0.0" type="line"/>
    </contour>
  </outline>
</glyph>
<glyph name="I" format="2">
  <advance width="550.018691588785"/>
  <unicode hex="0049"/>
  <anchor x="274.8130841121495" y="0.0" name="bottom"/>
  <anchor x="313.5514018691589" y="0.0" name="ogonek"/>
  <anchor x="275.0747663551402" y="1456.0" name="top"/>
  <anchor x="-75.0" y="1074.0" name="tonos"/>
  <anchor x="274.8130841121495" y="750.0" name="yu_dash"/>
  <outline>
    <contour>
      <point x="175.0" y="0.0" type="line"/>
      <point x="175.0" y="1456.0" type="line"/>
      <point x="375.01869158878503" y="1456.0" type="line"/>
      <point x="375.01869158878503" y="0.0" type="line"/>
    </contour>
  </outline>
</glyph>
<glyph name="J" format="2">
  <advance width="1217.7242990654206"/>
  <unicode hex="004A"/>
  <anchor x="556.2056074766355" y="0.0" name="bottom"/>
  <anchor x="864.8971962616822" y="1456.0" name="top"/>
  <outline>
    <contour>
      <point x="25.05607476635514" y="401.44278606965173" type="qcurve" smooth="yes"/>
      <point x="25.05607476635514" y="411.44278606965173" type="line"/>
      <point x="223.71028037383178" y="411.44278606965173" type="line"/>
      <point x="223.71028037383178" y="401.44278606965173" type="line" smooth="yes"/>
      <point x="223.71028037383178" y="271.6517412935323"/>
      <point x="394.19037987631935" y="135.86069651741295"/>
      <point x="543.2102803738318" y="135.86069651741295" type="qcurve" smooth="yes"/>
      <point x="692.7301808713443" y="135.86069651741295"/>
      <point x="863.2102803738318" y="286.64179104477614"/>
      <point x="863.2102803738318" y="426.44278606965173" type="qcurve" smooth="yes"/>
      <point x="863.2102803738318" y="1456.0" type="line"/>
      <point x="1063.228971962617" y="1456.0" type="line"/>
      <point x="1063.228971962617" y="426.44278606965173" type="line" smooth="yes"/>
      <point x="1063.228971962617" y="215.533268238248"/>
      <point x="775.7013995443343" y="-30.0"/>
      <point x="543.2056074766356" y="-30.0" type="qcurve" smooth="yes"/>
      <point x="311.35000232482446" y="-30.0"/>
      <point x="25.05607476635514" y="200.58060166457432"/>
    </contour>
  </outline>
</glyph>
<glyph name="K" format="2">
  <advance width="1418.911214953271"/>
  <unicode hex="004B"/>
  <anchor x="643.2803738317757" y="0.0" name="bottom"/>
  <anchor x="643.2803738317757" y="1456.0" name="top"/>
  <outline>
    <contour>
      <point x="170.0" y="0.0" type="line"/>
      <point x="170.0" y="1456.0" type="line"/>
      <point x="370.01869158878503" y="1456.0" type="line"/>
      <point x="370.01869158878503" y="0.0" type="line"/>
    </contour>
    <contour>
      <point x="1174.03738317757" y="0.0" type="line"/>
      <point x="527.9340679778677" y="752.6145673501651" type="line"/>
      <point x="664.7237876040358" y="887.7176965639094" type="line"/>
      <point x="1438.911214953271" y="0.0" type="line"/>
    </contour>
    <contour>
      <point x="274.54042869763333" y="388.47593806667595" type="line"/>
      <point x="274.54042869763333" y="620.6475798577208" type="line"/>
      <point x="1130.2935788347982" y="1456.0" type="line"/>
      <point x="1372.3209420188775" y="1456.0" type="line"/>
    </contour>
  </outline>
</glyph>
<glyph name="L" format="2">
  <advance width="1284.892523364486"/>
  <unicode hex="004C"/>
  <anchor x="634.4859813084112" y="0.0" name="bottom"/>
  <anchor x="865.981308411215" y="728.0" name="center"/>
  <anchor x="386.05607476635515" y="1456.0" name="top"/>
  <anchor x="756.8504672897196" y="1052.0" name="topright"/>
  <outline>
    <contour>
      <point x="170.0" y="0.0" type="line"/>
      <point x="170.0" y="1456.0" type="line"/>
      <point x="370.39252336448595" y="1456.0" type="line"/>
      <point x="370.39252336448595" y="160.0" type="line"/>
      <point x="1230.892523364486" y="160.0" type="line"/>
      <point x="1230.892523364486" y="0.0" type="line"/>
    </contour>
  </outline>
</glyph>
<glyph name="M" format="2">
  <advance width="2017.5420560747664"/>
  <unicode hex="004D"/>
  <anchor x="907.8025294090296" y="0.0" name="bottom"/>
  <anchor x="911.5408471660389" y="1456.0" name="top"/>
  <outline>
    <contour>
      <point x="170.0" y="0.0" type="line"/>
      <point x="170.0" y="1456.0" type="line"/>
      <point x="431.9626168224299" y="1456.0" type="line"/>
      <point x="959.3271028037383" y="330.61682242990656" type="line" smooth="yes"/>
      <point x="973.2710280373832" y="300.9672897196262"/>
      <point x="992.214953271028" y="234.73831775700933"/>
      <point x="1000.1401869158879" y="204.47663551401868" type="qcurve"/>
      <point x="1008.0841121495328" y="204.47663551401868" type="line"/>
      <point x="1016.0280373831775" y="234.73831775700933"/>
      <point x="1035.4532710280373" y="301.4672897196262"/>
      <point x="1048.9158878504672" y="330.61682242990656" type="qcurve" smooth="yes"/>
      <point x="1585.3364485981308" y="1456.0" type="line"/>
      <point x="1847.5420560747664" y="1456.0" type="line"/>
      <point x="1847.5420560747664" y="0.0" type="line"/>
      <point x="1653.411214953271" y="0.0" type="line"/>
      <point x="1653.411214953271" y="1090.247663551402" type="line" smooth="yes"/>
      <point x="1653.411214953271" y="1120.3785046728972"/>
      <point x="1655.4485981308412" y="1195.6028037383178"/>
      <point x="1659.429906542056" y="1225.714953271028" type="qcurve"/>
      <point x="1651.429906542056" y="1225.714953271028" type="line"/>
      <point x="1645.4672897196263" y="1195.6028037383178"/>
      <point x="1623.1168224299065" y="1119.3971962616822"/>
      <point x="1609.6355140186915" y="1090.247663551402" type="qcurve" smooth="yes"/>
      <point x="1090.4112149532712" y="0.0" type="line"/>
      <point x="913.0280373831775" y="0.0" type="line"/>
      <point x="402.8785046728972" y="1090.247663551402" type="line" smooth="yes"/>
      <point x="388.9158878504673" y="1120.3785046728972"/>
      <point x="367.04672897196264" y="1195.6028037383178"/>
      <point x="361.06542056074767" y="1225.714953271028" type="qcurve"/>
      <point x="353.06542056074767" y="1225.714953271028" type="line"/>
      <point x="357.04672897196264" y="1195.6028037383178"/>
      <point x="359.06542056074767" y="1120.3785046728972"/>
      <point x="359.06542056074767" y="1090.247663551402" type="qcurve" smooth="yes"/>
      <point x="359.06542056074767" y="0.0" type="line"/>
    </contour>
  </outline>
</glyph>
<glyph name="N" format="2">
  <advance width="1616.4205607476636"/>
  <unicode hex="004E"/>
  <anchor x="734.5296880085554" y="0.0" name="bottom"/>
  <anchor x="734.5296880085554" y="1456.0" name="top"/>
  <anchor x="1202.7446412795832" y="0.0" name="engtail"/>
  <outline>
    <contour>
      <point x="170.0" y="0.0" type="line"/>
      <point x="170.0" y="1456.0" type="line"/>
      <point x="381.14018691588785" y="1456.0" type="line"/>
      <point x="1177.4766355140187" y="400.66355140186914" type="line" smooth="yes"/>
      <point x="1199.4392523364486" y="371.20093457943926"/>
      <point x="1232.0280373831777" y="310.9065420560748"/>
      <point x="1243.9906542056074" y="285.68224299065423" type="qcurve"/>
      <point x="1251.9906542056074" y="285.68224299065423" type="line"/>
      <point x="1250.9719626168223" y="315.8130841121495"/>
      <point x="1249.9719626168223" y="390.25233644859816"/>
      <point x="1249.9719626168223" y="420.4018691588785" type="qcurve" smooth="yes"/>
      <point x="1249.9719626168223" y="1456.0" type="line"/>
      <point x="1446.4205607476636" y="1456.0" type="line"/>
      <point x="1446.4205607476636" y="0.0" type="line"/>
      <point x="1233.785046728972" y="0.0" type="line"/>
      <point x="437.3738317757009" y="1055.4112149532712" type="line" smooth="yes"/>
      <point x="415.4299065420561" y="1084.8551401869158"/>
      <point x="383.8224299065421" y="1145.3177570093458"/>
      <point x="369.93457943925233" y="1170.5233644859813" type="qcurve"/>
      <point x="362.9158878504673" y="1170.5233644859813" type="line"/>
      <point x="363.93457943925233" y="1140.392523364486"/>
      <point x="364.95327102803736" y="1065.6355140186915"/>
      <point x="364.95327102803736" y="1035.5046728971963" type="qcurve" smooth="yes"/>
      <point x="364.95327102803736" y="0.0" type="line"/>
    </contour>
  </outline>
</glyph>
<glyph name="O" format="2">
  <advance width="1638.6728971962616"/>
  <unicode hex="004F"/>
  <anchor x="819.8364485981308" y="0.0" name="bottom"/>
  <anchor x="819.8364485981308" y="728.0" name="center"/>
  <anchor x="1043.3271028037384" y="0.0" name="ogonek"/>
  <anchor x="819.8364485981308" y="1456.0" name="top"/>
  <anchor x="1037.8271028037384" y="1456.0" name="topright"/>
  <anchor x="24.457943925233646" y="1074.0" name="tonos"/>
  <anchor x="317.29906542056074" y="748.0" name="yu_dash"/>
  <outline>
    <contour>
      <point x="115.0" y="701.6168224299065" type="qcurve" smooth="yes"/>
      <point x="115.0" y="754.3084112149533" type="line" smooth="yes"/>
      <point x="115.0" y="1099.6261682242991"/>
      <point x="509.2196261682243" y="1486.0"/>
      <point x="819.3364485981308" y="1486.0" type="qcurve" smooth="yes"/>
      <point x="1129.4532710280373" y="1486.0"/>
      <point x="1523.6728971962616" y="1099.6261682242991"/>
      <point x="1523.6728971962616" y="754.3084112149533" type="qcurve" smooth="yes"/>
      <point x="1523.6728971962616" y="701.6168224299065" type="line" smooth="yes"/>
      <point x="1523.6728971962616" y="356.31775700934577"/>
      <point x="1129.2476635514017" y="-30.0"/>
      <point x="819.3364485981308" y="-30.0" type="qcurve" smooth="yes"/>
      <point x="509.4252336448598" y="-30.0"/>
      <point x="115.0" y="356.31775700934577"/>
    </contour>
    <contour>
      <point x="317.3551401869159" y="696.1691542288557" type="line" smooth="yes"/>
      <point x="317.3551401869159" y="434.6094527363184"/>
      <point x="592.8551401869158" y="136.17910447761193"/>
      <point x="819.3551401869158" y="136.17910447761193" type="qcurve" smooth="yes"/>
      <point x="1045.8551401869158" y="136.17910447761193"/>
      <point x="1321.3551401869158" y="434.6094527363184"/>
      <point x="1321.3551401869158" y="696.1691542288557" type="qcurve" smooth="yes"/>
      <point x="1321.3551401869158" y="759.8308457711443" type="line" smooth="yes"/>
      <point x="1321.3551401869158" y="1021.3905472636816"/>
      <point x="1045.8551401869158" y="1319.8208955223881"/>
      <point x="819.3551401869158" y="1319.8208955223881" type="qcurve" smooth="yes"/>
      <point x="592.8551401869158" y="1319.8208955223881"/>
      <point x="317.3551401869159" y="1021.3905472636816"/>
      <point x="317.3551401869159" y="759.8308457711443" type="qcurve" smooth="yes"/>
    </contour>
  </outline>
</glyph>
<glyph name="P" format="2">
  <advance width="1336.0607476635514"/>
  <unicode hex="0050"/>
  <anchor x="598.1308411214953" y="0.0" name="bottom"/>
  <anchor x="608.0373831775701" y="1456.0" name="top"/>
  <outline>
    <contour>
      <point x="170.0" y="0.0" type="line"/>
      <point x="170.0" y="1456.0" type="line"/>
      <point x="780.6308411214953" y="1456.0" type="line" smooth="yes"/>
      <point x="1021.5841121495328" y="1456.0"/>
      <point x="1281.0607476635514" y="1214.8606965174129"/>
      <point x="1281.0607476635514" y="1014.6069651741293" type="qcurve" smooth="yes"/>
      <point x="1281.0607476635514" y="814.4378109452737"/>
      <point x="1021.5841121495328" y="569.4129353233831"/>
      <point x="780.6308411214953" y="569.4179104477612" type="qcurve" smooth="yes"/>
      <point x="276.01869158878503" y="569.4179104477612" type="line"/>
      <point x="276.01869158878503" y="728.8109452736319" type="line"/>
      <point x="764.2429906542056" y="728.8109452736319" type="line" smooth="yes"/>
      <point x="940.2678662760962" y="728.8109452736319"/>
      <point x="1080.7429906542056" y="895.0746268656717"/>
      <point x="1080.7429906542056" y="1014.6069651741293" type="qcurve" smooth="yes"/>
      <point x="1080.7429906542056" y="1134.129353233831"/>
      <point x="940.2678662760962" y="1296.407960199005"/>
      <point x="764.2429906542056" y="1296.407960199005" type="qcurve" smooth="yes"/>
      <point x="370.2429906542056" y="1296.407960199005" type="line"/>
      <point x="370.2429906542056" y="0.0" type="line"/>
    </contour>
  </outline>
</glyph>
<glyph name="Q" format="2">
  <advance width="1638.8598130841121"/>
  <unicode hex="0051"/>
  <anchor x="738.3364485981308" y="0.0" name="bottom"/>
  <anchor x="738.3364485981308" y="1456.0" name="top"/>
  <outline>
    <contour>
      <point x="115.0" y="701.7289719626168" type="qcurve" smooth="yes"/>
      <point x="115.0" y="754.3271028037383" type="line" smooth="yes"/>
      <point x="115.0" y="1099.6448598130842"/>
      <point x="509.3130841121495" y="1486.0"/>
      <point x="819.3364485981308" y="1486.0" type="qcurve" smooth="yes"/>
      <point x="1129.3598130841121" y="1486.0"/>
      <point x="1523.6728971962616" y="1099.6448598130842"/>
      <point x="1523.6728971962616" y="754.3271028037383" type="qcurve" smooth="yes"/>
      <point x="1523.6728971962616" y="701.7289719626168" type="line" smooth="yes"/>
      <point x="1523.6728971962616" y="356.39252336448595"/>
      <point x="1129.1728971962616" y="-30.0"/>
      <point x="819.3364485981308" y="-30.0" type="qcurve" smooth="yes"/>
      <point x="509.5" y="-30.0"/>
      <point x="115.0" y="356.39252336448595"/>
    </contour>
    <contour>
      <point x="317.33644859813086" y="696.1691542288557" type="line" smooth="yes"/>
      <point x="317.33644859813086" y="434.6094527363184"/>
      <point x="592.8364485981308" y="136.17910447761193"/>
      <point x="819.3364485981308" y="136.17910447761193" type="qcurve" smooth="yes"/>
      <point x="1045.8364485981308" y="136.17910447761193"/>
      <point x="1321.3364485981308" y="434.6094527363184"/>
      <point x="1321.3364485981308" y="696.1691542288557" type="qcurve" smooth="yes"/>
      <point x="1321.3364485981308" y="759.8308457711443" type="line" smooth="yes"/>
      <point x="1321.3364485981308" y="1021.3905472636816"/>
      <point x="1045.8364485981308" y="1319.8208955223881"/>
      <point x="819.3364485981308" y="1319.8208955223881" type="qcurve" smooth="yes"/>
      <point x="592.8364485981308" y="1319.8208955223881"/>
      <point x="317.33644859813086" y="1021.3905472636816"/>
      <point x="317.33644859813086" y="759.8308457711443" type="qcurve" smooth="yes"/>
    </contour>
    <contour>
      <point x="1369.0" y="-251.14018691588785" type="line"/>
      <point x="1017.3364485981308" y="30.0" type="line"/>
      <point x="1143.677174873297" y="156.06909378341936" type="line"/>
      <point x="1503.766355140187" y="-116.2803738317757" type="line"/>
    </contour>
  </outline>
</glyph>
<glyph name="R" format="2">
  <advance width="1401.02053284977"/>
  <unicode hex="0052"/>
  <anchor x="625.7167945320128" y="0.0" name="bottom"/>
  <anchor x="625.7167945320128" y="1456.0" name="top"/>
  <outline>
    <contour>
      <point x="181.37100013948947" y="0.0" type="line"/>
      <point x="181.37100013948947" y="1456.0" type="line"/>
      <point x="778.7074487376203" y="1456.0" type="line" smooth="yes"/>
      <point x="1014.955414516204" y="1456.0"/>
      <point x="1270.4457664946297" y="1222.2033291486493"/>
      <point x="1270.4457664946297" y="1027.6616915422887" type="qcurve" smooth="yes"/>
      <point x="1270.4457664946297" y="833.0902031896592"/>
      <point x="1014.5815827405031" y="593.3233830845771"/>
      <point x="778.8943646254708" y="593.3532338308457" type="qcurve" smooth="yes"/>
      <point x="277.42707490584456" y="593.3532338308457" type="line"/>
      <point x="277.42707490584456" y="750.8457711442786" type="line"/>
      <point x="774.202775840424" y="750.8457711442786" type="line" smooth="yes"/>
      <point x="940.2226763379366" y="750.8457711442786"/>
      <point x="1070.2775421955644" y="912.1243781094528"/>
      <point x="1070.2775421955644" y="1027.6616915422887" type="qcurve" smooth="yes"/>
      <point x="1070.2775421955644" y="1143.1990049751244"/>
      <point x="940.2226763379366" y="1298.5074626865674"/>
      <point x="774.202775840424" y="1298.5074626865674" type="qcurve" smooth="yes"/>
      <point x="381.3336169619194" y="1298.5074626865674" type="line"/>
      <point x="381.3336169619194" y="0.0" type="line"/>
    </contour>
    <contour>
      <point x="1126.2962337843494" y="0.0" type="line"/>
      <point x="720.2962337843494" y="672.0" type="line"/>
      <point x="923.5205328497699" y="701.0" type="line"/>
      <point x="1348.52053284977" y="0.0" type="line"/>
    </contour>
  </outline>
</glyph>
<glyph name="S" format="2">
  <advance width="1387.8785046728972"/>
  <unicode hex="0053"/>
  <anchor x="630.5373831775701" y="0.0" name="bottom"/>
  <anchor x="630.5373831775701" y="1456.0" name="top"/>
  <outline>
    <contour>
      <point x="102.55607476635515" y="398.42218812479666" type="qcurve" smooth="yes"/>
      <point x="102.5" y="410.7960199004975" type="line"/>
      <point x="301.9392523364486" y="410.7960199004975" type="line"/>
      <point x="301.99532710280374" y="398.42218812479666" type="line" smooth="yes"/>
      <point x="302.2196261682243" y="266.9943274282792"/>
      <point x="513.0533314734738" y="135.8407960199005"/>
      <point x="704.1495327102804" y="135.8407960199005" type="qcurve" smooth="yes"/>
      <point x="894.6036871716186" y="135.8407960199005"/>
      <point x="1096.3116427209748" y="270.2902310875529"/>
      <point x="1096.3116427209748" y="379.19189101222855" type="qcurve" smooth="yes"/>
      <point x="1096.3116427209748" y="477.5962709815409"/>
      <point x="906.9776816850328" y="591.0455665597248"/>
      <point x="631.785046728972" y="666.2383177570093" type="qcurve" smooth="yes"/>
      <point x="349.42221137304136" y="743.4781001534384"/>
      <point x="130.4626168224299" y="918.3878504672897"/>
      <point x="130.4626168224299" y="1089.4719626168223" type="qcurve" smooth="yes"/>
      <point x="130.4626168224299" y="1260.4439252336447"/>
      <point x="424.96261682242994" y="1486.5"/>
      <point x="685.4392523364486" y="1486.5" type="qcurve" smooth="yes"/>
      <point x="945.9755893430046" y="1486.5"/>
      <point x="1253.0233644859813" y="1248.4456921002466"/>
      <point x="1253.322429906542" y="1064.1474636164971" type="qcurve" smooth="yes"/>
      <point x="1253.3785046728972" y="1051.773631840796" type="line"/>
      <point x="1051.9392523364488" y="1051.773631840796" type="line"/>
      <point x="1051.8831775700935" y="1064.142488492119" type="line" smooth="yes"/>
      <point x="1051.6775700934581" y="1179.6748268005765"/>
      <point x="866.9392523364487" y="1320.6641791044776"/>
      <point x="683.1915887850467" y="1320.6641791044776" type="qcurve" smooth="yes"/>
      <point x="501.3621611568327" y="1320.6641791044776"/>
      <point x="328.03949876784304" y="1200.0964104710094"/>
      <point x="328.03949876784304" y="1096.2943925233646" type="qcurve" smooth="yes"/>
      <point x="328.03949876784304" y="1002.6694797042823"/>
      <point x="488.91793369600595" y="906.8563025991538"/>
      <point x="766.8598130841121" y="835.0700934579439" type="qcurve" smooth="yes"/>
      <point x="1046.9489003580231" y="762.9038685079277"/>
      <point x="1295.3785046728972" y="562.2803738317757"/>
      <point x="1295.3785046728972" y="381.626168224299" type="qcurve" smooth="yes"/>
      <point x="1295.3785046728972" y="200.97196261682242"/>
      <point x="985.3644859813085" y="-30.0"/>
      <point x="710.3317757009346" y="-30.0" type="qcurve" smooth="yes"/>
      <point x="435.2244385548891" y="-30.0"/>
      <point x="102.89252336448598" y="200.01799414144233"/>
    </contour>
  </outline>
</glyph>
<glyph name="T" format="2">
  <advance width="1364.2242990654206"/>
  <unicode hex="0054"/>
  <anchor x="592.1121495327103" y="0.0" name="bottom"/>
  <anchor x="592.1121495327103" y="728.0" name="center"/>
  <anchor x="592.1121495327103" y="1456.0" name="top"/>
  <anchor x="596.1495327102804" y="0.0" name="cy_descender"/>
  <outline>
    <contour>
      <point x="582.0" y="0.0" type="line"/>
      <point x="582.0" y="1378.0" type="line"/>
      <point x="782.2242990654206" y="1378.0" type="line"/>
      <point x="782.2242990654206" y="0.0" type="line"/>
    </contour>
    <contour>
      <point x="24.0" y="1296.0" type="line"/>
      <point x="24.0" y="1456.0" type="line"/>
      <point x="1340.2242990654206" y="1456.0" type="line"/>
      <point x="1340.2242990654206" y="1296.0" type="line"/>
    </contour>
  </outline>
</glyph>
<glyph name="U" format="2">
  <advance width="1527.929139349979"/>
  <unicode hex="0055"/>
  <anchor x="698.9859813084113" y="0.0" name="bottom"/>
  <anchor x="897.855140186916" y="0.0" name="ogonek"/>
  <anchor x="701.6588785046731" y="1456.0" name="top"/>
  <anchor x="1141.3676709908402" y="1456.0" name="topright"/>
  <outline>
    <contour>
      <point x="167.5" y="473.55000697447343" type="qcurve" smooth="yes"/>
      <point x="167.5" y="1456.0" type="line"/>
      <point x="367.5" y="1456.0" type="line"/>
      <point x="367.5" y="471.6218905472637" type="line" smooth="yes"/>
      <point x="367.5" y="301.9004975124378"/>
      <point x="587.9639652206259" y="136.11940298507463"/>
      <point x="767.0186915887853" y="136.11940298507463" type="qcurve" smooth="yes"/>
      <point x="946.0734179569444" y="136.11940298507463"/>
      <point x="1166.518691588785" y="301.9004975124378"/>
      <point x="1166.518691588785" y="471.6218905472637" type="qcurve" smooth="yes"/>
      <point x="1166.518691588785" y="1456.0" type="line"/>
      <point x="1360.6480448226162" y="1456.0" type="line"/>
      <point x="1360.6480448226162" y="471.46733621611565" type="line" smooth="yes"/>
      <point x="1360.6480448226162" y="220.9801459989771"/>
      <point x="1014.7373413307296" y="-30.0"/>
      <point x="764.5085786023157" y="-30.0" type="qcurve" smooth="yes"/>
      <point x="514.5129957688195" y="-30.0"/>
      <point x="167.5" y="221.53833635560517"/>
    </contour>
  </outline>
</glyph>
<glyph name="V" format="2">
  <advance width="1447.411214953271"/>
  <unicode hex="0056"/>
  <anchor x="727.0700934579439" y="0.0" name="bottom"/>
  <anchor x="730.9953271028037" y="1456.0" name="top"/>
  <outline>
    <contour>
      <point x="0.0" y="1456.0" type="line"/>
      <point x="213.15887850467288" y="1456.0" type="line"/>
      <point x="683.2710280373832" y="332.95327102803736" type="line" smooth="yes"/>
      <point x="696.7523364485982" y="301.1588785046729"/>
      <point x="712.7710280373832" y="248.30841121495325"/>
      <point x="720.196261682243" y="219.25233644859816" type="qcurve"/>
      <point x="729.1775700934579" y="219.25233644859816" type="line"/>
      <point x="735.6028037383178" y="248.30841121495325"/>
      <point x="753.6401869158879" y="301.1588785046729"/>
      <point x="767.1214953271028" y="332.95327102803736" type="qcurve" smooth="yes"/>
      <point x="1244.5327102803737" y="1456.0" type="line"/>
      <point x="1447.411214953271" y="1456.0" type="line"/>
      <point x="815.5700934579439" y="-10.0" type="line"/>
      <point x="633.1775700934579" y="-10.0" type="line"/>
    </contour>
  </outline>
</glyph>
<glyph name="W" format="2">
  <advance width="2051.065420560748"/>
  <unicode hex="0057"/>
  <anchor x="937.0119960942949" y="0.0" name="bottom"/>
  <anchor x="940.7503138513042" y="1456.0" name="top"/>
  <outline>
    <contour>
      <point x="463.5" y="-10.0" type="line"/>
      <point x="50.0" y="1456.0" type="line"/>
      <point x="252.38317757009347" y="1456.0" type="line"/>
      <point x="553.3504672897196" y="357.24766355140184" type="line" smooth="yes"/>
      <point x="562.3504672897196" y="323.7102803738318"/>
      <point x="568.2943925233645" y="282.24766355140184"/>
      <point x="572.2757009345794" y="249.21028037383178" type="qcurve"/>
      <point x="582.2383177570093" y="249.21028037383178" type="line"/>
      <point x="586.2196261682243" y="282.24766355140184"/>
      <point x="592.107476635514" y="323.2289719626168"/>
      <point x="602.107476635514" y="357.24766355140184" type="qcurve" smooth="yes"/>
      <point x="926.3878504672897" y="1455.981308411215" type="line"/>
      <point x="1125.5280373831774" y="1455.981308411215" type="line"/>
      <point x="1464.8644859813085" y="357.303738317757" type="line" smooth="yes"/>
      <point x="1475.3644859813085" y="323.78504672897196"/>
      <point x="1480.771028037383" y="282.24766355140184"/>
      <point x="1484.752336448598" y="249.21028037383178" type="qcurve"/>
      <point x="1493.733644859813" y="249.21028037383178" type="line"/>
      <point x="1497.714953271028" y="282.24766355140184"/>
      <point x="1504.1214953271028" y="322.803738317757"/>
      <point x="1513.6214953271028" y="357.303738317757" type="qcurve" smooth="yes"/>
      <point x="1800.588785046729" y="1456.0" type="line"/>
      <point x="2001.0654205607477" y="1456.0" type="line"/>
      <point x="1591.5654205607477" y="-10.0" type="line"/>
      <point x="1394.7056074766356" y="-10.0" type="line"/>
      <point x="1056.0233644859813" y="1091.6121495327102" type="line" smooth="yes"/>
      <point x="1045.5607476635514" y="1125.1495327102805"/>
      <point x="1034.0233644859813" y="1186.443925233645"/>
      <point x="1029.0794392523364" y="1219.481308411215" type="qcurve"/>
      <point x="1021.0794392523364" y="1219.481308411215" type="line"/>
      <point x="1016.1355140186915" y="1186.443925233645"/>
      <point x="1004.1355140186915" y="1125.1495327102805"/>
      <point x="994.1542056074767" y="1091.6121495327102" type="qcurve" smooth="yes"/>
      <point x="660.0607476635514" y="-10.0" type="line"/>
    </contour>
  </outline>
</glyph>
<glyph name="X" format="2">
  <advance width="1388.0233644859813"/>
  <unicode hex="0058"/>
  <anchor x="616.1028037383178" y="0.0" name="bottom"/>
  <anchor x="616.1028037383178" y="1456.0" name="top"/>
  <anchor x="1005.803738317757" y="0.0" name="cy_descender"/>
  <outline>
    <contour>
      <point x="25.0" y="0.0" type="line"/>
      <point x="628.3598130841121" y="806.5420560747664" type="line"/>
      <point x="651.2570093457944" y="806.5420560747664" type="line"/>
      <point x="1107.3130841121497" y="1456.0" type="line"/>
      <point x="1339.0233644859813" y="1456.0" type="line"/>
      <point x="758.018691588785" y="669.7196261682243" type="line"/>
      <point x="734.2663551401869" y="669.7196261682243" type="line"/>
      <point x="256.69158878504675" y="0.0" type="line"/>
    </contour>
    <contour>
      <point x="49.88785046728972" y="1456.0" type="line"/>
      <point x="276.5233644859813" y="1456.0" type="line"/>
      <point x="740.0233644859813" y="806.0" type="line"/>
      <point x="751.5233644859813" y="806.0" type="line"/>
      <point x="1363.0233644859813" y="0.0" type="line"/>
      <point x="1123.3504672897197" y="0.0" type="line"/>
      <point x="636.8691588785047" y="670.0" type="line"/>
      <point x="625.3691588785047" y="670.0" type="line"/>
    </contour>
  </outline>
</glyph>
<glyph name="Y" format="2">
  <advance width="1386.2242990654206"/>
  <unicode hex="0059"/>
  <anchor x="617.607476635514" y="0.0" name="bottom"/>
  <anchor x="622.2616822429907" y="1456.0" name="top"/>
  <anchor x="-175.0" y="1074.0" name="tonos"/>
  <outline>
    <contour>
      <point x="593.0" y="0.0" type="line"/>
      <point x="593.0" y="544.0" type="line"/>
      <point x="15.0" y="1456.0" type="line"/>
      <point x="239.22429906542055" y="1456.0" type="line"/>
      <point x="639.3271028037383" y="815.6448598130842" type="line" smooth="yes"/>
      <point x="657.196261682243" y="786.8878504672897"/>
      <point x="682.196261682243" y="735.6448598130842"/>
      <point x="693.214953271028" y="708.6448598130842" type="qcurve"/>
      <point x="699.214953271028" y="708.6448598130842" type="line"/>
      <point x="710.214953271028" y="735.6448598130842"/>
      <point x="735.214953271028" y="787.2943925233645"/>
      <point x="753.1401869158879" y="815.6448598130842" type="qcurve" smooth="yes"/>
      <point x="1157.1869158878503" y="1456.0" type="line"/>
      <point x="1371.2242990654206" y="1456.0" type="line"/>
      <point x="793.2242990654206" y="544.0" type="line"/>
      <point x="793.2242990654206" y="0.0" type="line"/>
    </contour>
  </outline>
</glyph>
<glyph name="Z" format="2">
  <advance width="1324.1028037383178"/>
  <unicode hex="005A"/>
  <anchor x="601.3364485981308" y="0.0" name="bottom"/>
  <anchor x="601.3364485981308" y="1456.0" name="top"/>
  <outline>
    <contour>
      <point x="65.0" y="0.0" type="line"/>
      <point x="65.0" y="141.49253731343285" type="line"/>
      <point x="975.272004463663" y="1296.0099502487562" type="line"/>
      <point x="77.0" y="1296.0099502487562" type="line"/>
      <point x="77.0" y="1456.0" type="line"/>
      <point x="1225.822429906542" y="1456.0" type="line"/>
      <point x="1225.822429906542" y="1314.5074626865671" type="line"/>
      <point x="315.6725252243456" y="159.9502487562189" type="line"/>
      <point x="1258.1028037383178" y="159.9502487562189" type="line"/>
      <point x="1258.1028037383178" y="0.0" type="line"/>
    </contour>
  </outline>
</glyph>
<glyph name="backslash" format="2">
  <advance width="585.7412935323383"/>
  <unicode hex="005C"/>
  <outline>
    <contour>
      <point x="-100.39800995024876" y="1456.0" type="line"/>
      <point x="78.13930348258707" y="1456.0" type="line"/>
      <point x="686.139303482587" y="-125.0" type="line"/>
      <point x="507.60199004975124" y="-125.0" type="line"/>
    </contour>
  </outline>
</glyph>
<glyph name="bracketright" format="2">
  <advance width="707.4766355140187"/>
  <unicode hex="005D"/>
  <outline>
    <contour>
      <point x="563.4766355140187" y="-310.0" type="line"/>
      <point x="80.0" y="-310.0" type="line"/>
      <point x="80.0" y="-148.0099502487562" type="line"/>
      <point x="371.0" y="-148.0099502487562" type="line"/>
      <point x="371.0" y="1294.0099502487562" type="line"/>
      <point x="80.0" y="1294.0099502487562" type="line"/>
      <point x="80.0" y="1456.0" type="line"/>
      <point x="563.4766355140187" y="1456.0" type="line"/>
    </contour>
  </outline>
</glyph>
<glyph name="asciicircum" format="2">
  <advance width="1199.9751243781093"/>
  <unicode hex="005E"/>
  <outline>
    <contour>
      <point x="37.5" y="720.0" type="line"/>
      <point x="512.5" y="1456.0" type="line"/>
      <point x="687.4751243781095" y="1456.0" type="line"/>
      <point x="1162.4751243781095" y="720.0" type="line"/>
      <point x="959.9875621890546" y="720.0" type="line"/>
      <point x="599.9875621890546" y="1290.0" type="line"/>
      <point x="239.98756218905473" y="720.0" type="line"/>
    </contour>
  </outline>
</glyph>
<glyph name="underscore" format="2">
  <advance width="1049.0000000000002"/>
  <unicode hex="005F"/>
  <outline>
    <contour>
      <point x="12.5" y="-417.9900497512439" type="line"/>
      <point x="12.5" y="-244.00000000000003" type="line"/>
      <point x="1036.5000000000002" y="-244.00000000000003" type="line"/>
      <point x="1036.5000000000002" y="-417.9900497512439" type="line"/>
    </contour>
  </outline>
</glyph>
<glyph name="a" format="2">
  <advance width="1215.7990654205607"/>
  <unicode hex="0061"/>
  <anchor x="652.5747663551402" y="0.0" name="bottom"/>
  <anchor x="1078.7990654205607" y="0.0" name="ogonek"/>
  <anchor x="655.4719626168225" y="1052.0" name="top"/>
  <outline>
    <contour>
      <point x="503.1261682242991" y="-20.0" type="qcurve" smooth="yes"/>
      <point x="330.3644859813084" y="-20.0"/>
      <point x="90.0" y="150.0"/>
      <point x="90.0" y="310.0" type="qcurve" smooth="yes"/>
      <point x="90.0" y="470.0"/>
      <point x="380.6261682242991" y="648.0"/>
      <point x="606.5233644859813" y="648.0" type="qcurve" smooth="yes"/>
      <point x="970.4906542056075" y="648.0" type="line"/>
      <point x="970.4906542056075" y="515.1940298507462" type="line"/>
      <point x="620.9906542056075" y="515.1940298507462" type="line" smooth="yes"/>
      <point x="454.4906542056075" y="515.1940298507462"/>
      <point x="283.4906542056075" y="409.6318407960199"/>
      <point x="283.4906542056075" y="320.00995024875624" type="qcurve" smooth="yes"/>
      <point x="283.4906542056075" y="230.38308457711443"/>
      <point x="406.9906542056075" y="128.80597014925374"/>
      <point x="537.9906542056075" y="128.80597014925374" type="qcurve" smooth="yes"/>
      <point x="668.9906542056075" y="128.80597014925374"/>
      <point x="880.4906542056075" y="280.1741293532338"/>
      <point x="880.4906542056075" y="364.82089552238807" type="qcurve"/>
      <point x="880.4906542056075" y="718.9922815827405" type="line" smooth="yes"/>
      <point x="879.5143209187706" y="814.6147765843679"/>
      <point x="763.9657785837169" y="932.9303482587064"/>
      <point x="620.8971962616822" y="932.9303482587064" type="qcurve" smooth="yes"/>
      <point x="478.5006044543637" y="932.9303482587064"/>
      <point x="356.0093457943925" y="835.3283582089553"/>
      <point x="356.0093457943925" y="769.5472636815921" type="qcurve" smooth="yes"/>
      <point x="356.0093457943925" y="764.3603477937417" type="line"/>
      <point x="164.41121495327104" y="764.3603477937417" type="line"/>
      <point x="164.41121495327104" y="769.5472636815921" type="line" smooth="yes"/>
      <point x="164.41121495327104" y="894.8905472636816"/>
      <point x="413.03933603012973" y="1082.0"/>
      <point x="626.2663551401869" y="1082.0" type="qcurve" smooth="yes"/>
      <point x="839.7622866973544" y="1082.0"/>
      <point x="1073.7990654205607" y="899.2037941135445"/>
      <point x="1073.7990654205607" y="717.8317757009346" type="qcurve" smooth="yes"/>
      <point x="1073.7990654205607" y="240.0" type="line" smooth="yes"/>
      <point x="1073.7990654205607" y="175.0"/>
      <point x="1093.7990654205607" y="60.0"/>
      <point x="1111.7990654205607" y="16.0" type="qcurve"/>
      <point x="1111.7990654205607" y="0.0" type="line"/>
      <point x="924.4906542056075" y="0.0" type="line"/>
      <point x="910.4906542056075" y="25.0"/>
      <point x="887.4906542056075" y="105.0"/>
      <point x="883.9532710280374" y="145.0" type="qcurve"/>
      <point x="841.5794392523364" y="80.0"/>
      <point x="652.4345794392524" y="-20.0"/>
    </contour>
  </outline>
</glyph>
<glyph name="b" format="2">
  <advance width="1294.3551401869158"/>
  <unicode hex="0062"/>
  <anchor x="596.7757009345794" y="0.0" name="bottom"/>
  <anchor x="585.373831775701" y="1535.981308411215" name="top"/>
  <outline>
    <contour>
      <point x="148.0" y="0.0" type="line"/>
      <point x="148.0" y="1536.0" type="line"/>
      <point x="341.4766355140187" y="1536.0" type="line"/>
      <point x="341.4766355140187" y="137.0" type="line"/>
      <point x="331.4766355140187" y="137.0" type="line"/>
      <point x="323.4766355140187" y="0.0" type="line"/>
    </contour>
    <contour>
      <point x="669.9766355140187" y="133.79601990049753" type="qcurve" smooth="yes"/>
      <point x="847.4766355140187" y="133.79601990049753"/>
      <point x="1010.4766355140187" y="350.80099502487565"/>
      <point x="1010.4766355140187" y="510.06467661691545" type="qcurve" smooth="yes"/>
      <point x="1010.4766355140187" y="541.9203980099503" type="line" smooth="yes"/>
      <point x="1010.4766355140187" y="701.1990049751244"/>
      <point x="847.4766355140187" y="918.2039800995025"/>
      <point x="669.9766355140187" y="918.2039800995025" type="qcurve" smooth="yes"/>
      <point x="502.9766355140187" y="918.2039800995025"/>
      <point x="298.4766355140187" y="697.2189054726368"/>
      <point x="298.4766355140187" y="548.8955223880597" type="qcurve" smooth="yes"/>
      <point x="298.4766355140187" y="521.0199004975125" type="line" smooth="yes"/>
      <point x="298.4766355140187" y="348.81094527363183"/>
      <point x="508.9766355140187" y="133.79601990049753"/>
    </contour>
    <contour>
      <point x="708.6168224299065" y="-20.0" type="qcurve" smooth="yes"/>
      <point x="489.0981308411215" y="-20.0"/>
      <point x="230.18691588785046" y="265.0"/>
      <point x="230.18691588785046" y="520.0" type="qcurve" smooth="yes"/>
      <point x="230.18691588785046" y="554.0" type="line" smooth="yes"/>
      <point x="230.18691588785046" y="773.955223880597"/>
      <point x="470.9360905751616" y="1072.0"/>
      <point x="708.6168224299065" y="1072.0" type="qcurve" smooth="yes"/>
      <point x="935.7102803738318" y="1072.0"/>
      <point x="1208.233644859813" y="771.8691588785047"/>
      <point x="1208.233644859813" y="541.7570093457944" type="qcurve" smooth="yes"/>
      <point x="1208.233644859813" y="510.14953271028037" type="line" smooth="yes"/>
      <point x="1208.233644859813" y="280.0747663551402"/>
      <point x="935.7102803738318" y="-20.0"/>
    </contour>
  </outline>
</glyph>
<glyph name="c" format="2">
  <advance width="1188.803738317757"/>
  <unicode hex="0063"/>
  <anchor x="578.7383177570093" y="0.0" name="bottom"/>
  <anchor x="578.7383177570093" y="1052.0" name="top"/>
  <outline>
    <contour>
      <point x="85.0" y="510.0" type="qcurve" smooth="yes"/>
      <point x="85.0" y="542.0" type="line" smooth="yes"/>
      <point x="85.0" y="780.0"/>
      <point x="378.7056074766355" y="1082.0"/>
      <point x="635.3691588785047" y="1082.0" type="qcurve" smooth="yes"/>
      <point x="873.2511275398707" y="1082.0"/>
      <point x="1119.803738317757" y="854.7462686567164"/>
      <point x="1119.803738317757" y="714.1592039800995" type="qcurve" smooth="yes"/>
      <point x="1119.803738317757" y="708.9722880922491" type="line"/>
      <point x="932.7383177570093" y="708.9722880922491" type="line"/>
      <point x="932.7383177570093" y="714.1592039800995" type="line" smooth="yes"/>
      <point x="932.7383177570093" y="798.776119402985"/>
      <point x="791.7980192495467" y="928.1592039800995"/>
      <point x="636.2383177570093" y="928.1592039800995" type="qcurve" smooth="yes"/>
      <point x="454.7383177570093" y="928.1592039800995"/>
      <point x="282.7383177570093" y="704.1840796019901"/>
      <point x="282.7383177570093" y="541.9253731343283" type="qcurve" smooth="yes"/>
      <point x="282.7383177570093" y="510.07462686567163" type="line" smooth="yes"/>
      <point x="282.7383177570093" y="347.81592039800995"/>
      <point x="454.7383177570093" y="123.83582089552239"/>
      <point x="636.2383177570093" y="123.83582089552239" type="qcurve" smooth="yes"/>
      <point x="791.7980192495467" y="123.83582089552239"/>
      <point x="932.7383177570093" y="253.12544752871156"/>
      <point x="932.7383177570093" y="337.7610545403822" type="qcurve" smooth="yes"/>
      <point x="932.7383177570093" y="343.02273678337286" type="line"/>
      <point x="1119.803738317757" y="343.02273678337286" type="line"/>
      <point x="1119.803738317757" y="337.8358208955224" type="line" smooth="yes"/>
      <point x="1119.803738317757" y="197.24875621890547"/>
      <point x="873.2511275398707" y="-30.0"/>
      <point x="635.3691588785047" y="-30.0" type="qcurve" smooth="yes"/>
      <point x="378.7056074766355" y="-30.0"/>
      <point x="85.0" y="272.0"/>
    </contour>
  </outline>
</glyph>
<glyph name="d" format="2">
  <advance width="1318.2336448598132"/>
  <unicode hex="0064"/>
  <anchor x="600.9579439252337" y="0.0" name="bottom"/>
  <anchor x="829.2663551401869" y="1313.0" name="center"/>
  <anchor x="600.9579439252337" y="1535.9999999999998" name="top"/>
  <anchor x="1149.7710280373833" y="1052.0" name="topright"/>
  <outline>
    <contour>
      <point x="964.2570093457944" y="1535.9999999999998" type="line"/>
      <point x="1157.7336448598132" y="1535.9999999999998" type="line"/>
      <point x="1157.7336448598132" y="0.0" type="line"/>
      <point x="982.2570093457944" y="0.0" type="line"/>
      <point x="974.2570093457945" y="137.0" type="line"/>
      <point x="964.2570093457944" y="137.0" type="line"/>
    </contour>
    <contour>
      <point x="637.2570093457945" y="918.2039800995026" type="qcurve" smooth="yes"/>
      <point x="460.2570093457944" y="918.2039800995026"/>
      <point x="295.2570093457944" y="701.1990049751245"/>
      <point x="295.2570093457944" y="541.9203980099503" type="qcurve" smooth="yes"/>
      <point x="295.2570093457944" y="510.06467661691545" type="line" smooth="yes"/>
      <point x="295.2570093457944" y="350.8009950248756"/>
      <point x="460.2570093457944" y="133.79601990049753"/>
      <point x="637.2570093457945" y="133.79601990049753" type="qcurve" smooth="yes"/>
      <point x="803.2321337239039" y="133.79601990049753"/>
      <point x="1007.2570093457945" y="354.7810945273631"/>
      <point x="1007.2570093457945" y="503.1094527363184" type="qcurve" smooth="yes"/>
      <point x="1007.2570093457945" y="530.9850746268656" type="line" smooth="yes"/>
      <point x="1007.2570093457945" y="703.1890547263682"/>
      <point x="797.281884967685" y="918.2039800995026"/>
    </contour>
    <contour>
      <point x="597.1355140186917" y="1072.0" type="qcurve" smooth="yes"/>
      <point x="832.3037383177572" y="1072.0"/>
      <point x="1075.5280373831774" y="776.0000000000001"/>
      <point x="1075.5280373831774" y="531.0" type="qcurve" smooth="yes"/>
      <point x="1075.5280373831774" y="505.00000000000006" type="line" smooth="yes"/>
      <point x="1075.5280373831774" y="282.0"/>
      <point x="824.7102803738318" y="-20.0"/>
      <point x="597.1355140186917" y="-20.0" type="qcurve" smooth="yes"/>
      <point x="370.02336448598135" y="-20.0"/>
      <point x="97.5" y="280.0"/>
      <point x="97.5" y="510.00000000000006" type="qcurve" smooth="yes"/>
      <point x="97.5" y="542.0000000000001" type="line" smooth="yes"/>
      <point x="97.5" y="772.0000000000001"/>
      <point x="370.02336448598135" y="1072.0"/>
    </contour>
  </outline>
</glyph>
<glyph name="e" format="2">
  <advance width="1207.5654205607477"/>
  <unicode hex="0065"/>
  <anchor x="598.1495327102804" y="0.0" name="bottom"/>
  <anchor x="782.1775700934579" y="0.0" name="ogonek"/>
  <anchor x="567.7757009345794" y="1052.0" name="top"/>
  <outline>
    <contour>
      <point x="85.0" y="510.2803738317757" type="qcurve" smooth="yes"/>
      <point x="85.0" y="541.8878504672897" type="line" smooth="yes"/>
      <point x="85.0" y="779.9626168224299"/>
      <point x="379.7616822429907" y="1082.0"/>
      <point x="622.7757009345794" y="1082.0" type="qcurve" smooth="yes"/>
      <point x="865.2710280373832" y="1082.0"/>
      <point x="1127.5654205607475" y="799.9900497512438"/>
      <point x="1127.5654205607475" y="559.8706467661691" type="qcurve" smooth="yes"/>
      <point x="1127.5654205607475" y="483.8905472636816" type="line"/>
      <point x="206.58878504672896" y="483.8905472636816" type="line"/>
      <point x="206.58878504672896" y="631.726368159204" type="line"/>
      <point x="933.088785046729" y="631.726368159204" type="line"/>
      <point x="933.088785046729" y="655.6119402985074" type="line" smooth="yes"/>
      <point x="933.088785046729" y="769.1044776119403"/>
      <point x="778.088785046729" y="928.3333333333334"/>
      <point x="632.588785046729" y="928.3333333333334" type="qcurve" smooth="yes"/>
      <point x="456.58878504672896" y="928.3333333333334"/>
      <point x="282.58878504672896" y="704.3283582089553"/>
      <point x="282.58878504672896" y="541.9402985074627" type="qcurve" smooth="yes"/>
      <point x="282.58878504672896" y="509.8606965174129" type="line" smooth="yes"/>
      <point x="282.58878504672896" y="347.4726368159204"/>
      <point x="468.0700934579439" y="123.56716417910448"/>
      <point x="662.3224299065421" y="123.56716417910448" type="qcurve" smooth="yes"/>
      <point x="783.2877435253638" y="123.56716417910448"/>
      <point x="956.5001162412237" y="211.16417910447763"/>
      <point x="1010.7288092249036" y="270.93532338308455" type="qcurve"/>
      <point x="1118.4158878504672" y="175.0" type="line"/>
      <point x="1062.1308411214955" y="100.0"/>
      <point x="826.2102803738318" y="-30.0"/>
      <point x="656.2616822429907" y="-30.0" type="qcurve" smooth="yes"/>
      <point x="379.7616822429907" y="-30.0"/>
      <point x="85.0" y="272.01869158878503"/>
    </contour>
  </outline>
</glyph>
<glyph name="f" format="2">
  <advance width="708.0514018691589"/>
  <unicode hex="0066"/>
  <anchor x="316.2383177570093" y="0.0" name="bottom"/>
  <anchor x="318.10747663551405" y="1535.9999999999998" name="top"/>
  <outline>
    <contour>
      <point x="264.0" y="0.0" type="line"/>
      <point x="264.0" y="1197.8317757009347" type="line" smooth="yes"/>
      <point x="264.0" y="1372.8971962616824"/>
      <point x="466.2056074766355" y="1556.0"/>
      <point x="629.6214953271028" y="1556.0" type="qcurve" smooth="yes"/>
      <point x="676.3364485981309" y="1556.0"/>
      <point x="743.4953271028038" y="1547.9252336448599"/>
      <point x="773.551401869159" y="1539.96261682243" type="qcurve"/>
      <point x="763.5514018691589" y="1388.470079508997" type="line"/>
      <point x="741.551401869159" y="1392.4700795089973"/>
      <point x="691.5514018691589" y="1398.5074626865671"/>
      <point x="654.5514018691589" y="1398.5074626865671" type="qcurve" smooth="yes"/>
      <point x="565.5514018691589" y="1398.5074626865671"/>
      <point x="455.0514018691589" y="1298.5174129353236"/>
      <point x="457.5514018691589" y="1198.5074626865671" type="qcurve" smooth="yes"/>
      <point x="457.5514018691589" y="990.5771144278608" type="line"/>
      <point x="457.5514018691589" y="970.0" type="line"/>
      <point x="457.5514018691589" y="0.0" type="line"/>
    </contour>
    <contour>
      <point x="37.5" y="908.0099502487562" type="line"/>
      <point x="37.5" y="1052.0" type="line"/>
      <point x="354.00000000000006" y="1052.0" type="line"/>
      <point x="407.4766355140187" y="1052.0" type="line"/>
      <point x="735.5514018691589" y="1052.0" type="line"/>
      <point x="735.5514018691589" y="908.0099502487562" type="line"/>
    </contour>
  </outline>
</glyph>
<glyph name="g" format="2">
  <advance width="1292.3364485981308"/>
  <unicode hex="0067"/>
  <anchor x="590.8878504672897" y="-416.0" name="bottom"/>
  <anchor x="592.4018691588785" y="1052.0" name="top"/>
  <outline>
    <contour>
      <point x="606.3224299065421" y="-436.0" type="qcurve" smooth="yes"/>
      <point x="458.88317757009344" y="-436.0"/>
      <point x="209.93457943925233" y="-350.0"/>
      <point x="124.09345794392523" y="-284.0" type="qcurve"/>
      <point x="241.1168456781513" y="-143.10945273631842" type="line"/>
      <point x="293.80076254242806" y="-194.12935323383084"/>
      <point x="484.80466824754734" y="-273.0348258706468"/>
      <point x="603.9439252336449" y="-273.0348258706468" type="qcurve" smooth="yes"/>
      <point x="765.4440647231133" y="-273.0348258706468"/>
      <point x="951.7570093457944" y="-119.27725856697819"/>
      <point x="951.7570093457944" y="21.86390477518947" type="qcurve" smooth="yes"/>
      <point x="951.7570093457944" y="915.0" type="line"/>
      <point x="958.7570093457944" y="915.0" type="line"/>
      <point x="966.7570093457944" y="1052.0" type="line"/>
      <point x="1145.233644859813" y="1052.0" type="line"/>
      <point x="1145.233644859813" y="22.317757009345794" type="line" smooth="yes"/>
      <point x="1145.233644859813" y="-199.83177570093457"/>
      <point x="845.7523364485982" y="-436.0"/>
    </contour>
    <contour>
      <point x="628.0913423536523" y="133.79601990049753" type="qcurve" smooth="yes"/>
      <point x="795.9717998791092" y="133.79601990049753"/>
      <point x="1002.3783419351839" y="354.78109452736317"/>
      <point x="1002.3783419351839" y="503.1094527363184" type="qcurve" smooth="yes"/>
      <point x="1002.3783419351839" y="530.9850746268656" type="line" smooth="yes"/>
      <point x="1002.3783419351839" y="703.1890547263681"/>
      <point x="789.5452178360533" y="918.2039800995025"/>
      <point x="628.0913423536523" y="918.2039800995025" type="qcurve" smooth="yes"/>
      <point x="449.18600920630496" y="918.2039800995025"/>
      <point x="282.7570093457944" y="701.1990049751244"/>
      <point x="282.7570093457944" y="541.9203980099503" type="qcurve" smooth="yes"/>
      <point x="282.7570093457944" y="510.06467661691545" type="line" smooth="yes"/>
      <point x="282.7570093457944" y="350.80099502487565"/>
      <point x="449.18600920630496" y="133.79601990049753"/>
    </contour>
    <contour>
      <point x="588.4835634909565" y="-20.0" type="qcurve" smooth="yes"/>
      <point x="359.9611056865207" y="-20.0"/>
      <point x="85.0" y="280.0"/>
      <point x="85.0" y="510.0" type="qcurve" smooth="yes"/>
      <point x="85.0" y="542.0" type="line" smooth="yes"/>
      <point x="85.0" y="772.0"/>
      <point x="359.9611056865207" y="1072.0"/>
      <point x="588.4835634909565" y="1072.0" type="qcurve" smooth="yes"/>
      <point x="819.4399962802809" y="1072.0"/>
      <point x="1070.668061561352" y="769.0"/>
      <point x="1070.668061561352" y="531.0" type="qcurve" smooth="yes"/>
      <point x="1070.668061561352" y="505.0" type="line" smooth="yes"/>
      <point x="1070.668061561352" y="282.0"/>
      <point x="818.4213046914957" y="-20.0"/>
    </contour>
  </outline>
</glyph>
<glyph name="h" format="2">
  <advance width="1270.4532710280373"/>
  <unicode hex="0068"/>
  <anchor x="634.9018691588785" y="0.0" name="bottom"/>
  <anchor x="336.2383177570093" y="1327.0000000000002" name="center"/>
  <anchor x="259.71495327102804" y="1535.9999999999998" name="top"/>
  <anchor x="1024.2149532710282" y="0.0" name="engtail"/>
  <outline>
    <contour>
      <point x="353.9766355140187" y="0.0" type="line"/>
      <point x="160.5" y="0.0" type="line"/>
      <point x="160.5" y="1535.9999999999998" type="line"/>
      <point x="353.9766355140187" y="1535.9999999999998" type="line"/>
    </contour>
    <contour>
      <point x="267.66374203747614" y="786.3271028037384" type="line"/>
      <point x="347.3199283954062" y="934.9252336448598"/>
      <point x="582.2710280373832" y="1072.0"/>
      <point x="737.8411214953271" y="1072.0" type="qcurve" smooth="yes"/>
      <point x="905.1542056074767" y="1072.0"/>
      <point x="1119.9532710280375" y="890.3457943925234"/>
      <point x="1119.9532710280375" y="678.2149532710281" type="qcurve" smooth="yes"/>
      <point x="1119.9532710280375" y="0.0" type="line"/>
      <point x="926.4766355140187" y="0.0" type="line"/>
      <point x="926.4766355140187" y="678.9800995024875" type="line" smooth="yes"/>
      <point x="926.4766355140187" y="804.9800995024876"/>
      <point x="794.9766355140188" y="913.9800995024876"/>
      <point x="673.3831775700936" y="913.9800995024876" type="qcurve" smooth="yes"/>
      <point x="538.1028037383178" y="913.9800995024876"/>
      <point x="350.7401590179942" y="756.4729250941554"/>
      <point x="267.66374203747614" y="576.0455200632352" type="qcurve"/>
    </contour>
  </outline>
</glyph>
<glyph name="k" format="2">
  <advance width="1141.9532710280373"/>
  <unicode hex="006B"/>
  <anchor x="521.4766355140187" y="0.0" name="bottom"/>
  <anchor x="521.4766355140187" y="1536.0" name="top"/>
  <outline>
    <contour>
      <point x="148.0" y="0.0" type="line"/>
      <point x="148.0" y="1536.0" type="line"/>
      <point x="341.4766355140187" y="1536.0" type="line"/>
      <point x="341.4766355140187" y="0.0" type="line"/>
    </contour>
    <contour>
      <point x="932.4766355140187" y="0.0" type="line"/>
      <point x="491.45327102803736" y="553.0373831775701" type="line"/>
      <point x="617.714953271028" y="677.2429906542056" type="line"/>
      <point x="1157.9532710280373" y="0.0" type="line"/>
    </contour>
    <contour>
      <point x="247.7347375273167" y="220.71495327102804" type="line"/>
      <point x="247.7347375273167" y="435.07813735063" type="line"/>
      <point x="884.7622866973544" y="1052.0" type="line"/>
      <point x="1105.5010926675038" y="1052.0" type="line"/>
    </contour>
  </outline>
</glyph>
<glyph name="l" format="2">
  <advance width="505.4766355140187"/>
  <unicode hex="006C"/>
  <anchor x="252.81308411214954" y="0.0" name="bottom"/>
  <anchor x="252.81308411214954" y="791.0" name="center"/>
  <anchor x="252.81308411214954" y="1536.0" name="top"/>
  <anchor x="449.6448598130841" y="1052.0" name="topright"/>
  <anchor x="252.7196261682243" y="542.0" name="yu_dash"/>
  <outline>
    <contour>
      <point x="156.0" y="0.0" type="line"/>
      <point x="156.0" y="1536.0" type="line"/>
      <point x="349.4766355140187" y="1536.0" type="line"/>
      <point x="349.4766355140187" y="0.0" type="line"/>
    </contour>
  </outline>
</glyph>
<glyph name="m" format="2">
  <advance width="1989.247663551402"/>
  <unicode hex="006D"/>
  <anchor x="990.9766355140188" y="0.0" name="bottom"/>
  <anchor x="990.9766355140188" y="1052.0" name="top"/>
  <outline>
    <contour>
      <point x="160.5" y="0.0" type="line"/>
      <point x="160.5" y="1052.0" type="line"/>
      <point x="335.9766355140187" y="1052.0" type="line"/>
      <point x="353.9766355140187" y="757.0" type="line"/>
      <point x="353.9766355140187" y="0.0" type="line"/>
    </contour>
    <contour>
      <point x="1096.7710280373833" y="681.9345794392524" type="qcurve" smooth="yes"/>
      <point x="1096.7710280373833" y="0.0" type="line"/>
      <point x="902.9766355140187" y="0.0" type="line"/>
      <point x="902.9766355140187" y="678.9800995024875" type="line" smooth="yes"/>
      <point x="902.9766355140187" y="804.9800995024876"/>
      <point x="776.9766355140187" y="913.9800995024876"/>
      <point x="661.9766355140189" y="913.9800995024876" type="qcurve" smooth="yes"/>
      <point x="555.9766355140188" y="913.9800995024876"/>
      <point x="383.4766355140187" y="795.9800995024876"/>
      <point x="263.4766355140187" y="582.9800995024875" type="qcurve"/>
      <point x="263.4766355140187" y="764.0000000000001" type="line"/>
      <point x="349.7429906542056" y="942.1682242990655"/>
      <point x="589.0233644859813" y="1072.0"/>
      <point x="713.6822429906542" y="1072.0" type="qcurve" smooth="yes"/>
      <point x="883.7897196261682" y="1072.0"/>
      <point x="1096.7710280373833" y="889.0"/>
    </contour>
    <contour>
      <point x="1026.4810294322779" y="822.9999999999999" type="line"/>
      <point x="1053.7240200864835" y="916.1121495327103"/>
      <point x="1277.5140186915887" y="1072.0"/>
      <point x="1434.4719626168223" y="1072.0" type="qcurve" smooth="yes"/>
      <point x="1629.803738317757" y="1072.0"/>
      <point x="1838.7476635514017" y="891.0"/>
      <point x="1838.7476635514017" y="679.0" type="qcurve" smooth="yes"/>
      <point x="1838.7476635514017" y="0.0" type="line"/>
      <point x="1645.271028037383" y="0.0" type="line"/>
      <point x="1645.271028037383" y="678.9800995024875" type="line" smooth="yes"/>
      <point x="1645.271028037383" y="804.9800995024876"/>
      <point x="1518.7710280373833" y="913.9800995024876"/>
      <point x="1390.271028037383" y="913.9800995024876" type="qcurve" smooth="yes"/>
      <point x="1260.271028037383" y="913.9800995024876"/>
      <point x="1070.9810294322779" y="732.9800995024875"/>
      <point x="1026.4810294322779" y="582.9800995024875" type="qcurve"/>
    </contour>
  </outline>
</glyph>
<glyph name="n" format="2">
  <advance width="1245.4532710280373"/>
  <unicode hex="006E"/>
  <anchor x="576.4766355140187" y="0.0" name="bottom"/>
  <anchor x="576.4766355140187" y="1052.0" name="top"/>
  <anchor x="918.214953271028" y="0.0" name="engtail"/>
  <outline>
    <contour>
      <point x="148.0" y="0.0" type="line"/>
      <point x="148.0" y="1052.0" type="line"/>
      <point x="323.4766355140187" y="1052.0" type="line"/>
      <point x="341.4766355140187" y="744.0" type="line"/>
      <point x="341.4766355140187" y="0.0" type="line"/>
    </contour>
    <contour>
      <point x="248.47663551401868" y="564.9751243781094" type="qcurve"/>
      <point x="248.47663551401868" y="746.0" type="line"/>
      <point x="322.98130841121497" y="918.5560747663551"/>
      <point x="560.4953271028037" y="1072.0"/>
      <point x="712.3364485981308" y="1072.0" type="qcurve" smooth="yes"/>
      <point x="892.7616822429907" y="1072.0"/>
      <point x="1107.4532710280373" y="890.6822429906542"/>
      <point x="1107.4532710280373" y="677.5420560747664" type="qcurve" smooth="yes"/>
      <point x="1107.4532710280373" y="0.0" type="line"/>
      <point x="913.9766355140187" y="0.0" type="line"/>
      <point x="913.9766355140187" y="678.9751243781094" type="line" smooth="yes"/>
      <point x="913.9766355140187" y="804.9751243781094"/>
      <point x="782.9766355140187" y="913.9800995024875"/>
      <point x="661.9766355140187" y="913.9800995024875" type="qcurve" smooth="yes"/>
      <point x="547.9766355140187" y="913.9800995024875"/>
      <point x="357.4392523364486" y="779.288208490259"/>
    </contour>
  </outline>
</glyph>
<glyph name="o" format="2">
  <advance width="1295.5140186915887"/>
  <unicode hex="006F"/>
  <anchor x="588.7196261682243" y="0.0" name="bottom"/>
  <anchor x="588.7383177570093" y="526.0" name="center"/>
  <anchor x="772.2242990654206" y="0.0" name="ogonek"/>
  <anchor x="588.7383177570093" y="1052.0" name="top"/>
  <anchor x="770.1495327102804" y="1052.0" name="topright"/>
  <anchor x="182.29906542056074" y="536.0" name="yu_dash"/>
  <outline>
    <contour>
      <point x="85.0" y="515.6308411214953" type="qcurve" smooth="yes"/>
      <point x="85.0" y="536.3130841121496" type="line" smooth="yes"/>
      <point x="85.0" y="776.9065420560747"/>
      <point x="391.22429906542055" y="1082.0"/>
      <point x="647.7757009345794" y="1082.0" type="qcurve" smooth="yes"/>
      <point x="903.7897196261682" y="1082.0"/>
      <point x="1210.5140186915887" y="776.9065420560747"/>
      <point x="1210.5140186915887" y="536.3130841121496" type="qcurve" smooth="yes"/>
      <point x="1210.5140186915887" y="515.6308411214953" type="line" smooth="yes"/>
      <point x="1210.5140186915887" y="275.0747663551402"/>
      <point x="903.7897196261682" y="-30.0"/>
      <point x="647.7757009345794" y="-30.0" type="qcurve" smooth="yes"/>
      <point x="391.22429906542055" y="-30.0"/>
      <point x="85.0" y="275.0747663551402"/>
    </contour>
    <contour>
      <point x="282.7570093457944" y="537.4253731343283" type="qcurve" smooth="yes"/>
      <point x="282.7570093457944" y="514.5696517412936" type="line" smooth="yes"/>
      <point x="282.7570093457944" y="350.31094527363183"/>
      <point x="466.7570093457944" y="123.83582089552239"/>
      <point x="647.7570093457944" y="123.83582089552239" type="qcurve" smooth="yes"/>
      <point x="828.7570093457944" y="123.83582089552239"/>
      <point x="1012.7570093457944" y="350.31094527363183"/>
      <point x="1012.7570093457944" y="514.5696517412936" type="qcurve" smooth="yes"/>
      <point x="1012.7570093457944" y="537.4253731343283" type="line" smooth="yes"/>
      <point x="1012.7570093457944" y="701.6840796019901"/>
      <point x="829.2570093457944" y="928.1592039800995"/>
      <point x="647.7570093457944" y="928.1592039800995" type="qcurve" smooth="yes"/>
      <point x="466.2570093457944" y="928.1592039800995"/>
      <point x="282.7570093457944" y="701.6840796019901"/>
    </contour>
  </outline>
</glyph>
<glyph name="p" format="2">
  <advance width="1318.2336448598132"/>
  <unicode hex="0070"/>
  <anchor x="665.2102803738318" y="0.0" name="bottom"/>
  <anchor x="661.1542056074767" y="1052.0" name="top"/>
  <outline>
    <contour>
      <point x="160.5" y="-416.00000000000006" type="line"/>
      <point x="160.5" y="1052.0" type="line"/>
      <point x="335.9766355140187" y="1052.0" type="line"/>
      <point x="343.9766355140187" y="915.0000000000001" type="line"/>
      <point x="353.9766355140187" y="915.0000000000001" type="line"/>
      <point x="353.9766355140187" y="-416.00000000000006" type="line"/>
    </contour>
    <contour>
      <point x="680.9766355140188" y="133.79601990049753" type="qcurve" smooth="yes"/>
      <point x="857.9766355140188" y="133.79601990049753"/>
      <point x="1022.9766355140187" y="350.8009950248756"/>
      <point x="1022.9766355140187" y="510.06467661691545" type="qcurve" smooth="yes"/>
      <point x="1022.9766355140187" y="541.9203980099503" type="line" smooth="yes"/>
      <point x="1022.9766355140187" y="701.1990049751245"/>
      <point x="857.9766355140188" y="918.2039800995026"/>
      <point x="680.9766355140188" y="918.2039800995026" type="qcurve" smooth="yes"/>
      <point x="514.9766355140187" y="918.2039800995026"/>
      <point x="310.9766355140187" y="697.2189054726368"/>
      <point x="310.9766355140187" y="548.8955223880597" type="qcurve" smooth="yes"/>
      <point x="310.9766355140187" y="521.0199004975125" type="line" smooth="yes"/>
      <point x="310.9766355140187" y="348.81094527363183"/>
      <point x="520.9766355140188" y="133.79601990049753"/>
    </contour>
    <contour>
      <point x="721.1168224299065" y="-20.0" type="qcurve" smooth="yes"/>
      <point x="501.5794392523365" y="-20.0"/>
      <point x="242.6869158878505" y="265.0"/>
      <point x="242.6869158878505" y="520.0" type="qcurve" smooth="yes"/>
      <point x="242.6869158878505" y="554.0000000000001" type="line" smooth="yes"/>
      <point x="242.6869158878505" y="764.8130841121496"/>
      <point x="488.9672897196262" y="1072.0"/>
      <point x="721.1168224299065" y="1072.0" type="qcurve" smooth="yes"/>
      <point x="947.7102803738318" y="1072.0"/>
      <point x="1220.733644859813" y="771.9252336448599"/>
      <point x="1220.733644859813" y="541.8878504672898" type="qcurve" smooth="yes"/>
      <point x="1220.733644859813" y="510.2242990654206" type="line" smooth="yes"/>
      <point x="1220.733644859813" y="280.13084112149534"/>
      <point x="947.7102803738318" y="-20.0"/>
    </contour>
  </outline>
</glyph>
<glyph name="q" format="2">
  <advance width="1293.233644859813"/>
  <unicode hex="0071"/>
  <anchor x="588.4953271028037" y="0.0" name="bottom"/>
  <anchor x="588.4953271028037" y="1052.0" name="top"/>
  <outline>
    <contour>
      <point x="951.7570093457944" y="-416.0" type="line"/>
      <point x="951.7570093457944" y="915.0" type="line"/>
      <point x="961.7570093457944" y="915.0" type="line"/>
      <point x="969.7570093457944" y="1052.0" type="line"/>
      <point x="1145.233644859813" y="1052.0" type="line"/>
      <point x="1145.233644859813" y="-416.0" type="line"/>
    </contour>
    <contour>
      <point x="624.7383177570093" y="133.79601990049753" type="qcurve" smooth="yes"/>
      <point x="790.7134421351187" y="133.79601990049753"/>
      <point x="994.7383177570093" y="354.78109452736317"/>
      <point x="994.7383177570093" y="503.1094527363184" type="qcurve" smooth="yes"/>
      <point x="994.7383177570093" y="530.9850746268656" type="line" smooth="yes"/>
      <point x="994.7383177570093" y="703.1890547263681"/>
      <point x="784.7631933788999" y="918.2039800995025"/>
      <point x="624.7383177570093" y="918.2039800995025" type="qcurve" smooth="yes"/>
      <point x="447.7383177570093" y="918.2039800995025"/>
      <point x="282.7383177570093" y="701.1990049751244"/>
      <point x="282.7383177570093" y="541.9203980099503" type="qcurve" smooth="yes"/>
      <point x="282.7383177570093" y="510.06467661691545" type="line" smooth="yes"/>
      <point x="282.7383177570093" y="350.80099502487565"/>
      <point x="447.7383177570093" y="133.79601990049753"/>
    </contour>
    <contour>
      <point x="585.1168224299065" y="-20.0" type="qcurve" smooth="yes"/>
      <point x="357.5233644859813" y="-20.0"/>
      <point x="85.0" y="280.0"/>
      <point x="85.0" y="510.0" type="qcurve" smooth="yes"/>
      <point x="85.0" y="542.0" type="line" smooth="yes"/>
      <point x="85.0" y="772.0"/>
      <point x="357.5233644859813" y="1072.0"/>
      <point x="585.1168224299065" y="1072.0" type="qcurve" smooth="yes"/>
      <point x="813.2289719626168" y="1072.0"/>
      <point x="1063.0280373831774" y="769.0"/>
      <point x="1063.0280373831774" y="531.0" type="qcurve" smooth="yes"/>
      <point x="1063.0280373831774" y="505.0" type="line" smooth="yes"/>
      <point x="1063.0280373831774" y="282.0"/>
      <point x="812.2102803738318" y="-20.0"/>
    </contour>
  </outline>
</glyph>
<glyph name="r" format="2">
  <advance width="796.9766355140188"/>
  <unicode hex="0072"/>
  <anchor x="364.18224299065423" y="0.0" name="bottom"/>
  <anchor x="429.5" y="1052.0" name="top"/>
  <outline>
    <contour>
      <point x="160.5" y="0.0" type="line"/>
      <point x="160.5" y="1052.0" type="line"/>
      <point x="335.9766355140187" y="1052.0" type="line"/>
      <point x="353.9766355140187" y="740.1869158878505" type="line"/>
      <point x="353.9766355140187" y="0.0" type="line"/>
    </contour>
    <contour>
      <point x="258.35981308411215" y="533.1501371646441" type="qcurve"/>
      <point x="258.35981308411215" y="723.1401869158879" type="line"/>
      <point x="358.52803738317755" y="954.6448598130842"/>
      <point x="554.4766355140188" y="1082.0"/>
      <point x="662.9766355140187" y="1082.0" type="qcurve" smooth="yes"/>
      <point x="688.4766355140188" y="1082.0"/>
      <point x="742.9766355140188" y="1072.0"/>
      <point x="754.4766355140188" y="1068.0" type="qcurve"/>
      <point x="754.4766355140188" y="894.0099502487562" type="line"/>
      <point x="731.4766355140188" y="898.0099502487562"/>
      <point x="680.9766355140188" y="902.0099502487562"/>
      <point x="650.9766355140188" y="902.0099502487562" type="qcurve" smooth="yes"/>
      <point x="536.9766355140188" y="902.0099502487562"/>
      <point x="367.2570093457944" y="778.2342493141769"/>
    </contour>
  </outline>
</glyph>
<glyph name="s" format="2">
  <advance width="1142.0700934579438"/>
  <unicode hex="0073"/>
  <anchor x="524.6775700934579" y="0.0" name="bottom"/>
  <anchor x="524.3037383177569" y="1052.0" name="top"/>
  <outline>
    <contour>
      <point x="92.5" y="310.5820895522388" type="line"/>
      <point x="284.66822429906546" y="310.5820895522388" type="line"/>
      <point x="284.66822429906546" y="305.5820895522388" type="line" smooth="yes"/>
      <point x="284.66822429906546" y="214.96033849444368"/>
      <point x="445.24659413214306" y="123.36815920398011"/>
      <point x="577.2897196261683" y="123.36815920398011" type="qcurve" smooth="yes"/>
      <point x="707.7370623517925" y="123.36815920398011"/>
      <point x="859.7491979355559" y="210.2485702329474"/>
      <point x="859.7491979355559" y="279.4428325661413" type="qcurve" smooth="yes"/>
      <point x="859.7491979355559" y="348.34421351187984"/>
      <point x="736.7653787139071" y="421.47003301250754"/>
      <point x="534.3177570093458" y="460.97196261682245" type="qcurve" smooth="yes"/>
      <point x="327.2592644255359" y="501.0346398846887"/>
      <point x="118.1728971962617" y="647.3671827777004"/>
      <point x="118.1728971962617" y="777.981308411215" type="qcurve" smooth="yes"/>
      <point x="118.1728971962617" y="909.4253963825731"/>
      <point x="356.3895010926675" y="1081.5"/>
      <point x="557.9252336448599" y="1082.0" type="qcurve" smooth="yes"/>
      <point x="778.9517598921282" y="1082.5"/>
      <point x="1007.5373831775702" y="913.5914353466314"/>
      <point x="1007.5373831775702" y="764.8233830845772" type="qcurve" smooth="yes"/>
      <point x="1007.5373831775702" y="759.8233830845771" type="line"/>
      <point x="815.1168224299066" y="759.8233830845771" type="line"/>
      <point x="815.1168224299066" y="768.823383084577" type="line" smooth="yes"/>
      <point x="815.1168224299066" y="843.725507974148"/>
      <point x="691.2773748082019" y="929.1965174129353"/>
      <point x="556.2710280373832" y="928.6965174129353" type="qcurve" smooth="yes"/>
      <point x="427.5645371274469" y="928.1965174129353"/>
      <point x="312.88543264983497" y="849.1291904961176"/>
      <point x="312.88543264983497" y="789.809201655275" type="qcurve" smooth="yes"/>
      <point x="312.88543264983497" y="730.3146649927932"/>
      <point x="445.5282233691357" y="661.9271632491747"/>
      <point x="638.8317757009346" y="622.518691588785" type="qcurve" smooth="yes"/>
      <point x="836.7582182545218" y="582.6803133863393"/>
      <point x="1049.5700934579438" y="431.6121495327103"/>
      <point x="1049.5700934579438" y="291.44392523364485" type="qcurve" smooth="yes"/>
      <point x="1049.5700934579438" y="150.52803738317758"/>
      <point x="809.0934579439253" y="-30.5"/>
      <point x="582.392523364486" y="-30.5" type="qcurve" smooth="yes"/>
      <point x="357.1584135397777" y="-30.5"/>
      <point x="92.5" y="153.1916120332915"/>
      <point x="92.5" y="305.5820895522388" type="qcurve" smooth="yes"/>
    </contour>
  </outline>
</glyph>
<glyph name="t" format="2">
  <advance width="750.9766355140187"/>
  <unicode hex="0074"/>
  <anchor x="402.29906542056074" y="0.0" name="bottom"/>
  <anchor x="328.5327102803738" y="619.0" name="center"/>
  <anchor x="328.5327102803738" y="1312.0" name="top"/>
  <anchor x="707.4766355140187" y="1052.0" name="topright"/>
  <outline>
    <contour>
      <point x="0.0" y="908.0099502487562" type="line"/>
      <point x="0.0" y="1052.0" type="line"/>
      <point x="700.9766355140187" y="1052.0" type="line"/>
      <point x="700.9766355140187" y="908.0099502487562" type="line"/>
    </contour>
    <contour>
      <point x="235.0" y="277.7383177570093" type="qcurve" smooth="yes"/>
      <point x="235.0" y="966.0" type="line"/>
      <point x="235.0" y="996.0" type="line"/>
      <point x="235.0" y="1312.0" type="line"/>
      <point x="428.4766355140187" y="1312.0" type="line"/>
      <point x="428.4766355140187" y="273.14179104477614" type="line" smooth="yes"/>
      <point x="428.4766355140187" y="197.1417910447761"/>
      <point x="504.4766355140187" y="131.6417910447761"/>
      <point x="569.9766355140187" y="131.6417910447761" type="qcurve" smooth="yes"/>
      <point x="600.4766355140187" y="131.6417910447761"/>
      <point x="669.4766355140187" y="144.6417910447761"/>
      <point x="699.9766355140187" y="155.6417910447761" type="qcurve"/>
      <point x="699.9766355140187" y="1.5" type="line"/>
      <point x="672.9766355140187" y="-11.0"/>
      <point x="566.9205607476636" y="-30.0"/>
      <point x="512.7383177570093" y="-30.0" type="qcurve" smooth="yes"/>
      <point x="390.36915887850466" y="-30.0"/>
      <point x="235.0" y="119.05607476635514"/>
    </contour>
  </outline>
</glyph>
<glyph name="u" format="2">
  <advance width="1245.4532710280373"/>
  <unicode hex="0075"/>
  <anchor x="576.2897196261682" y="0.0" name="bottom"/>
  <anchor x="995.1401869158879" y="0.0" name="ogonek"/>
  <anchor x="576.2897196261682" y="1052.0" name="top"/>
  <anchor x="914.8317757009346" y="1052.0" name="topright"/>
  <anchor x="913.7850467289719" y="0.0" name="cy_descender"/>
  <outline>
    <contour>
      <point x="514.9205607476636" y="-20.0" type="qcurve" smooth="yes"/>
      <point x="328.85046728971963" y="-20.0"/>
      <point x="138.0" y="161.0"/>
      <point x="138.0" y="373.0" type="qcurve" smooth="yes"/>
      <point x="138.0" y="1052.0" type="line"/>
      <point x="331.4766355140187" y="1052.0" type="line"/>
      <point x="331.4766355140187" y="373.0199004975124" type="line" smooth="yes"/>
      <point x="331.4766355140187" y="247.01990049751242"/>
      <point x="462.9766355140187" y="138.01990049751242"/>
      <point x="583.4766355140187" y="138.01990049751242" type="qcurve" smooth="yes"/>
      <point x="687.9293020876923" y="138.01990049751242"/>
      <point x="861.432301111266" y="246.1648998000651"/>
      <point x="996.9529688008555" y="459.7892314130283" type="qcurve"/>
      <point x="997.0476356535082" y="281.91133119449484" type="line"/>
      <point x="887.5828799925605" y="100.62433161296322"/>
      <point x="640.942855814386" y="-20.0"/>
    </contour>
    <contour>
      <point x="921.9766355140187" y="0.0" type="line"/>
      <point x="903.9766355140187" y="258.272004463663" type="line"/>
      <point x="903.9766355140187" y="1052.0" type="line"/>
      <point x="1097.4532710280373" y="1052.0" type="line"/>
      <point x="1097.4532710280373" y="0.0" type="line"/>
    </contour>
  </outline>
</glyph>
<glyph name="v" format="2">
  <advance width="1114.5140186915887"/>
  <unicode hex="0076"/>
  <anchor x="549.5373831775701" y="0.0" name="bottom"/>
  <anchor x="549.5373831775701" y="1052.0" name="top"/>
  <outline>
    <contour>
      <point x="12.5" y="1052.0" type="line"/>
      <point x="203.0373831775701" y="1052.0" type="line"/>
      <point x="520.5373831775701" y="324.5" type="line" smooth="yes"/>
      <point x="537.5373831775702" y="285.0"/>
      <point x="553.5373831775702" y="219.5"/>
      <point x="557.5373831775701" y="194.50000000000003" type="qcurve"/>
      <point x="563.5373831775702" y="194.50000000000003" type="line"/>
      <point x="567.5373831775702" y="219.5"/>
      <point x="584.5373831775702" y="285.0"/>
      <point x="600.5373831775701" y="324.5" type="qcurve" smooth="yes"/>
      <point x="916.0373831775702" y="1052.0" type="line"/>
      <point x="1102.0140186915887" y="1052.0" type="line"/>
      <point x="636.0140186915888" y="0.0" type="line"/>
      <point x="478.5" y="0.0" type="line"/>
    </contour>
  </outline>
</glyph>
<glyph name="w" format="2">
  <advance width="1807.0467289719627"/>
  <unicode hex="0077"/>
  <anchor x="782.588785046729" y="0.0" name="bottom"/>
  <anchor x="782.588785046729" y="1052.0" name="top"/>
  <outline>
    <contour>
      <point x="25.0" y="1052.0" type="line"/>
      <point x="212.86915887850466" y="1052.0" type="line"/>
      <point x="471.86915887850466" y="325.0" type="line" smooth="yes"/>
      <point x="485.36915887850466" y="285.5"/>
      <point x="495.86915887850466" y="235.0"/>
      <point x="503.86915887850466" y="195.0" type="qcurve"/>
      <point x="509.86915887850466" y="195.0" type="line"/>
      <point x="517.8691588785047" y="235.0"/>
      <point x="529.8691588785047" y="285.5"/>
      <point x="543.8691588785047" y="325.0" type="qcurve" smooth="yes"/>
      <point x="822.8691588785047" y="1052.0" type="line"/>
      <point x="994.5700934579439" y="1052.0" type="line"/>
      <point x="1280.5700934579438" y="325.0" type="line" smooth="yes"/>
      <point x="1296.0700934579438" y="285.5"/>
      <point x="1307.5700934579438" y="235.0"/>
      <point x="1315.5700934579438" y="195.0" type="qcurve"/>
      <point x="1321.5700934579438" y="195.0" type="line"/>
      <point x="1329.5700934579438" y="235.0"/>
      <point x="1338.6822429906542" y="285.48130841121497"/>
      <point x="1351.5700934579438" y="325.0" type="qcurve" smooth="yes"/>
      <point x="1603.5700934579438" y="1052.0" type="line"/>
      <point x="1782.0467289719627" y="1052.0" type="line"/>
      <point x="1392.0467289719627" y="0.0" type="line"/>
      <point x="1231.3457943925234" y="0.0" type="line"/>
      <point x="952.3457943925233" y="705.0" type="line" smooth="yes"/>
      <point x="937.3457943925233" y="744.0"/>
      <point x="916.3457943925233" y="825.0"/>
      <point x="906.3457943925233" y="865.0" type="qcurve"/>
      <point x="900.3457943925233" y="865.0" type="line"/>
      <point x="890.3457943925233" y="825.0"/>
      <point x="869.4392523364486" y="744.4626168224299"/>
      <point x="854.3457943925233" y="705.0" type="qcurve" smooth="yes"/>
      <point x="575.3457943925234" y="0.0" type="line"/>
      <point x="415.0" y="0.0" type="line"/>
    </contour>
  </outline>
</glyph>
<glyph name="x" format="2">
  <advance width="1092.9719626168226"/>
  <unicode hex="0078"/>
  <anchor x="489.0" y="0.0" name="bottom"/>
  <anchor x="497.5981308411215" y="1052.0" name="top"/>
  <anchor x="773.8411214953271" y="0.0" name="cy_descender"/>
  <outline>
    <contour>
      <point x="20.0" y="0.0" type="line"/>
      <point x="480.93457943925233" y="582.0" type="line"/>
      <point x="494.9299065420561" y="582.0" type="line"/>
      <point x="837.3644859813085" y="1052.0" type="line"/>
      <point x="1052.9719626168226" y="1052.0" type="line"/>
      <point x="615.0373831775701" y="484.0" type="line"/>
      <point x="601.0420560747664" y="484.0" type="line"/>
      <point x="235.60747663551402" y="0.0" type="line"/>
    </contour>
    <contour>
      <point x="40.0" y="1052.0" type="line"/>
      <point x="261.97196261682245" y="1052.0" type="line"/>
      <point x="603.1168224299065" y="582.5420560747664" type="line"/>
      <point x="612.6168224299065" y="582.5420560747664" type="line"/>
      <point x="1072.9719626168226" y="0.0" type="line"/>
      <point x="851.0" y="0.0" type="line"/>
      <point x="486.22429906542055" y="483.60747663551405" type="line"/>
      <point x="477.22429906542055" y="483.60747663551405" type="line"/>
    </contour>
  </outline>
</glyph>
<glyph name="y" format="2">
  <advance width="1066.0747663551401"/>
  <unicode hex="0079"/>
  <anchor x="844.9439252336449" y="0.0" name="bottom"/>
  <anchor x="556.3738317757009" y="1052.0" name="top"/>
  <outline>
    <contour>
      <point x="95.1214953271028" y="-415.68224299065423" type="qcurve"/>
      <point x="95.1214953271028" y="-255.81308411214954" type="line"/>
      <point x="121.34579439252336" y="-263.85046728971963"/>
      <point x="187.1214953271028" y="-274.13084112149534"/>
      <point x="224.55140186915887" y="-274.13084112149534" type="qcurve" smooth="yes"/>
      <point x="296.21495327102804" y="-274.13084112149534"/>
      <point x="410.0093457943925" y="-169.3551401869159"/>
      <point x="469.41121495327104" y="4.0" type="qcurve"/>
      <point x="461.0" y="4.981308411214953" type="line"/>
      <point x="10.0" y="1052.0" type="line"/>
      <point x="202.91121495327104" y="1052.0" type="line"/>
      <point x="499.91121495327104" y="348.5" type="line" smooth="yes"/>
      <point x="516.411214953271" y="308.5"/>
      <point x="541.411214953271" y="238.5"/>
      <point x="550.411214953271" y="208.5" type="qcurve"/>
      <point x="556.411214953271" y="208.5" type="line"/>
      <point x="566.911214953271" y="238.5"/>
      <point x="592.892523364486" y="308.51869158878503"/>
      <point x="608.411214953271" y="348.5" type="qcurve" smooth="yes"/>
      <point x="881.411214953271" y="1052.0" type="line"/>
      <point x="1065.8878504672898" y="1052.0" type="line"/>
      <point x="595.4672897196261" y="-138.3177570093458" type="line" smooth="yes"/>
      <point x="540.1495327102804" y="-279.1775700934579"/>
      <point x="359.31775700934577" y="-436.0"/>
      <point x="234.51401869158877" y="-436.0" type="qcurve" smooth="yes"/>
      <point x="187.51401869158877" y="-436.0"/>
      <point x="123.1214953271028" y="-425.68224299065423"/>
    </contour>
  </outline>
</glyph>
<glyph name="z" format="2">
  <advance width="1123.556074766355"/>
  <unicode hex="007A"/>
  <anchor x="505.92056074766356" y="0.0" name="bottom"/>
  <anchor x="505.92056074766356" y="1052.0" name="top"/>
  <outline>
    <contour>
      <point x="82.5" y="0.0" type="line"/>
      <point x="82.5" y="139.14297670525875" type="line"/>
      <point x="763.4252336448598" y="898.5522388059701" type="line"/>
      <point x="90.5" y="898.5522388059701" type="line"/>
      <point x="90.5" y="1052.0" type="line"/>
      <point x="1012.5262240200866" y="1052.0" type="line"/>
      <point x="1012.5262240200866" y="917.5522388059702" type="line"/>
      <point x="312.5620728135026" y="153.50248756218903" type="line"/>
      <point x="1047.056074766355" y="153.50248756218903" type="line"/>
      <point x="1047.056074766355" y="0.0" type="line"/>
    </contour>
  </outline>
</glyph>
<glyph name="braceleft" format="2">
  <advance width="707.4766355140187"/>
  <unicode hex="007B"/>
  <outline>
    <contour>
      <point x="677.4766355140187" y="-312.0" type="line"/>
      <point x="447.7383177570093" y="-312.0"/>
      <point x="189.07476635514018" y="-31.77570093457944"/>
      <point x="226.48598130841123" y="125.01869158878505" type="qcurve" smooth="yes"/>
      <point x="275.7570093457944" y="332.95327102803736" type="line" smooth="yes"/>
      <point x="300.7223229646162" y="439.73357511507885"/>
      <point x="176.06467661691542" y="507.25373134328356"/>
      <point x="64.0" y="507.25373134328356" type="qcurve"/>
      <point x="64.0" y="640.7462686567164" type="line"/>
      <point x="176.06467661691542" y="640.7462686567164"/>
      <point x="300.8157809085414" y="707.7430603989399"/>
      <point x="275.7943925233645" y="814.8411214953271" type="qcurve" smooth="yes"/>
      <point x="226.50467289719626" y="1022.8317757009346" type="line" smooth="yes"/>
      <point x="189.0373831775701" y="1179.7570093457944"/>
      <point x="447.7383177570093" y="1460.0"/>
      <point x="677.4766355140187" y="1460.0" type="qcurve"/>
      <point x="677.4766355140187" y="1312.7064676616915" type="line"/>
      <point x="529.4567350165062" y="1312.7064676616915"/>
      <point x="390.60101362347143" y="1145.4825870646766"/>
      <point x="419.4766355140187" y="1025.0" type="qcurve" smooth="yes"/>
      <point x="469.10280373831773" y="815.588785046729" type="line" smooth="yes"/>
      <point x="489.3644859813084" y="730.4859813084112"/>
      <point x="415.607476635514" y="600.0"/>
      <point x="315.7383177570093" y="574.0" type="qcurve"/>
      <point x="415.607476635514" y="548.0"/>
      <point x="489.3457943925234" y="417.4392523364486"/>
      <point x="469.10280373831773" y="332.41121495327104" type="qcurve" smooth="yes"/>
      <point x="419.4766355140187" y="123.0" type="line" smooth="yes"/>
      <point x="390.60101362347143" y="2.517412935323383"/>
      <point x="529.4567350165062" y="-164.70646766169153"/>
      <point x="677.4766355140187" y="-164.70646766169153" type="qcurve"/>
    </contour>
  </outline>
</glyph>
<glyph name="braceright" format="2">
  <advance width="732.4766355140188"/>
  <unicode hex="007D"/>
  <outline>
    <contour>
      <point x="42.50000000000001" y="-312.0" type="qcurve"/>
      <point x="42.50000000000001" y="-164.70646766169156" type="line"/>
      <point x="190.51990049751245" y="-164.70646766169156"/>
      <point x="329.3756218905473" y="2.5174129353233834"/>
      <point x="300.50000000000006" y="123.0" type="qcurve" smooth="yes"/>
      <point x="250.87383177570095" y="332.3738317757009" type="line" smooth="yes"/>
      <point x="230.59345794392527" y="417.51401869158883"/>
      <point x="305.09813084112153" y="548.0934579439252"/>
      <point x="404.23831775700944" y="574.0" type="qcurve"/>
      <point x="304.94859813084116" y="599.7383177570093"/>
      <point x="230.5747663551402" y="730.2429906542056"/>
      <point x="250.8551401869159" y="815.4579439252336" type="qcurve" smooth="yes"/>
      <point x="300.50000000000006" y="1025.0" type="line" smooth="yes"/>
      <point x="329.3756218905473" y="1145.4825870646766"/>
      <point x="190.51990049751245" y="1312.7064676616917"/>
      <point x="42.50000000000001" y="1312.7064676616917" type="qcurve"/>
      <point x="42.50000000000001" y="1460.0000000000002" type="line"/>
      <point x="273.09813084112153" y="1460.0000000000002"/>
      <point x="530.9766355140188" y="1180.0"/>
      <point x="493.64018691588785" y="1023.5607476635514" type="qcurve" smooth="yes"/>
      <point x="444.14485981308417" y="814.6542056074766" type="line" smooth="yes"/>
      <point x="419.08608825033707" y="707.4626865671642"/>
      <point x="543.35618635793" y="640.7462686567164"/>
      <point x="655.9766355140188" y="640.7462686567164" type="qcurve"/>
      <point x="655.9766355140188" y="507.2537313432836" type="line"/>
      <point x="543.3512112335519" y="507.2537313432836"/>
      <point x="419.08608825033707" y="440.53731343283584"/>
      <point x="444.126168224299" y="333.3457943925234" type="qcurve" smooth="yes"/>
      <point x="493.6588785046729" y="124.3644859813084" type="line" smooth="yes"/>
      <point x="530.9766355140188" y="-32.0"/>
      <point x="273.47196261682245" y="-312.0"/>
    </contour>
  </outline>
</glyph>
<glyph name="asciitilde" format="2">
  <advance width="1024.0"/>
  <unicode hex="007E"/>
  <outline>
    <contour>
      <point x="45.0" y="531.3532338308457" type="qcurve"/>
      <point x="45.0" y="734.6467661691543" type="line"/>
      <point x="92.0" y="785.6467661691543"/>
      <point x="224.0" y="842.6467661691543"/>
      <point x="289.0" y="843.6467661691543" type="qcurve" smooth="yes"/>
      <point x="368.0" y="844.6467661691543"/>
      <point x="460.0" y="801.6467661691543"/>
      <point x="523.0" y="770.6467661691543" type="qcurve" smooth="yes"/>
      <point x="582.0" y="740.6467661691543"/>
      <point x="667.0" y="701.6467661691543"/>
      <point x="741.0" y="701.6467661691543" type="qcurve" smooth="yes"/>
      <point x="806.0" y="701.6467661691543"/>
      <point x="931.0" y="769.6467661691543"/>
      <point x="978.0" y="829.6467661691543" type="qcurve"/>
      <point x="978.0" y="625.3532338308457" type="line"/>
      <point x="931.0" y="574.3532338308457"/>
      <point x="807.0" y="516.3532338308457"/>
      <point x="742.0" y="516.3532338308457" type="qcurve" smooth="yes"/>
      <point x="668.0" y="516.3532338308457"/>
      <point x="583.0" y="555.3532338308457"/>
      <point x="524.0" y="585.3532338308457" type="qcurve" smooth="yes"/>
      <point x="461.0" y="616.3532338308457"/>
      <point x="368.0" y="658.3532338308457"/>
      <point x="289.0" y="658.3532338308457" type="qcurve" smooth="yes"/>
      <point x="224.0" y="658.3532338308457"/>
      <point x="92.0" y="591.3532338308457"/>
    </contour>
  </outline>
</glyph>
<glyph name="exclamdown" format="2">
  <advance width="627.1401869158879"/>
  <unicode hex="00A1"/>
  <outline>
    <contour>
      <point x="441.14018691588785" y="1049.6915887850466" type="qcurve" smooth="yes"/>
      <point x="441.14018691588785" y="999.2710280373832"/>
      <point x="375.2897196261682" y="927.2523364485982"/>
      <point x="313.5700934579439" y="927.2523364485982" type="qcurve" smooth="yes"/>
      <point x="251.83177570093457" y="927.2523364485982"/>
      <point x="186.0" y="999.2710280373832"/>
      <point x="186.0" y="1049.6915887850466" type="qcurve" smooth="yes"/>
      <point x="186.0" y="1100.0934579439252"/>
      <point x="251.83177570093457" y="1172.1121495327102"/>
      <point x="313.5700934579439" y="1172.1121495327102" type="qcurve" smooth="yes"/>
      <point x="375.2897196261682" y="1172.1121495327102"/>
      <point x="441.14018691588785" y="1100.0934579439252"/>
    </contour>
    <contour>
      <point x="395.5700934579439" y="736.6168224299065" type="line"/>
      <point x="414.30841121495325" y="-306.4485981308411" type="line"/>
      <point x="212.83177570093457" y="-306.4485981308411" type="line"/>
      <point x="231.57009345794393" y="736.6168224299065" type="line"/>
    </contour>
  </outline>
</glyph>
<glyph name="sterling" format="2">
  <advance width="1038.9532710280373"/>
  <unicode hex="00A3"/>
  <outline>
    <contour>
      <point x="1042.9532710280373" y="0.0" type="line"/>
      <point x="36.0" y="0.0" type="line"/>
      <point x="36.0" y="160.0" type="line"/>
      <point x="92.0" y="160.0" type="line" smooth="yes"/>
      <point x="184.0" y="160.0"/>
      <point x="264.0" y="324.0"/>
      <point x="250.0" y="467.0" type="qcurve" smooth="yes"/>
      <point x="195.0" y="1039.0" type="line" smooth="yes"/>
      <point x="177.0" y="1228.0"/>
      <point x="383.7383177570093" y="1476.0"/>
      <point x="588.4766355140187" y="1476.0" type="qcurve" smooth="yes"/>
      <point x="782.214953271028" y="1476.0"/>
      <point x="998.9532710280374" y="1270.0"/>
      <point x="998.9532710280374" y="1103.0" type="qcurve" smooth="yes"/>
      <point x="998.9532710280374" y="1087.0" type="line"/>
      <point x="799.4766355140187" y="1087.0" type="line"/>
      <point x="799.4766355140187" y="1103.0" type="line" smooth="yes"/>
      <point x="799.4766355140187" y="1218.0"/>
      <point x="682.4766355140187" y="1309.0"/>
      <point x="590.4766355140187" y="1309.0" type="qcurve" smooth="yes"/>
      <point x="493.4766355140187" y="1309.0"/>
      <point x="376.4766355140187" y="1185.0"/>
      <point x="390.4766355140187" y="1039.0" type="qcurve" smooth="yes"/>
      <point x="441.1588785046729" y="511.21495327102804" type="line" smooth="yes"/>
      <point x="454.2897196261682" y="373.8878504672897"/>
      <point x="397.9065420560748" y="207.16822429906543"/>
      <point x="324.803738317757" y="166.0" type="qcurve"/>
      <point x="1042.9532710280373" y="166.0" type="line"/>
    </contour>
    <contour>
      <point x="838.9532710280374" y="625.0" type="line"/>
      <point x="52.0" y="625.0" type="line"/>
      <point x="52.0" y="780.0" type="line"/>
      <point x="838.9532710280374" y="780.0" type="line"/>
    </contour>
  </outline>
</glyph>
<glyph name="currency" format="2">
  <advance width="1186.7383177570093"/>
  <unicode hex="00A4"/>
  <guideline y="901.0000000000001" identifier="bRYxxRaQQf"/>
  <guideline y="555.0000000000001" identifier="917FhrihjR"/>
  <outline>
    <contour>
      <point x="275.3691588785047" y="712.0000000000001" type="qcurve"/>
      <point x="275.3691588785047" y="567.0"/>
      <point x="459.36915887850466" y="373.0"/>
      <point x="590.3691588785048" y="373.0" type="qcurve" smooth="yes"/>
      <point x="720.3691588785048" y="373.0"/>
      <point x="903.3691588785048" y="567.0"/>
      <point x="903.3691588785048" y="712.0000000000001" type="qcurve" smooth="yes"/>
      <point x="903.3691588785048" y="855.0"/>
      <point x="720.3691588785048" y="1049.0"/>
      <point x="590.3691588785048" y="1049.0" type="qcurve" smooth="yes"/>
      <point x="459.36915887850466" y="1049.0"/>
      <point x="275.3691588785047" y="855.0"/>
    </contour>
    <contour>
      <point x="90.1822429906542" y="718.0" type="qcurve"/>
      <point x="90.1822429906542" y="933.9532710280374"/>
      <point x="387.4906542056074" y="1227.2242990654208"/>
      <point x="589.3691588785047" y="1227.2242990654208" type="qcurve" smooth="yes"/>
      <point x="791.247663551402" y="1227.2242990654208"/>
      <point x="1088.556074766355" y="933.9532710280374"/>
      <point x="1088.556074766355" y="718.0" type="qcurve" smooth="yes"/>
      <point x="1088.556074766355" y="503.06542056074767"/>
      <point x="791.247663551402" y="206.77570093457945"/>
      <point x="589.3691588785047" y="206.77570093457945" type="qcurve" smooth="yes"/>
      <point x="387.4906542056074" y="206.77570093457945"/>
      <point x="90.1822429906542" y="503.06542056074767"/>
    </contour>
    <contour>
      <point x="1135.2383177570096" y="1177.8691588785045" type="line"/>
      <point x="931.9299065420562" y="970.5607476635514" type="line"/>
      <point x="809.9299065420562" y="1097.5607476635516" type="line"/>
      <point x="1013.2383177570094" y="1304.8691588785048" type="line"/>
    </contour>
    <contour>
      <point x="348.8084112149533" y="353.4392523364486" type="line"/>
      <point x="145.50000000000003" y="146.13084112149534" type="line"/>
      <point x="24.5" y="272.13084112149534" type="line"/>
      <point x="227.80841121495328" y="478.43925233644853" type="line"/>
    </contour>
    <contour>
      <point x="1039.2383177570093" y="153.1308411214953" type="line"/>
      <point x="835.9299065420561" y="360.43925233644865" type="line"/>
      <point x="958.9299065420562" y="486.43925233644865" type="line"/>
      <point x="1162.2383177570093" y="280.13084112149534" type="line"/>
    </contour>
    <contour>
      <point x="244.80841121495328" y="984.5607476635514" type="line"/>
      <point x="41.5" y="1191.8691588785048" type="line"/>
      <point x="162.5" y="1317.8691588785045" type="line"/>
      <point x="365.80841121495325" y="1110.5607476635516" type="line"/>
    </contour>
  </outline>
</glyph>
<glyph name="yen" format="2">
  <advance width="1056.4766355140189"/>
  <unicode hex="00A5"/>
  <outline>
    <contour>
      <point x="55.50000000000001" y="303.00000000000006" type="line"/>
      <point x="55.50000000000001" y="462.0" type="line"/>
      <point x="1008.9766355140188" y="462.0" type="line"/>
      <point x="1008.9766355140188" y="303.00000000000006" type="line"/>
    </contour>
    <contour>
      <point x="55.50000000000001" y="628.0" type="line"/>
      <point x="55.50000000000001" y="788.0" type="line"/>
      <point x="428.9766355140187" y="788.0" type="line"/>
      <point x="481.9766355140187" y="669.0000000000001" type="line"/>
      <point x="590.9766355140188" y="669.0000000000001" type="line"/>
      <point x="638.9766355140187" y="788.0" type="line"/>
      <point x="1008.9766355140188" y="788.0" type="line"/>
      <point x="1008.9766355140188" y="628.0" type="line"/>
    </contour>
    <contour>
      <point x="432.50000000000006" y="0.0" type="line"/>
      <point x="432.50000000000006" y="548.0" type="line"/>
      <point x="-22.5" y="1456.0" type="line"/>
      <point x="193.97663551401868" y="1456.0" type="line"/>
      <point x="469.9766355140187" y="849.0" type="line" smooth="yes"/>
      <point x="483.97663551401865" y="819.0000000000001"/>
      <point x="516.9766355140188" y="716.0"/>
      <point x="523.9766355140187" y="679.0" type="qcurve"/>
      <point x="543.9766355140187" y="679.0" type="line"/>
      <point x="552.9766355140188" y="735.0"/>
      <point x="583.9766355140187" y="819.0000000000001"/>
      <point x="597.9766355140187" y="849.0" type="qcurve" smooth="yes"/>
      <point x="877.9766355140188" y="1456.0" type="line"/>
      <point x="1078.9766355140187" y="1456.0" type="line"/>
      <point x="623.9766355140187" y="548.0" type="line"/>
      <point x="623.9766355140187" y="0.0" type="line"/>
    </contour>
  </outline>
</glyph>
<glyph name="section" format="2">
  <advance width="1281.0"/>
  <unicode hex="00A7"/>
  <guideline y="1658.0" identifier="QzZ5gIiCyn"/>
  <guideline y="577.9999999999999" identifier="9Hxjf2sdFw"/>
  <outline>
    <contour>
      <point x="703.5000000000001" y="133.00000000000003" type="qcurve"/>
      <point x="703.5000000000001" y="252.00000000000003" type="line"/>
      <point x="813.5" y="252.00000000000003"/>
      <point x="966.5000000000001" y="376.00000000000006"/>
      <point x="966.5000000000001" y="463.0" type="qcurve"/>
      <point x="966.5000000000001" y="556.0"/>
      <point x="799.5000000000001" y="672.0"/>
      <point x="618.5000000000001" y="734.0" type="qcurve" smooth="yes"/>
      <point x="425.50000000000006" y="794.0"/>
      <point x="208.5" y="949.0"/>
      <point x="208.5" y="1129.0" type="qcurve" smooth="yes"/>
      <point x="208.5" y="1305.0"/>
      <point x="433.5" y="1490.0000000000002"/>
      <point x="635.5" y="1491.0" type="qcurve" smooth="yes"/>
      <point x="828.5000000000001" y="1492.0"/>
      <point x="1052.5" y="1294.0000000000002"/>
      <point x="1051.5" y="1100.0" type="qcurve"/>
      <point x="886.5" y="1100.0" type="line"/>
      <point x="887.5" y="1200.0"/>
      <point x="756.5000000000001" y="1337.0"/>
      <point x="635.5" y="1337.0" type="qcurve" smooth="yes"/>
      <point x="495.50000000000006" y="1337.0"/>
      <point x="373.50000000000006" y="1239.0000000000002"/>
      <point x="373.50000000000006" y="1140.0" type="qcurve" smooth="yes"/>
      <point x="373.50000000000006" y="1049.0"/>
      <point x="496.5" y="961.0"/>
      <point x="696.5" y="897.0" type="qcurve" smooth="yes"/>
      <point x="880.5" y="839.0000000000001"/>
      <point x="1147.5" y="652.0"/>
      <point x="1147.5" y="478.00000000000006" type="qcurve" smooth="yes"/>
      <point x="1147.5" y="315.0"/>
      <point x="882.5" y="133.00000000000003"/>
    </contour>
    <contour>
      <point x="549.5" y="894.0" type="qcurve"/>
      <point x="548.5" y="756.0000000000001" type="line"/>
      <point x="437.5" y="756.0000000000001"/>
      <point x="313.50000000000006" y="649.0000000000001"/>
      <point x="313.50000000000006" y="567.0" type="qcurve" smooth="yes"/>
      <point x="313.50000000000006" y="487.00000000000006"/>
      <point x="459.5" y="387.0"/>
      <point x="648.5000000000001" y="317.0" type="qcurve" smooth="yes"/>
      <point x="824.5" y="252.00000000000003"/>
      <point x="1060.5" y="66.0"/>
      <point x="1060.5" y="-113.00000000000001" type="qcurve" smooth="yes"/>
      <point x="1060.5" y="-298.00000000000006"/>
      <point x="806.5" y="-509.0"/>
      <point x="611.4999999999999" y="-509.0" type="qcurve" smooth="yes"/>
      <point x="416.5" y="-509.0"/>
      <point x="143.5" y="-303.00000000000006"/>
      <point x="143.5" y="-72.00000000000001" type="qcurve"/>
      <point x="307.5" y="-70.0" type="line"/>
      <point x="307.5" y="-230.00000000000003"/>
      <point x="505.50000000000006" y="-355.00000000000006"/>
      <point x="611.4999999999999" y="-355.00000000000006" type="qcurve" smooth="yes"/>
      <point x="728.5" y="-355.00000000000006"/>
      <point x="896.4999999999999" y="-244.00000000000003"/>
      <point x="896.4999999999999" y="-136.00000000000003" type="qcurve" smooth="yes"/>
      <point x="896.4999999999999" y="-35.0"/>
      <point x="754.5" y="94.00000000000001"/>
      <point x="552.5" y="161.0" type="qcurve" smooth="yes"/>
      <point x="367.50000000000006" y="222.0"/>
      <point x="131.5" y="420.00000000000006"/>
      <point x="131.5" y="577.0" type="qcurve" smooth="yes"/>
      <point x="131.5" y="727.0"/>
      <point x="387.5" y="894.0"/>
    </contour>
  </outline>
</glyph>
<glyph name="copyright" format="2">
  <advance width="1654.0"/>
  <unicode hex="00A9"/>
  <guideline y="901.0" identifier="0Pjz0qKr8z"/>
  <guideline y="555.0" identifier="sJo8BlDiJ7"/>
  <outline>
    <contour>
      <point x="1029.4392523364486" y="546.0" type="qcurve"/>
      <point x="1213.6822429906542" y="546.0" type="line"/>
      <point x="1213.6822429906542" y="375.0"/>
      <point x="978.0841121495328" y="205.0"/>
      <point x="813.0" y="205.0" type="qcurve" smooth="yes"/>
      <point x="641.2336448598131" y="205.0"/>
      <point x="416.94392523364485" y="437.5607476635514"/>
      <point x="416.94392523364485" y="664.0" type="qcurve" smooth="yes"/>
      <point x="416.94392523364485" y="703.0" type="line" smooth="yes"/>
      <point x="416.94392523364485" y="930.4392523364486"/>
      <point x="642.2336448598131" y="1170.0"/>
      <point x="830.0" y="1170.0" type="qcurve" smooth="yes"/>
      <point x="1017.9532710280374" y="1170.0"/>
      <point x="1214.6822429906542" y="983.0"/>
      <point x="1214.6822429906542" y="829.0" type="qcurve"/>
      <point x="1030.4392523364486" y="829.0" type="line"/>
      <point x="1030.4392523364486" y="917.0"/>
      <point x="928.0" y="1006.0"/>
      <point x="829.0" y="1006.0" type="qcurve" smooth="yes"/>
      <point x="722.0" y="1006.0"/>
      <point x="612.5607476635514" y="868.0"/>
      <point x="612.5607476635514" y="747.0" type="qcurve" smooth="yes"/>
      <point x="612.5607476635514" y="621.0" type="line" smooth="yes"/>
      <point x="612.5607476635514" y="499.0"/>
      <point x="731.0" y="362.0"/>
      <point x="838.0" y="362.0" type="qcurve" smooth="yes"/>
      <point x="937.0" y="362.0"/>
      <point x="1029.4392523364486" y="457.0"/>
    </contour>
    <contour>
      <point x="186.0" y="687.0" type="qcurve" smooth="yes"/>
      <point x="186.0" y="400.0"/>
      <point x="563.0" y="4.0"/>
      <point x="828.0" y="4.0" type="qcurve" smooth="yes"/>
      <point x="1092.0" y="4.0"/>
      <point x="1469.0" y="400.0"/>
      <point x="1469.0" y="687.0" type="qcurve" smooth="yes"/>
      <point x="1469.0" y="975.0"/>
      <point x="1092.0" y="1367.0"/>
      <point x="828.0" y="1367.0" type="qcurve" smooth="yes"/>
      <point x="563.0" y="1367.0"/>
      <point x="186.0" y="975.0"/>
    </contour>
    <contour>
      <point x="38.0" y="687.0" type="qcurve" smooth="yes"/>
      <point x="38.0" y="1039.0"/>
      <point x="501.0" y="1519.0"/>
      <point x="827.0" y="1519.0" type="qcurve" smooth="yes"/>
      <point x="1152.0" y="1519.0"/>
      <point x="1616.0" y="1039.0"/>
      <point x="1616.0" y="687.0" type="qcurve" smooth="yes"/>
      <point x="1616.0" y="337.0"/>
      <point x="1152.0" y="-147.0"/>
      <point x="827.0" y="-147.0" type="qcurve" smooth="yes"/>
      <point x="501.0" y="-147.0"/>
      <point x="38.0" y="337.0"/>
    </contour>
  </outline>
</glyph>
<glyph name="ordfeminine" format="2">
  <advance width="927.214953271028"/>
  <unicode hex="00AA"/>
  <guideline y="1681.0" identifier="3CJlALCfkl"/>
  <guideline y="909.0" identifier="Zdl6NZVQAy"/>
  <outline>
    <contour>
      <point x="611.607476635514" y="862.0" type="line"/>
      <point x="611.607476635514" y="821.0"/>
      <point x="631.607476635514" y="736.0"/>
      <point x="654.607476635514" y="706.0" type="qcurve"/>
      <point x="795.214953271028" y="706.0" type="line"/>
      <point x="781.214953271028" y="749.0"/>
      <point x="769.214953271028" y="838.0"/>
      <point x="769.214953271028" y="887.0" type="qcurve" smooth="yes"/>
      <point x="769.214953271028" y="1199.6355140186915" type="line" smooth="yes"/>
      <point x="769.214953271028" y="1337.5327102803737"/>
      <point x="608.7757009345794" y="1477.0"/>
      <point x="469.6448598130841" y="1477.0" type="qcurve" smooth="yes"/>
      <point x="338.9065420560748" y="1477.0"/>
      <point x="165.16822429906543" y="1356.0"/>
      <point x="165.0373831775701" y="1261.0" type="qcurve" smooth="yes"/>
      <point x="165.0" y="1234.0" type="line"/>
      <point x="325.607476635514" y="1234.0" type="line"/>
      <point x="325.607476635514" y="1247.0" type="line" smooth="yes"/>
      <point x="325.607476635514" y="1292.0"/>
      <point x="400.607476635514" y="1346.0"/>
      <point x="471.607476635514" y="1346.0" type="qcurve" smooth="yes"/>
      <point x="538.607476635514" y="1346.0"/>
      <point x="611.607476635514" y="1276.0"/>
      <point x="611.607476635514" y="1202.0" type="qcurve" smooth="yes"/>
    </contour>
    <contour>
      <point x="688.607476635514" y="1149.0" type="line"/>
      <point x="482.607476635514" y="1149.0" type="line" smooth="yes"/>
      <point x="309.86915887850466" y="1149.0"/>
      <point x="141.0" y="1028.0"/>
      <point x="141.0" y="918.0" type="qcurve" smooth="yes"/>
      <point x="141.0" y="816.0"/>
      <point x="269.86915887850466" y="692.0"/>
      <point x="390.196261682243" y="692.0" type="qcurve" smooth="yes"/>
      <point x="492.67289719626166" y="692.0"/>
      <point x="626.607476635514" y="794.0"/>
      <point x="688.607476635514" y="852.0" type="qcurve"/>
      <point x="688.607476635514" y="975.0" type="line"/>
      <point x="628.607476635514" y="911.0"/>
      <point x="495.607476635514" y="822.0"/>
      <point x="431.607476635514" y="822.0" type="qcurve" smooth="yes"/>
      <point x="367.607476635514" y="822.0"/>
      <point x="303.607476635514" y="879.0"/>
      <point x="303.607476635514" y="922.0" type="qcurve" smooth="yes"/>
      <point x="303.607476635514" y="969.0"/>
      <point x="393.607476635514" y="1042.0"/>
      <point x="483.607476635514" y="1042.0" type="qcurve" smooth="yes"/>
      <point x="688.607476635514" y="1042.0" type="line"/>
    </contour>
  </outline>
</glyph>
<glyph name="guillemotleft" format="2">
  <advance width="1106.9532710280373"/>
  <unicode hex="00AB"/>
  <guideline y="901.0" identifier="ZftBQarVKw"/>
  <guideline y="555.0" identifier="MVJpdoVRVd"/>
  <outline>
    <contour>
      <point x="108.0" y="522.0" type="line"/>
      <point x="108.0" y="581.0" type="line"/>
      <point x="403.0" y="949.0" type="line"/>
      <point x="572.4766355140187" y="949.0" type="line"/>
      <point x="314.4766355140187" y="551.0" type="line"/>
      <point x="572.4766355140187" y="153.0" type="line"/>
      <point x="403.0" y="153.0" type="line"/>
    </contour>
    <contour>
      <point x="555.4766355140187" y="522.0" type="line"/>
      <point x="555.4766355140187" y="581.0" type="line"/>
      <point x="850.4766355140187" y="949.0" type="line"/>
      <point x="1019.9532710280374" y="949.0" type="line"/>
      <point x="761.9532710280374" y="551.0" type="line"/>
      <point x="1019.9532710280374" y="153.0" type="line"/>
      <point x="850.4766355140187" y="153.0" type="line"/>
    </contour>
  </outline>
</glyph>
<glyph name="logicalnot" format="2">
  <advance width="1027.7383177570093"/>
  <unicode hex="00AC"/>
  <outline>
    <contour>
      <point x="931.7383177570093" y="801.0" type="line"/>
      <point x="931.7383177570093" y="372.2616822429907" type="line"/>
      <point x="746.2616822429907" y="372.2616822429907" type="line"/>
      <point x="746.2616822429907" y="637.0" type="line"/>
      <point x="58.0" y="637.0" type="line"/>
      <point x="58.0" y="801.0" type="line"/>
    </contour>
  </outline>
</glyph>
<glyph name="registered" format="2">
  <advance width="1654.0"/>
  <unicode hex="00AE"/>
  <outline>
    <contour>
      <point x="38.0" y="687.0" type="qcurve" smooth="yes"/>
      <point x="38.0" y="1039.0"/>
      <point x="501.0" y="1519.0"/>
      <point x="827.0" y="1519.0" type="qcurve" smooth="yes"/>
      <point x="1152.0" y="1519.0"/>
      <point x="1616.0" y="1039.0"/>
      <point x="1616.0" y="687.0" type="qcurve" smooth="yes"/>
      <point x="1616.0" y="337.0"/>
      <point x="1152.0" y="-147.0"/>
      <point x="827.0" y="-147.0" type="qcurve" smooth="yes"/>
      <point x="501.0" y="-147.0"/>
      <point x="38.0" y="337.0"/>
    </contour>
    <contour>
      <point x="186.0" y="687.0" type="qcurve" smooth="yes"/>
      <point x="186.0" y="400.0"/>
      <point x="563.0" y="4.0"/>
      <point x="828.0" y="4.0" type="qcurve" smooth="yes"/>
      <point x="1092.0" y="4.0"/>
      <point x="1469.0" y="400.0"/>
      <point x="1469.0" y="687.0" type="qcurve" smooth="yes"/>
      <point x="1469.0" y="975.0"/>
      <point x="1092.0" y="1367.0"/>
      <point x="828.0" y="1367.0" type="qcurve" smooth="yes"/>
      <point x="563.0" y="1367.0"/>
      <point x="186.0" y="975.0"/>
    </contour>
    <contour>
      <point x="497.8785046728972" y="225.0" type="line"/>
      <point x="497.8785046728972" y="1158.0" type="line"/>
      <point x="822.3084112149533" y="1158.0" type="line" smooth="yes"/>
      <point x="994.9439252336449" y="1158.0"/>
      <point x="1198.8691588785048" y="1018.0"/>
      <point x="1198.8691588785048" y="877.0" type="qcurve" smooth="yes"/>
      <point x="1198.8691588785048" y="763.6635514018692"/>
      <point x="1027.607476635514" y="597.0"/>
      <point x="885.8411214953271" y="597.0" type="qcurve" smooth="yes"/>
      <point x="594.0" y="597.0" type="line"/>
      <point x="594.0" y="738.0" type="line"/>
      <point x="846.626168224299" y="738.0" type="line" smooth="yes"/>
      <point x="919.626168224299" y="738.0"/>
      <point x="1015.626168224299" y="795.0"/>
      <point x="1015.626168224299" y="859.0" type="qcurve" smooth="yes"/>
      <point x="1015.626168224299" y="940.0"/>
      <point x="939.626168224299" y="1006.018691588785"/>
      <point x="821.626168224299" y="1007.0" type="qcurve" smooth="yes"/>
      <point x="665.8691588785047" y="1007.0" type="line"/>
      <point x="665.8691588785047" y="225.0" type="line"/>
    </contour>
    <contour>
      <point x="1041.6261682242991" y="225.0" type="line"/>
      <point x="822.5140186915888" y="672.0" type="line"/>
      <point x="905.7757009345794" y="672.0" type="line"/>
      <point x="963.7757009345794" y="638.0"/>
      <point x="1037.1682242990655" y="559.1308411214953"/>
      <point x="1054.2429906542056" y="530.0" type="qcurve" smooth="yes"/>
      <point x="1223.2429906542056" y="243.0" type="line"/>
      <point x="1223.2429906542056" y="225.0" type="line"/>
    </contour>
  </outline>
</glyph>
<glyph name="degree" format="2">
  <advance width="769.6915887850467"/>
  <unicode hex="00B0"/>
  <outline>
    <contour>
      <point x="130.0" y="1214.7570093457944" type="qcurve"/>
      <point x="130.0" y="1321.6542056074766"/>
      <point x="282.38317757009344" y="1476.943925233645"/>
      <point x="387.3551401869159" y="1476.943925233645" type="qcurve" smooth="yes"/>
      <point x="491.30841121495325" y="1476.943925233645"/>
      <point x="640.6915887850467" y="1321.6542056074766"/>
      <point x="640.6915887850467" y="1214.7570093457944" type="qcurve" smooth="yes"/>
      <point x="640.6915887850467" y="1106.8598130841121"/>
      <point x="491.30841121495325" y="955.607476635514"/>
      <point x="387.3551401869159" y="955.607476635514" type="qcurve" smooth="yes"/>
      <point x="282.4018691588785" y="955.607476635514"/>
      <point x="130.0" y="1106.8598130841121"/>
    </contour>
    <contour>
      <point x="256.3551401869159" y="1214.7757009345794" type="qcurve"/>
      <point x="256.3551401869159" y="1159.7757009345794"/>
      <point x="333.3551401869159" y="1085.7757009345794"/>
      <point x="387.3551401869159" y="1085.7757009345794" type="qcurve" smooth="yes"/>
      <point x="441.3551401869159" y="1085.7757009345794"/>
      <point x="514.3364485981308" y="1159.7757009345794"/>
      <point x="514.3364485981308" y="1214.7757009345794" type="qcurve" smooth="yes"/>
      <point x="514.3364485981308" y="1270.7757009345794"/>
      <point x="441.3551401869159" y="1346.7757009345794"/>
      <point x="387.3551401869159" y="1346.7757009345794" type="qcurve" smooth="yes"/>
      <point x="333.3551401869159" y="1346.7757009345794"/>
      <point x="256.3551401869159" y="1270.7757009345794"/>
    </contour>
  </outline>
</glyph>
<glyph name="plusminus" format="2">
  <advance width="1024.0"/>
  <unicode hex="00B1"/>
  <outline>
    <contour>
      <point x="57.0" y="607.2616822429907" type="line"/>
      <point x="57.0" y="778.7383177570093" type="line"/>
      <point x="967.0" y="778.7383177570093" type="line"/>
      <point x="967.0" y="607.2616822429907" type="line"/>
    </contour>
    <contour>
      <point x="422.0" y="248.0" type="line"/>
      <point x="422.0" y="1161.8691588785048" type="line"/>
      <point x="602.0" y="1161.8691588785048" type="line"/>
      <point x="602.0" y="248.0" type="line"/>
    </contour>
    <contour>
      <point x="57.0" y="1.0" type="line"/>
      <point x="57.0" y="165.0" type="line"/>
      <point x="967.0" y="165.0" type="line"/>
      <point x="967.0" y="1.0" type="line"/>
    </contour>
  </outline>
</glyph>
<glyph name="twosuperior" format="2">
  <advance width="786.0654205607476"/>
  <unicode hex="00B2"/>
  <outline>
    <contour>
      <point x="96.16355140186917" y="697.0000000000001" type="line"/>
      <point x="96.16355140186917" y="805.0000000000001" type="line"/>
      <point x="385.8457943925234" y="1067.96261682243" type="line" smooth="yes"/>
      <point x="452.99532710280374" y="1129.7757009345796"/>
      <point x="490.57476635514024" y="1216.5981308411217"/>
      <point x="490.57476635514024" y="1249.5981308411215" type="qcurve" smooth="yes"/>
      <point x="490.57476635514024" y="1297.3925233644861"/>
      <point x="438.76168224299073" y="1347.0"/>
      <point x="379.7616822429906" y="1347.0" type="qcurve" smooth="yes"/>
      <point x="314.7616822429906" y="1347.0"/>
      <point x="254.38785046728975" y="1282.8130841121495"/>
      <point x="254.38785046728975" y="1207.8130841121495" type="qcurve" smooth="yes"/>
      <point x="254.38785046728975" y="1197.9065420560746" type="line"/>
      <point x="88.5373831775701" y="1197.9065420560746" type="line"/>
      <point x="88.5373831775701" y="1207.8130841121495" type="line" smooth="yes"/>
      <point x="88.5373831775701" y="1338.8130841121495"/>
      <point x="238.5841121495327" y="1487.0000000000002"/>
      <point x="384.37850467289724" y="1487.0000000000002" type="qcurve" smooth="yes"/>
      <point x="521.5373831775702" y="1487.0000000000002"/>
      <point x="674.9392523364486" y="1359.0"/>
      <point x="674.9392523364486" y="1250.9999999999998" type="qcurve" smooth="yes"/>
      <point x="674.9392523364486" y="1170.9999999999998"/>
      <point x="576.6028037383178" y="1047.5887850467288"/>
      <point x="488.32242990654214" y="971.0" type="qcurve" smooth="yes"/>
      <point x="341.64018691588785" y="845.0" type="line"/>
      <point x="705.5654205607477" y="845.0" type="line"/>
      <point x="705.5654205607477" y="697.0000000000001" type="line"/>
    </contour>
  </outline>
</glyph>
<glyph name="threesuperior" format="2">
  <advance width="765.9532710280374"/>
  <unicode hex="00B3"/>
  <outline>
    <contour>
      <point x="63.0" y="920.0" type="qcurve" smooth="yes"/>
      <point x="63.0" y="923.0747663551402" type="line"/>
      <point x="227.47663551401868" y="923.0747663551402" type="line"/>
      <point x="227.47663551401868" y="920.0" type="line" smooth="yes"/>
      <point x="227.47663551401868" y="875.0"/>
      <point x="307.4766355140187" y="824.0"/>
      <point x="373.4766355140187" y="824.0" type="qcurve" smooth="yes"/>
      <point x="442.4766355140187" y="824.0"/>
      <point x="506.4766355140187" y="876.0"/>
      <point x="506.4766355140187" y="925.0" type="qcurve" smooth="yes"/>
      <point x="506.4766355140187" y="978.0"/>
      <point x="430.4766355140187" y="1028.018691588785"/>
      <point x="357.4766355140187" y="1029.0" type="qcurve" smooth="yes"/>
      <point x="273.4766355140187" y="1029.0" type="line"/>
      <point x="273.4766355140187" y="1151.0" type="line"/>
      <point x="357.4766355140187" y="1151.0" type="line" smooth="yes"/>
      <point x="429.4766355140187" y="1151.0"/>
      <point x="493.4766355140187" y="1207.0"/>
      <point x="493.4766355140187" y="1255.0" type="qcurve" smooth="yes"/>
      <point x="493.4766355140187" y="1299.0"/>
      <point x="439.4766355140187" y="1349.0"/>
      <point x="370.4766355140187" y="1349.0" type="qcurve" smooth="yes"/>
      <point x="313.4766355140187" y="1349.0"/>
      <point x="238.47663551401868" y="1299.0"/>
      <point x="238.47663551401868" y="1256.0" type="qcurve" smooth="yes"/>
      <point x="238.47663551401868" y="1252.0" type="line"/>
      <point x="74.0" y="1252.0" type="line"/>
      <point x="74.0" y="1256.0" type="line" smooth="yes"/>
      <point x="74.0" y="1357.0"/>
      <point x="242.55140186915887" y="1487.0"/>
      <point x="367.4766355140187" y="1487.0" type="qcurve" smooth="yes"/>
      <point x="502.4485981308411" y="1487.0"/>
      <point x="670.9532710280374" y="1372.0"/>
      <point x="670.9532710280374" y="1263.0" type="qcurve" smooth="yes"/>
      <point x="670.9532710280374" y="1211.8130841121495"/>
      <point x="607.9719626168225" y="1119.9065420560748"/>
      <point x="547.9532710280374" y="1098.0" type="qcurve"/>
      <point x="547.9532710280374" y="1097.0" type="line"/>
      <point x="614.9345794392524" y="1073.03738317757"/>
      <point x="681.9532710280374" y="981.2990654205607"/>
      <point x="681.9532710280374" y="917.0" type="qcurve" smooth="yes"/>
      <point x="681.9532710280374" y="807.0"/>
      <point x="502.0841121495327" y="686.0"/>
      <point x="368.4766355140187" y="686.0" type="qcurve" smooth="yes"/>
      <point x="231.17757009345794" y="686.0"/>
      <point x="63.0" y="802.0"/>
    </contour>
  </outline>
</glyph>
<glyph name="micro" format="2">
  <advance width="1237.9532710280373"/>
  <unicode hex="00B5"/>
  <outline>
    <contour>
      <point x="254.5" y="1052.0" type="line"/>
      <point x="447.9766355140187" y="1052.0" type="line"/>
      <point x="315.9766355140187" y="371.0" type="line" smooth="yes"/>
      <point x="290.9766355140187" y="245.0"/>
      <point x="382.97663551401865" y="136.00000000000003"/>
      <point x="486.9766355140187" y="136.00000000000003" type="qcurve" smooth="yes"/>
      <point x="575.9766355140187" y="136.00000000000003"/>
      <point x="730.9766355140188" y="232.0"/>
      <point x="783.9766355140188" y="308.00000000000006" type="qcurve"/>
      <point x="927.9766355140187" y="1052.0" type="line"/>
      <point x="1121.4532710280375" y="1052.0" type="line"/>
      <point x="917.4532710280374" y="0.0" type="line"/>
      <point x="741.9766355140189" y="0.0" type="line"/>
      <point x="759.9766355140187" y="135.0" type="line"/>
      <point x="753.9766355140188" y="135.0" type="line"/>
      <point x="682.9766355140187" y="63.00000000000001"/>
      <point x="501.9766355140187" y="-20.0"/>
      <point x="401.9766355140187" y="-20.0" type="qcurve" smooth="yes"/>
      <point x="355.9766355140187" y="-20.0"/>
      <point x="280.97663551401877" y="15.0"/>
      <point x="251.9766355140187" y="42.0" type="qcurve"/>
      <point x="163.9766355140187" y="-416.00000000000006" type="line"/>
      <point x="-29.5" y="-416.00000000000006" type="line"/>
    </contour>
  </outline>
</glyph>
<glyph name="periodcentered" format="2">
  <advance width="631.2990654205607"/>
  <unicode hex="00B7"/>
  <outline>
    <contour>
      <point x="188.5" y="749.0" type="qcurve" smooth="yes"/>
      <point x="188.5" y="799.2523364485982"/>
      <point x="254.12616822429905" y="871.0280373831777"/>
      <point x="315.64018691588785" y="871.0280373831777" type="qcurve" smooth="yes"/>
      <point x="377.1728971962617" y="871.0280373831777"/>
      <point x="442.79906542056074" y="799.2523364485982"/>
      <point x="442.79906542056074" y="749.0" type="qcurve" smooth="yes"/>
      <point x="442.79906542056074" y="698.747663551402"/>
      <point x="377.1728971962617" y="626.9719626168223"/>
      <point x="315.64018691588785" y="626.9719626168223" type="qcurve" smooth="yes"/>
      <point x="254.12616822429905" y="626.9719626168223"/>
      <point x="188.5" y="698.747663551402"/>
    </contour>
  </outline>
</glyph>
<glyph name="onesuperior" format="2">
  <advance width="783.4766355140188"/>
  <unicode hex="00B9"/>
  <outline>
    <contour>
      <point x="135.5" y="1210.9999999999998" type="line"/>
      <point x="135.5" y="1370.0" type="line"/>
      <point x="469.50000000000006" y="1486.0" type="line"/>
      <point x="520.9766355140188" y="1486.0" type="line"/>
      <point x="520.9766355140188" y="697.0000000000001" type="line"/>
      <point x="351.5" y="697.0000000000001" type="line"/>
      <point x="351.5" y="1288.0" type="line"/>
    </contour>
  </outline>
</glyph>
<glyph name="ordmasculine" format="2">
  <advance width="946.9906542056075"/>
  <unicode hex="00BA"/>
  <guideline y="1975.0" identifier="Jnt0R9CyOf"/>
  <outline>
    <contour>
      <point x="124.2803738317757" y="1043.5981308411215" type="qcurve"/>
      <point x="124.2803738317757" y="1123.4018691588785" type="line"/>
      <point x="124.2803738317757" y="1277.6635514018692"/>
      <point x="313.2429906542056" y="1477.0"/>
      <point x="473.6261682242991" y="1477.0" type="qcurve" smooth="yes"/>
      <point x="635.0280373831775" y="1477.0"/>
      <point x="822.9906542056075" y="1277.6635514018692"/>
      <point x="822.9906542056075" y="1123.4018691588785" type="qcurve"/>
      <point x="822.9906542056075" y="1043.5981308411215" type="line"/>
      <point x="822.9906542056075" y="889.3364485981308"/>
      <point x="636.0654205607476" y="691.0"/>
      <point x="475.66355140186914" y="691.0" type="qcurve" smooth="yes"/>
      <point x="314.2803738317757" y="691.0"/>
      <point x="124.2803738317757" y="889.3364485981308"/>
    </contour>
    <contour>
      <point x="294.6261682242991" y="1124.0" type="qcurve"/>
      <point x="294.6261682242991" y="1043.0" type="line"/>
      <point x="294.6261682242991" y="952.0"/>
      <point x="383.6261682242991" y="830.0"/>
      <point x="475.6261682242991" y="830.0" type="qcurve" smooth="yes"/>
      <point x="564.626168224299" y="830.0"/>
      <point x="653.626168224299" y="952.0"/>
      <point x="653.626168224299" y="1043.0" type="qcurve"/>
      <point x="653.626168224299" y="1124.0" type="line"/>
      <point x="653.626168224299" y="1213.0"/>
      <point x="563.626168224299" y="1336.0"/>
      <point x="473.6261682242991" y="1336.0" type="qcurve" smooth="yes"/>
      <point x="383.6261682242991" y="1336.0"/>
      <point x="294.6261682242991" y="1213.0"/>
    </contour>
  </outline>
</glyph>
<glyph name="guillemotright" format="2">
  <advance width="1131.9532710280373"/>
  <unicode hex="00BB"/>
  <guideline y="98.0" identifier="MTEldNnfdj"/>
  <guideline y="443.00000000000006" identifier="G9bQni2n1K"/>
  <outline>
    <contour>
      <point x="99.5" y="153.0" type="line"/>
      <point x="357.50000000000006" y="551.0" type="line"/>
      <point x="99.5" y="949.0" type="line"/>
      <point x="268.9766355140187" y="949.0" type="line"/>
      <point x="563.9766355140188" y="581.0" type="line"/>
      <point x="563.9766355140188" y="522.0000000000001" type="line"/>
      <point x="268.9766355140187" y="153.0" type="line"/>
    </contour>
    <contour>
      <point x="546.9766355140188" y="153.0" type="line"/>
      <point x="804.9766355140188" y="551.0" type="line"/>
      <point x="546.9766355140188" y="949.0" type="line"/>
      <point x="716.4532710280374" y="949.0" type="line"/>
      <point x="1011.4532710280374" y="581.0" type="line"/>
      <point x="1011.4532710280374" y="522.0000000000001" type="line"/>
      <point x="716.4532710280374" y="153.0" type="line"/>
    </contour>
  </outline>
</glyph>
<glyph name="questiondown" format="2">
  <advance width="1007.9719626168223"/>
  <unicode hex="00BF"/>
  <outline>
    <contour>
      <point x="671.0794392523366" y="1047.728971962617" type="qcurve" smooth="yes"/>
      <point x="671.0794392523366" y="997.3084112149534"/>
      <point x="605.2289719626168" y="925.2897196261683"/>
      <point x="543.5093457943925" y="925.2897196261683" type="qcurve" smooth="yes"/>
      <point x="481.7710280373832" y="925.2897196261683"/>
      <point x="415.9392523364486" y="997.3084112149534"/>
      <point x="415.9392523364486" y="1047.728971962617" type="qcurve" smooth="yes"/>
      <point x="415.9392523364486" y="1098.1308411214955"/>
      <point x="481.7710280373832" y="1170.1495327102805"/>
      <point x="543.5093457943925" y="1170.1495327102805" type="qcurve" smooth="yes"/>
      <point x="605.2289719626168" y="1170.1495327102805"/>
      <point x="671.0794392523366" y="1098.1308411214955"/>
    </contour>
    <contour>
      <point x="935.3971962616822" y="52.40186915887851" type="line"/>
      <point x="935.3971962616822" y="32.401869158878505" type="line" smooth="yes"/>
      <point x="935.3971962616822" y="-132.59813084112147"/>
      <point x="713.4906542056075" y="-328.59813084112153"/>
      <point x="517.9205607476636" y="-328.59813084112153" type="qcurve" smooth="yes"/>
      <point x="322.3504672897197" y="-328.59813084112153"/>
      <point x="106.42523364485983" y="-122.5981308411215"/>
      <point x="106.42523364485983" y="47.401869158878505" type="qcurve" smooth="yes"/>
      <point x="106.42523364485983" y="181.98130841121494"/>
      <point x="255.54672897196264" y="388.85981308411215"/>
      <point x="329.65887850467294" y="452.6728971962617" type="qcurve" smooth="yes"/>
      <point x="416.5841121495327" y="529.2616822429907"/>
      <point x="459.56542056074767" y="654.9719626168225"/>
      <point x="459.65887850467294" y="724.1869158878504" type="qcurve" smooth="yes"/>
      <point x="459.75233644859816" y="734.3925233644859" type="line"/>
      <point x="645.6028037383178" y="734.429906542056" type="line"/>
      <point x="645.6028037383178" y="724.0747663551402" type="line" smooth="yes"/>
      <point x="645.6028037383178" y="600.9065420560747"/>
      <point x="581.8644859813085" y="457.95327102803736"/>
      <point x="485.7336448598131" y="364.25233644859816" type="qcurve" smooth="yes"/>
      <point x="403.45327102803736" y="283.40186915887847"/>
      <point x="299.92056074766356" y="146.99065420560748"/>
      <point x="299.92056074766356" y="46.99065420560748" type="qcurve" smooth="yes"/>
      <point x="299.92056074766356" y="-52.82242990654206"/>
      <point x="407.9205607476636" y="-166.59813084112147"/>
      <point x="517.9205607476636" y="-166.59813084112147" type="qcurve" smooth="yes"/>
      <point x="627.9205607476636" y="-166.59813084112147"/>
      <point x="742.9205607476637" y="-62.5981308411215"/>
      <point x="742.9205607476637" y="32.401869158878505" type="qcurve" smooth="yes"/>
      <point x="742.9205607476637" y="52.40186915887851" type="line"/>
    </contour>
  </outline>
</glyph>
<glyph name="AE" format="2">
  <advance width="1921.4766355140187"/>
  <unicode hex="00C6"/>
  <anchor x="993.0" y="1456.0" name="top"/>
  <outline>
    <contour>
      <point x="-15.0" y="0.0" type="line"/>
      <point x="866.0" y="1456.0" type="line"/>
      <point x="1843.4766355140187" y="1456.0" type="line"/>
      <point x="1843.4766355140187" y="1298.0" type="line"/>
      <point x="1129.8130841121495" y="1298.0" type="line"/>
      <point x="1129.8130841121495" y="158.0" type="line"/>
      <point x="1853.4766355140187" y="158.0" type="line"/>
      <point x="1853.4766355140187" y="0.0" type="line"/>
      <point x="930.0" y="0.0" type="line"/>
      <point x="930.0" y="1238.0" type="line"/>
      <point x="212.0" y="0.0" type="line"/>
    </contour>
    <contour>
      <point x="1035.7943925233644" y="672.0" type="line"/>
      <point x="1035.7943925233644" y="830.0" type="line"/>
      <point x="1751.4766355140187" y="830.0" type="line"/>
      <point x="1751.4766355140187" y="672.0" type="line"/>
    </contour>
    <contour>
      <point x="302.0" y="353.0" type="line"/>
      <point x="402.0" y="528.0" type="line"/>
      <point x="1038.7383177570093" y="528.0" type="line"/>
      <point x="1038.7383177570093" y="353.0" type="line"/>
    </contour>
  </outline>
</glyph>
<glyph name="multiply" format="2">
  <advance width="1024.0"/>
  <unicode hex="00D7"/>
  <outline>
    <contour>
      <point x="194.11214953271028" y="235.14953271028037" type="line"/>
      <point x="86.11214953271028" y="347.14953271028037" type="line"/>
      <point x="827.7383177570093" y="1105.8878504672898" type="line"/>
      <point x="935.7383177570093" y="992.8878504672897" type="line"/>
    </contour>
    <contour>
      <point x="816.018691588785" y="235.13084112149534" type="line"/>
      <point x="89.01869158878505" y="978.1308411214953" type="line"/>
      <point x="211.7570093457944" y="1105.8691588785048" type="line"/>
      <point x="938.7570093457944" y="361.86915887850466" type="line"/>
    </contour>
  </outline>
</glyph>
<glyph name="Thorn" format="2">
  <advance width="1186.1308411214952"/>
  <unicode hex="00DE"/>
  <guideline y="901.0" identifier="i9jYwjBDP4"/>
  <guideline y="555.0" identifier="T8KKW8oxop"/>
  <outline>
    <contour>
      <point x="170.0" y="0.0" type="line"/>
      <point x="170.0" y="1456.0" type="line"/>
      <point x="362.94392523364485" y="1456.0" type="line"/>
      <point x="362.94392523364485" y="0.0" type="line"/>
    </contour>
    <contour>
      <point x="278.7383177570093" y="314.0" type="line"/>
      <point x="278.7383177570093" y="465.0" type="line"/>
      <point x="640.9439252336449" y="465.0" type="line" smooth="yes"/>
      <point x="800.9439252336449" y="465.0"/>
      <point x="942.9439252336449" y="604.0"/>
      <point x="942.9439252336449" y="736.0" type="qcurve" smooth="yes"/>
      <point x="942.9439252336449" y="868.0"/>
      <point x="800.9439252336449" y="1012.0"/>
      <point x="640.9439252336449" y="1012.0" type="qcurve" smooth="yes"/>
      <point x="278.7383177570093" y="1012.0" type="line"/>
      <point x="278.7383177570093" y="1163.0" type="line"/>
      <point x="643.8598130841121" y="1163.0" type="line" smooth="yes"/>
      <point x="881.214953271028" y="1163.0"/>
      <point x="1136.1308411214952" y="935.0"/>
      <point x="1136.1308411214952" y="738.0" type="qcurve" smooth="yes"/>
      <point x="1136.1308411214952" y="541.0"/>
      <point x="881.214953271028" y="314.0"/>
      <point x="643.8598130841121" y="314.0" type="qcurve" smooth="yes"/>
    </contour>
  </outline>
</glyph>
<glyph name="germandbls" format="2">
  <advance width="1200.9532710280373"/>
  <unicode hex="00DF"/>
  <outline>
    <contour>
      <point x="339.4766355140187" y="1092.0" type="qcurve" name="hr00"/>
      <point x="339.4766355140187" y="0.0" type="line"/>
      <point x="148.0" y="0.0" type="line"/>
      <point x="148.0" y="1090.2990654205607" type="line" smooth="yes"/>
      <point x="148.0" y="1295.0"/>
      <point x="359.7383177570093" y="1534.0"/>
      <point x="561.5607476635514" y="1534.0" type="qcurve" smooth="yes"/>
      <point x="729.8411214953271" y="1534.0"/>
      <point x="931.9532710280374" y="1361.0"/>
      <point x="931.9532710280374" y="1214.96261682243" type="qcurve" smooth="yes"/>
      <point x="931.9532710280374" y="1126.0280373831777"/>
      <point x="878.0467289719626" y="1014.803738317757"/>
      <point x="837.6822429906542" y="971.5420560747664" type="qcurve" smooth="yes"/>
      <point x="805.4205607476636" y="934.0280373831775"/>
      <point x="746.4766355140187" y="859.0"/>
      <point x="746.4766355140187" y="830.0" type="qcurve" smooth="yes"/>
      <point x="746.4766355140187" y="782.373831775701"/>
      <point x="879.8504672897196" y="682.4766355140187"/>
      <point x="961.7850467289719" y="621.0373831775701" type="qcurve" smooth="yes"/>
      <point x="1043.1869158878505" y="561.9439252336449"/>
      <point x="1152.9532710280373" y="412.2897196261682"/>
      <point x="1152.9532710280373" y="282.74766355140184" type="qcurve" smooth="yes"/>
      <point x="1152.9532710280373" y="157.13084112149534"/>
      <point x="933.7757009345794" y="-20.0"/>
      <point x="764.3457943925233" y="-20.0" type="qcurve" smooth="yes"/>
      <point x="597.2429906542056" y="-20.0"/>
      <point x="399.4766355140187" y="129.0"/>
      <point x="399.4766355140187" y="278.0" type="qcurve" smooth="yes"/>
      <point x="399.4766355140187" y="304.0" type="line"/>
      <point x="562.4766355140187" y="304.0" type="line"/>
      <point x="562.4766355140187" y="295.0" type="line" smooth="yes"/>
      <point x="562.4766355140187" y="211.0"/>
      <point x="667.4766355140187" y="131.0"/>
      <point x="762.4766355140187" y="131.0" type="qcurve" smooth="yes"/>
      <point x="863.4766355140187" y="131.0"/>
      <point x="970.4766355140187" y="218.0"/>
      <point x="970.4766355140187" y="302.0" type="qcurve" smooth="yes"/>
      <point x="970.4766355140187" y="371.0"/>
      <point x="871.4766355140187" y="466.0"/>
      <point x="814.4766355140187" y="512.0" type="qcurve" smooth="yes"/>
      <point x="742.4766355140187" y="569.0"/>
      <point x="570.4766355140187" y="706.0"/>
      <point x="570.4766355140187" y="797.0" type="qcurve" smooth="yes"/>
      <point x="570.4766355140187" y="871.0"/>
      <point x="653.4766355140187" y="982.0"/>
      <point x="685.4766355140187" y="1026.0" type="qcurve" smooth="yes"/>
      <point x="714.4766355140187" y="1066.0"/>
      <point x="749.4766355140187" y="1149.0"/>
      <point x="749.4766355140187" y="1204.0" type="qcurve" smooth="yes"/>
      <point x="749.4766355140187" y="1293.0"/>
      <point x="640.4766355140187" y="1383.0"/>
      <point x="558.4766355140187" y="1383.0" type="qcurve" smooth="yes"/>
      <point x="455.4766355140187" y="1383.0"/>
      <point x="339.4766355140187" y="1241.0"/>
    </contour>
  </outline>
</glyph>
